<svg width="458" height="271" viewBox="0 0 458 271" fill="none" xmlns="http://www.w3.org/2000/svg">
<path d="M413.899 0.988403H43.1443C19.3164 0.988403 0 20.3048 0 44.1327V227.394C0 251.222 19.3164 270.539 43.1443 270.539H413.899C437.727 270.539 457.044 251.222 457.044 227.394V44.1327C457.044 20.3048 437.727 0.988403 413.899 0.988403Z" fill="#8C2746"/>
<path d="M413.899 0.988403H233.918C222.001 28.8864 215.397 59.5975 215.397 91.8522C215.397 163.796 248.215 228.076 299.696 270.539H413.899C437.727 270.539 457.043 251.223 457.043 227.394V44.1327C457.043 20.3042 437.727 0.988403 413.899 0.988403Z" fill="#8C1843"/>
<path d="M43.8964 100.426C28.5713 100.426 13.8275 102.886 0 107.381V227.393C0 251.221 19.3158 270.537 43.1443 270.537H182.964C184.807 261.414 185.781 251.977 185.781 242.311C185.781 163.949 122.256 100.425 43.8948 100.425L43.8964 100.426Z" fill="#8C1843"/>
<path d="M374.341 0.988403H367V270.539H374.341V0.988403Z" fill="#FFD28A"/>
<path d="M457.045 180.438H0V187.779H457.045V180.438Z" fill="#FEBC38"/>
<path d="M367.93 186.61C364.559 186.61 358.494 185.603 347.205 182.053C340.86 180.056 325.459 174.773 319.529 168.841C314.666 163.982 311.991 157.52 311.991 150.644C311.991 143.768 314.668 137.307 319.529 132.446C324.388 127.587 330.852 124.908 337.726 124.908C344.601 124.908 351.061 127.585 355.922 132.446C361.926 138.45 367.245 153.705 369.252 159.985C376.126 181.486 373.479 184.133 372.346 185.265C371.837 185.776 371.001 186.61 367.93 186.61ZM337.725 132.248C332.81 132.248 328.192 134.161 324.717 137.636C321.242 141.111 319.329 145.73 319.329 150.642C319.329 155.554 321.242 160.175 324.717 163.648C331.351 170.286 358.095 178.218 366.459 179.238C365.634 170.739 357.279 144.185 350.729 137.636C347.255 134.161 342.637 132.246 337.725 132.246V132.248Z" fill="#FEBC38"/>
<path d="M412.088 228.677C411.148 228.677 410.209 228.319 409.493 227.601L367.155 185.265C365.721 183.833 365.721 181.509 367.155 180.075C368.588 178.642 370.911 178.642 372.344 180.075L414.682 222.412C416.116 223.844 416.116 226.169 414.682 227.601C413.966 228.317 413.027 228.677 412.088 228.677Z" fill="#FEBC38"/>
<path d="M373.41 186.61C370.339 186.61 369.503 185.774 368.994 185.265C363.159 179.43 377.922 139.94 385.416 132.446C390.278 127.585 396.739 124.908 403.613 124.908C410.487 124.908 416.951 127.585 421.811 132.446C431.846 142.48 431.846 158.805 421.811 168.841C415.881 174.774 400.48 180.057 394.134 182.053C382.847 185.603 376.779 186.61 373.41 186.61ZM372.866 179.317L390.607 137.636C384.058 144.185 375.704 170.741 374.879 179.238C383.241 178.22 409.985 170.288 416.621 163.65C423.794 156.477 423.794 144.807 416.621 137.636C413.146 134.161 408.528 132.248 403.613 132.248C398.698 132.248 394.08 134.161 390.605 137.636L372.866 179.317Z" fill="#FFD28A"/>
<path d="M329.252 228.677C328.313 228.677 327.374 228.319 326.658 227.601C325.224 226.169 325.224 223.844 326.658 222.412L368.996 180.075C370.429 178.642 372.751 178.642 374.185 180.075C375.619 181.509 375.619 183.833 374.185 185.265L331.847 227.601C331.131 228.317 330.192 228.677 329.252 228.677Z" fill="#FFD28A"/>
</svg>
