<svg width="427" height="414" viewBox="0 0 427 414" fill="none" xmlns="http://www.w3.org/2000/svg">
<path d="M275.411 413.11H99.5657C90.6057 413.11 82.8254 405.823 82.2204 396.866L56.499 16.4924C56.2025 12.0911 57.6455 7.94989 60.5615 4.82811C63.4716 1.71541 67.4918 0.000244141 71.881 0.000244141H247.726C256.686 0.000244141 264.466 7.28742 265.071 16.2444L290.79 396.618C291.086 401.019 289.643 405.16 286.727 408.282C283.817 411.395 279.797 413.11 275.408 413.11H275.411ZM71.881 3.69072C68.5233 3.69072 65.462 4.98844 63.2598 7.34792C61.0486 9.71346 59.9535 12.8746 60.1834 16.2444L85.9018 396.618C86.3798 403.678 92.5084 409.419 99.5657 409.419H275.411C278.766 409.419 281.83 408.122 284.032 405.762C286.243 403.397 287.338 400.235 287.108 396.866L261.39 16.4924C260.912 9.43213 254.783 3.69072 247.726 3.69072H71.881Z" fill="black"/>
<path d="M255.09 413.11H79.2444C70.2844 413.11 62.5041 405.822 61.8991 396.865L36.1777 16.4922C35.8813 12.0908 37.3242 7.94965 40.2403 4.82787C43.1503 1.71516 47.1705 0 51.5597 0H227.405V3.69048H51.5597C48.202 3.69048 45.1407 4.98819 42.9385 7.34768C40.7273 9.71321 39.6322 12.8743 39.8621 16.2441L65.5805 396.617C66.0585 403.678 72.1871 409.419 79.2444 409.419H255.09V413.11Z" fill="black"/>
<path d="M172.033 21.3414H146.302C145.283 21.3414 144.457 20.5155 144.457 19.4961C144.457 18.4767 145.283 17.6509 146.302 17.6509H172.033C173.052 17.6509 173.878 18.4767 173.878 19.4961C173.878 20.5155 173.052 21.3414 172.033 21.3414Z" fill="black"/>
<path d="M189.571 23.1806C187.538 23.1806 185.887 21.529 185.887 19.4962C185.887 17.4634 187.538 15.8118 189.571 15.8118C191.604 15.8118 193.256 17.4634 193.256 19.4962C193.256 21.529 191.604 23.1806 189.571 23.1806Z" fill="black"/>
<path d="M290.237 342.994H75.5541C58.1483 342.994 43.3562 328.882 42.5152 311.476L40.189 263.237C39.3511 245.831 52.782 231.72 70.1878 231.72H284.871C302.276 231.72 317.069 245.831 317.909 263.237L320.236 311.476C321.074 328.882 307.643 342.994 290.237 342.994Z" fill="#8C2746"/>
<path d="M303.477 245.323H49.9383C25.0215 245.323 3.84968 225.125 2.64876 200.208L0.0533307 146.364C-1.14759 121.447 18.0792 101.249 42.996 101.249H296.538C321.455 101.249 342.626 121.447 343.827 146.364L346.423 200.205C347.624 225.122 328.397 245.32 303.48 245.32L303.477 245.323Z" fill="#1C1C27"/>
<path d="M92.7225 297.236C91.9633 296.531 91.0679 296.174 90.0606 296.174C88.5723 296.174 87.8069 296.81 87.4228 297.339C86.9993 297.929 86.6544 298.685 86.4034 299.584C85.9315 301.057 85.1903 302.176 84.1921 302.917C83.1878 303.664 81.9445 304.027 80.3988 304.027C78.968 304.027 77.7489 303.704 76.672 303.038C75.6072 302.379 74.7753 301.393 74.128 300.022C73.4595 298.6 73.0662 296.764 72.9603 294.568C72.803 291.307 73.3596 288.784 74.612 287.072C75.825 285.418 77.4797 284.613 79.6728 284.613C81.028 284.613 82.1835 284.925 83.1091 285.542C84.0741 286.183 84.9574 287.187 85.7318 288.527C86.3217 289.547 86.851 290.261 87.3532 290.717C87.9733 291.28 88.8233 291.564 89.8821 291.564C90.8713 291.564 91.7424 291.168 92.3958 290.421C93.0402 289.686 93.3396 288.821 93.2943 287.85C93.2217 286.355 92.5683 284.779 91.3492 283.167C90.1604 281.597 88.4906 280.269 86.3852 279.219C84.2828 278.173 81.8961 277.64 79.2916 277.64C77.159 277.64 75.1383 278.028 73.281 278.79C71.4146 279.558 69.7871 280.69 68.438 282.16C67.0919 283.627 66.0785 285.412 65.4221 287.466C64.7717 289.498 64.5055 291.818 64.6265 294.365C64.7021 295.929 64.923 297.433 65.286 298.83C65.652 300.24 66.1693 301.586 66.8287 302.832C67.4881 304.082 68.2777 305.228 69.1852 306.248C70.2016 307.373 71.3238 308.299 72.5157 308.991C73.7045 309.684 75.0294 310.201 76.4512 310.528C77.8457 310.846 79.3975 311.009 81.0612 311.009C83.2967 311.009 85.2781 310.64 86.9479 309.914C88.6207 309.188 90.0031 308.22 91.0618 307.037C92.1054 305.873 92.8677 304.656 93.3275 303.425C93.7934 302.179 94.0051 300.99 93.9507 299.889C93.9023 298.855 93.4758 297.938 92.7195 297.236H92.7225Z" fill="#F5EDE2"/>
<path d="M115.67 284.02C115.256 283.055 114.908 282.262 114.633 281.663C114.333 281.013 113.97 280.396 113.55 279.827C113.078 279.189 112.47 278.663 111.744 278.26C110.997 277.849 110.092 277.64 109.061 277.64C108.029 277.64 107.167 277.849 106.456 278.26C105.764 278.663 105.204 279.201 104.796 279.857C104.433 280.441 104.1 281.173 103.803 282.029L103.725 282.259C103.486 282.952 103.28 283.554 103.108 284.059L96.3257 303.679C96.0353 304.496 95.8326 305.122 95.7086 305.594C95.5664 306.132 95.5059 306.671 95.5301 307.188C95.5785 308.198 96.0292 309.103 96.8732 309.868C97.702 310.622 98.6519 311.006 99.6985 311.006C100.951 311.006 101.873 310.597 102.442 309.793C102.878 309.176 103.344 308.087 103.87 306.465L104.905 303.277H115.731L117.065 306.39L117.077 306.417C117.295 306.889 117.558 307.442 117.857 308.056C118.199 308.758 118.517 309.278 118.825 309.647C119.173 310.065 119.6 310.398 120.096 310.64C120.598 310.885 121.179 311.009 121.823 311.009C122.933 311.009 123.877 310.609 124.627 309.823C125.375 309.036 125.732 308.138 125.683 307.149C125.644 306.317 125.269 305.161 124.5 303.51L115.67 284.02ZM112.978 296.564H106.958L109.542 288.249L112.981 296.564H112.978Z" fill="#F5EDE2"/>
<path d="M151.676 296.014C150.999 294.816 150.079 293.812 148.939 293.028C147.859 292.287 146.552 291.652 145.058 291.141C143.63 290.651 142.018 290.197 140.266 289.792C138.917 289.456 137.94 289.196 137.356 289.023C136.83 288.866 136.298 288.645 135.774 288.367C135.32 288.125 134.963 287.843 134.709 287.526C134.507 287.272 134.398 286.966 134.38 286.591C134.362 286.195 134.437 285.596 135.311 284.946C136.068 284.386 137.132 284.102 138.482 284.102C139.903 284.102 140.968 284.35 141.552 284.815C142.226 285.354 142.838 286.134 143.367 287.133L143.388 287.172C143.914 288.076 144.398 288.724 144.867 289.156C145.46 289.701 146.256 289.976 147.236 289.976C148.304 289.976 149.223 289.55 149.895 288.742C150.545 287.961 150.851 287.063 150.802 286.074C150.757 285.118 150.463 284.135 149.934 283.155C149.414 282.19 148.621 281.27 147.581 280.417C146.549 279.57 145.267 278.887 143.766 278.384C142.284 277.888 140.539 277.637 138.575 277.637C136.128 277.637 133.974 278.012 132.171 278.756C130.308 279.525 128.877 280.653 127.927 282.108C126.968 283.575 126.527 285.272 126.618 287.148C126.711 289.114 127.295 290.799 128.351 292.151C129.376 293.467 130.735 294.517 132.392 295.27C133.95 295.978 135.883 296.601 138.146 297.124C139.743 297.487 141.032 297.829 141.975 298.147C142.795 298.422 143.473 298.815 143.987 299.317C144.423 299.741 144.652 300.3 144.686 301.023C144.731 301.955 144.362 302.693 143.521 303.34C142.614 304.042 141.355 304.399 139.779 304.399C138.636 304.399 137.716 304.227 137.045 303.888C136.376 303.552 135.85 303.126 135.481 302.627C135.051 302.049 134.634 301.308 134.244 300.43C133.817 299.459 133.321 298.73 132.725 298.204C132.05 297.608 131.243 297.306 130.326 297.306C129.237 297.306 128.339 297.681 127.655 298.419C126.978 299.151 126.66 300.04 126.711 301.063C126.784 302.539 127.344 304.057 128.381 305.576C129.398 307.067 130.704 308.274 132.265 309.17C134.416 310.386 137.108 311.003 140.266 311.003C142.895 311.003 145.191 310.555 147.094 309.672C149.042 308.767 150.524 307.485 151.495 305.86C152.466 304.236 152.908 302.385 152.811 300.361C152.729 298.673 152.345 297.209 151.67 296.011L151.676 296.014Z" fill="#F5EDE2"/>
<path d="M183.802 306.22L182.655 282.408C182.583 280.886 182.141 279.706 181.346 278.892C180.529 278.061 179.497 277.64 178.275 277.64C177.053 277.64 176.079 278.07 175.356 278.917C174.66 279.733 174.346 280.907 174.418 282.408L174.784 290.012H163.68L163.314 282.408C163.241 280.886 162.799 279.706 162.004 278.892C161.187 278.061 160.156 277.64 158.933 277.64C157.711 277.64 156.695 278.073 155.987 278.926C155.313 279.739 155.007 280.91 155.077 282.404L156.223 306.217C156.296 307.711 156.719 308.888 157.478 309.708C158.265 310.555 159.324 311.006 160.54 311.006C161.756 311.006 162.736 310.582 163.477 309.741C164.2 308.924 164.53 307.739 164.457 306.217L164.018 297.109H175.123L175.562 306.217C175.634 307.711 176.058 308.888 176.817 309.708C177.604 310.555 178.662 311.006 179.878 311.006C181.094 311.006 182.075 310.582 182.816 309.741C183.539 308.924 183.868 307.739 183.796 306.217L183.802 306.22Z" fill="#F5EDE2"/>
<path d="M219.849 300.441C219.758 298.549 219.148 296.931 218.039 295.633C217.322 294.797 216.395 294.093 215.267 293.527C217.156 292.088 218.048 290.102 217.929 287.6C217.885 286.686 217.69 285.803 217.347 284.973C217.005 284.147 216.524 283.383 215.918 282.698C215.314 282.019 214.62 281.453 213.862 281.01C212.967 280.482 211.958 280.124 210.864 279.939C209.837 279.766 208.623 279.681 207.253 279.681H198.284C196.829 279.681 195.742 280.045 195.057 280.765C194.372 281.485 194.06 282.6 194.13 284.084L195.132 304.894C195.201 306.343 195.61 307.446 196.342 308.179C197.087 308.923 198.221 309.3 199.711 309.3H208.171C209.667 309.3 210.996 309.225 212.121 309.074C213.287 308.92 214.337 308.647 215.236 308.26L215.251 308.254C216.738 307.588 217.91 306.541 218.737 305.143C219.56 303.75 219.934 302.167 219.852 300.438L219.849 300.441ZM209.079 290.708C208.435 290.935 207.458 291.051 206.175 291.051H202.005L201.754 285.828H205.336C207.225 285.828 208.63 286.029 209.51 286.428C209.918 286.614 210.468 287.013 210.531 288.336C210.553 288.817 210.465 289.238 210.258 289.618L210.242 289.653C209.981 290.181 209.601 290.526 209.079 290.712V290.708ZM207.159 297.006C208.913 297.006 210.229 297.273 211.075 297.798C211.53 298.081 212.143 298.619 212.209 300.023C212.278 301.482 211.823 303.153 207.643 303.153H202.586L202.291 297.006H207.159Z" fill="#F5EDE2"/>
<path d="M238.035 285.055C237.655 284.172 237.338 283.446 237.086 282.896C236.813 282.299 236.48 281.733 236.096 281.214C235.666 280.63 235.11 280.146 234.443 279.778C233.758 279.401 232.932 279.209 231.986 279.209C231.04 279.209 230.251 279.401 229.601 279.778C228.966 280.146 228.454 280.639 228.08 281.243C227.746 281.777 227.442 282.446 227.171 283.232L227.099 283.443C226.882 284.077 226.694 284.627 226.533 285.089L220.32 303.059C220.053 303.807 219.868 304.382 219.755 304.813C219.623 305.306 219.569 305.799 219.591 306.271C219.635 307.198 220.05 308.024 220.82 308.725C221.577 309.417 222.448 309.766 223.406 309.766C224.553 309.766 225.399 309.392 225.917 308.653C226.317 308.087 226.744 307.091 227.225 305.605L228.171 302.685H238.086L239.308 305.535L239.318 305.561C239.516 305.994 239.758 306.5 240.031 307.063C240.345 307.707 240.634 308.182 240.917 308.521C241.238 308.901 241.628 309.206 242.08 309.429C242.539 309.652 243.073 309.769 243.661 309.769C244.679 309.769 245.54 309.404 246.228 308.684C246.913 307.965 247.24 307.141 247.196 306.236C247.159 305.473 246.816 304.414 246.112 302.905L238.026 285.055H238.035ZM235.572 296.548H230.056L232.423 288.93L235.572 296.548Z" fill="#F5EDE2"/>
<path d="M272.498 297.16C271.804 296.516 270.983 296.189 270.06 296.189C268.699 296.189 267.995 296.77 267.643 297.258C267.253 297.798 266.939 298.489 266.709 299.313C266.279 300.661 265.597 301.689 264.686 302.368C263.765 303.053 262.627 303.386 261.21 303.386C259.899 303.386 258.784 303.09 257.794 302.481C256.816 301.877 256.056 300.975 255.465 299.718C254.852 298.417 254.491 296.736 254.393 294.721C254.249 291.733 254.758 289.426 255.908 287.858C257.017 286.343 258.535 285.605 260.54 285.605C261.782 285.605 262.841 285.891 263.686 286.453C264.569 287.041 265.377 287.962 266.09 289.187C266.631 290.121 267.115 290.774 267.577 291.192C268.146 291.708 268.925 291.968 269.893 291.968C270.801 291.968 271.596 291.607 272.197 290.922C272.784 290.249 273.061 289.457 273.02 288.568C272.954 287.198 272.354 285.755 271.238 284.278C270.151 282.839 268.62 281.623 266.694 280.661C264.767 279.703 262.583 279.216 260.198 279.216C258.243 279.216 256.392 279.571 254.695 280.268C252.985 280.972 251.493 282.009 250.261 283.354C249.029 284.7 248.099 286.334 247.498 288.213C246.904 290.073 246.659 292.201 246.772 294.533C246.842 295.966 247.046 297.342 247.379 298.621C247.715 299.913 248.19 301.145 248.79 302.286C249.393 303.43 250.119 304.479 250.946 305.413C251.879 306.444 252.904 307.289 253.994 307.927C255.085 308.562 256.295 309.036 257.599 309.335C258.875 309.627 260.295 309.775 261.823 309.775C263.868 309.775 265.685 309.439 267.215 308.772C268.746 308.106 270.016 307.22 270.983 306.139C271.939 305.07 272.636 303.958 273.061 302.83C273.488 301.689 273.68 300.598 273.633 299.593C273.586 298.647 273.196 297.808 272.505 297.163L272.498 297.16Z" fill="#F5EDE2"/>
<path d="M302.014 304.398C301.681 303.757 301.209 303.037 300.581 302.211L292.693 291.639L298.623 285.749C299.613 284.756 300.087 283.703 300.037 282.613C299.993 281.673 299.588 280.834 298.874 280.184C298.161 279.536 297.265 279.209 296.206 279.209C295.386 279.209 294.71 279.404 294.192 279.785C293.78 280.086 293.315 280.529 292.768 281.13L283.893 290.875L283.541 283.575C283.475 282.182 283.07 281.098 282.344 280.357C281.596 279.596 280.65 279.209 279.534 279.209C278.419 279.209 277.482 279.605 276.835 280.388C276.216 281.133 275.936 282.204 276.002 283.575L276.995 304.159C277.039 305.074 277.093 305.762 277.155 306.258C277.231 306.846 277.397 307.38 277.652 307.839L277.674 307.877C278.026 308.458 278.516 308.926 279.126 309.266C279.729 309.602 280.361 309.772 281.008 309.772C282.111 309.772 283.017 309.388 283.695 308.628C284.362 307.886 284.663 306.796 284.597 305.388L284.343 300.08L287.63 296.774L294.054 305.972C294.34 306.425 294.67 306.934 295.031 307.481C295.474 308.15 296.015 308.697 296.637 309.106C297.309 309.549 298.145 309.772 299.12 309.772C300.201 309.772 301.071 309.454 301.709 308.832C302.353 308.2 302.674 307.399 302.63 306.522C302.595 305.828 302.391 305.114 302.02 304.401L302.014 304.398Z" fill="#F5EDE2"/>
<path d="M342.546 306.946C342.546 306.946 319.362 293.17 317.847 261.738C316.761 239.177 331.114 220.183 351.605 214.524L351.569 219.128C351.569 219.128 366.634 212.751 373.549 213.646C373.549 213.646 365.154 208.788 349.567 206.892C349.567 206.892 350.822 208.298 351.43 211.09C325.899 213.716 306.926 235.39 308.197 261.741C308.197 261.741 307.35 294.722 342.549 306.949L342.546 306.946Z" fill="black"/>
<path d="M392.591 215.522C392.591 215.522 415.774 229.298 417.29 260.73C418.376 283.29 404.025 302.284 383.531 307.944L383.567 303.34C383.567 303.34 368.503 309.717 361.588 308.821C361.588 308.821 369.982 313.679 385.57 315.576C385.57 315.576 384.315 314.169 383.707 311.377C409.237 308.752 428.21 287.078 426.94 260.727C426.94 260.727 427.787 227.746 392.588 215.519L392.591 215.522Z" fill="black"/>
<path d="M69.5045 155.366L69.9985 155.715L69.5045 155.366ZM122.698 155.366L122.204 155.715L122.206 155.718L122.698 155.366ZM122.818 221.132L122.325 220.782L122.818 221.132ZM69.3836 221.132L68.8873 221.478L68.8896 221.481L69.3836 221.132ZM105.531 171.565L104.968 171.788L104.97 171.792L105.531 171.565ZM86.6714 171.565L87.2323 171.792L87.2339 171.788L86.6714 171.565ZM86.5505 205.053L85.984 205.265L85.9867 205.273L85.9896 205.28L86.5505 205.053ZM105.531 205.053L104.968 204.83L104.966 204.837L105.531 205.053ZM61.042 188.128H61.647C61.647 174.34 64.4536 163.557 69.9985 155.715L69.5045 155.366L69.0105 155.016C63.2721 163.132 60.437 174.191 60.437 188.128H61.042ZM69.5045 155.366L69.9985 155.715C75.4996 147.935 84.1557 144.002 96.1011 144.002V143.397V142.792C83.8677 142.792 74.7928 146.839 69.0105 155.016L69.5045 155.366ZM96.1011 143.397V144.002C108.046 144.002 116.703 147.935 122.204 155.715L122.698 155.366L123.192 155.016C117.409 146.839 108.334 142.792 96.1011 142.792V143.397ZM122.698 155.366L122.206 155.718C127.83 163.56 130.676 174.341 130.676 188.128H131.281H131.886C131.886 174.189 129.01 163.129 123.189 155.013L122.698 155.366ZM131.281 188.128H130.676C130.676 202.079 127.869 212.941 122.325 220.782L122.818 221.132L123.312 221.481C129.052 213.364 131.886 202.224 131.886 188.128H131.281ZM122.818 221.132L122.325 220.782C116.824 228.561 108.129 232.495 96.1011 232.495V233.1V233.705C108.413 233.705 117.529 229.66 123.312 221.481L122.818 221.132ZM96.1011 233.1V232.495C84.0734 232.495 75.3779 228.561 69.8776 220.782L69.3836 221.132L68.8896 221.481C74.6727 229.66 83.7888 233.705 96.1011 233.705V233.1ZM69.3836 221.132L69.88 220.786C64.4146 212.944 61.647 202.08 61.647 188.128H61.042H60.437C60.437 202.223 63.2305 213.361 68.8873 221.478L69.3836 221.132ZM107.828 188.128H108.433C108.433 180.847 107.666 175.234 106.092 171.339L105.531 171.565L104.97 171.792C106.458 175.473 107.223 180.901 107.223 188.128H107.828ZM105.531 171.565L106.093 171.343C105.286 169.303 104.039 167.742 102.342 166.698C100.651 165.658 98.5588 165.158 96.1011 165.158V165.763V166.368C98.3984 166.368 100.255 166.835 101.708 167.729C103.154 168.619 104.244 169.959 104.968 171.788L105.531 171.565ZM96.1011 165.763V165.158C93.6433 165.158 91.551 165.658 89.8602 166.698C88.1634 167.742 86.9162 169.303 86.1089 171.343L86.6714 171.565L87.2339 171.788C87.9579 169.959 89.048 168.619 90.4944 167.729C91.9468 166.835 93.8037 166.368 96.1011 166.368V165.763ZM86.6714 171.565L86.1105 171.339C84.5357 175.234 83.7694 180.847 83.7694 188.128H84.3744H84.9794C84.9794 180.901 85.7445 175.473 87.2323 171.792L86.6714 171.565ZM84.3744 188.128H83.7694C83.7694 195.567 84.4951 201.295 85.984 205.265L86.5505 205.053L87.117 204.84C85.7044 201.074 84.9794 195.518 84.9794 188.128H84.3744ZM86.5505 205.053L85.9896 205.28C86.7994 207.283 88.0601 208.813 89.7773 209.834C91.4871 210.852 93.6068 211.34 96.1011 211.34V210.735V210.13C93.7596 210.13 91.8697 209.671 90.396 208.794C88.9296 207.922 87.8329 206.611 87.1114 204.826L86.5505 205.053ZM96.1011 210.735V211.34C98.5949 211.34 100.706 210.852 102.398 209.833C104.097 208.809 105.328 207.275 106.096 205.269L105.531 205.053L104.966 204.837C104.283 206.619 103.217 207.926 101.773 208.796C100.321 209.671 98.443 210.13 96.1011 210.13V210.735ZM105.531 205.053L106.093 205.276C107.667 201.301 108.433 195.569 108.433 188.128H107.828H107.223C107.223 195.517 106.458 201.068 104.968 204.83L105.531 205.053ZM143.881 231.166L143.468 231.608L143.475 231.615L143.483 231.621L143.881 231.166ZM143.881 213.515L143.475 213.067L143.468 213.074L143.881 213.515ZM163.95 213.515L163.536 213.957L163.543 213.964L163.95 213.515ZM163.95 231.045L163.543 230.597L163.536 230.603L163.95 231.045ZM154.036 234.551V233.946C149.958 233.946 146.725 232.85 144.28 230.711L143.881 231.166L143.483 231.621C146.195 233.995 149.733 235.156 154.036 235.156V234.551ZM143.881 231.166L144.295 230.724C141.923 228.506 140.739 225.726 140.739 222.341H140.134H139.529C139.529 226.047 140.842 229.151 143.468 231.608L143.881 231.166ZM140.134 222.341H140.739C140.739 218.955 141.923 216.175 144.295 213.957L143.881 213.515L143.468 213.074C140.842 215.53 139.529 218.634 139.529 222.341H140.134ZM143.881 213.515L144.288 213.964C146.734 211.747 149.963 210.615 154.036 210.615V210.01V209.405C149.728 209.405 146.187 210.609 143.475 213.067L143.881 213.515ZM154.036 210.01V210.615C158.026 210.615 161.172 211.745 163.536 213.957L163.95 213.515L164.363 213.074C161.731 210.611 158.267 209.405 154.036 209.405V210.01ZM163.95 213.515L163.543 213.964C165.993 216.184 167.213 218.962 167.213 222.341H167.818H168.423C168.423 218.627 167.064 215.522 164.356 213.067L163.95 213.515ZM167.818 222.341H167.213C167.213 225.635 165.996 228.374 163.543 230.597L163.95 231.045L164.356 231.493C167.061 229.042 168.423 225.978 168.423 222.341H167.818ZM163.95 231.045L163.536 230.603C161.172 232.815 158.026 233.946 154.036 233.946V234.551V235.156C158.267 235.156 161.731 233.949 164.363 231.487L163.95 231.045ZM241.174 166.125V166.73H241.779V166.125H241.174ZM204.906 166.125V165.52H204.301V166.125H204.906ZM204.906 179.544H204.301V181.06L205.345 179.961L204.906 179.544ZM211.192 175.676L210.986 175.107L211.192 175.676ZM234.525 178.215L234.182 178.713L234.187 178.716L234.525 178.215ZM243.229 188.732L243.786 188.495L243.229 188.732ZM237.91 225.484L238.338 225.912L238.341 225.909L237.91 225.484ZM198.015 230.199L197.752 230.744L197.763 230.749L198.015 230.199ZM186.893 220.527L186.38 220.849L186.893 220.527ZM182.903 206.383V205.778H182.289L182.299 206.392L182.903 206.383ZM205.994 206.383L206.594 206.304L206.525 205.778H205.994V206.383ZM208.412 211.218L207.984 211.646L208.412 211.218ZM220.864 210.372L221.348 210.735L220.864 210.372ZM220.743 195.502L220.294 195.908L220.299 195.914L220.304 195.919L220.743 195.502ZM208.775 194.656L209.156 195.126L209.159 195.123L208.775 194.656ZM206.478 198.646V199.251H206.999L207.076 198.735L206.478 198.646ZM183.387 198.646H182.782V199.251H183.387V198.646ZM183.387 145.211V144.606H182.782V145.211H183.387ZM241.174 145.211H241.779V144.606H241.174V145.211ZM241.174 166.125V165.52H204.906V166.125V166.73H241.174V166.125ZM204.906 166.125H204.301V179.544H204.906H205.511V166.125H204.906ZM204.906 179.544L205.345 179.961C206.796 178.433 208.804 177.188 211.399 176.244L211.192 175.676L210.986 175.107C208.261 176.098 206.078 177.432 204.467 179.128L204.906 179.544ZM211.192 175.676L211.399 176.244C213.984 175.304 216.855 174.83 220.018 174.83V174.225V173.62C216.733 173.62 213.72 174.113 210.986 175.107L211.192 175.676ZM220.018 174.225V174.83C225.727 174.83 230.436 176.138 234.182 178.713L234.525 178.215L234.868 177.716C230.877 174.972 225.914 173.62 220.018 173.62V174.225ZM234.525 178.215L234.187 178.716C238.04 181.311 240.865 184.725 242.673 188.969L243.229 188.732L243.786 188.495C241.886 184.035 238.908 180.437 234.863 177.713L234.525 178.215ZM243.229 188.732L242.673 188.969C244.492 193.24 245.405 197.914 245.405 202.998H246.01H246.615C246.615 197.766 245.674 192.929 243.786 188.495L243.229 188.732ZM246.01 202.998H245.405C245.405 212.389 242.742 219.717 237.479 225.059L237.91 225.484L238.341 225.909C243.877 220.289 246.615 212.627 246.615 202.998H246.01ZM237.91 225.484L237.482 225.056C232.223 230.315 224.897 232.979 215.424 232.979V233.584V234.189C225.132 234.189 232.797 231.452 238.338 225.912L237.91 225.484ZM215.424 233.584V232.979C208.801 232.979 203.088 231.862 198.267 229.649L198.015 230.199L197.763 230.749C202.775 233.049 208.667 234.189 215.424 234.189V233.584ZM198.015 230.199L198.278 229.654C193.534 227.361 189.918 224.21 187.405 220.206L186.893 220.527L186.38 220.849C189.026 225.066 192.825 228.362 197.752 230.743L198.015 230.199ZM186.893 220.527L187.405 220.206C184.891 216.198 183.587 211.593 183.508 206.374L182.903 206.383L182.299 206.392C182.381 211.811 183.737 216.636 186.38 220.849L186.893 220.527ZM182.903 206.383V206.988H205.994V206.383V205.778H182.903V206.383ZM205.994 206.383L205.394 206.461C205.654 208.452 206.523 210.186 207.984 211.646L208.412 211.218L208.84 210.791C207.56 209.511 206.818 208.021 206.594 206.304L205.994 206.383ZM208.412 211.218L207.984 211.646C209.505 213.167 211.698 213.879 214.457 213.879V213.274V212.669C211.896 212.669 210.059 212.01 208.84 210.791L208.412 211.218ZM214.457 213.274V213.879C217.432 213.879 219.763 212.849 221.348 210.735L220.864 210.372L220.38 210.009C219.063 211.765 217.123 212.669 214.457 212.669V213.274ZM220.864 210.372L221.348 210.735C222.9 208.666 223.645 205.946 223.645 202.635H223.04H222.435C222.435 205.771 221.73 208.21 220.38 210.009L220.864 210.372ZM223.04 202.635H223.645C223.645 199.401 222.857 196.849 221.182 195.086L220.743 195.502L220.304 195.919C221.692 197.379 222.435 199.583 222.435 202.635H223.04ZM220.743 195.502L221.192 195.096C219.516 193.245 217.117 192.359 214.094 192.359V192.964V193.569C216.874 193.569 218.907 194.375 220.294 195.908L220.743 195.502ZM214.094 192.964V192.359C211.81 192.359 209.891 192.953 208.39 194.189L208.775 194.656L209.159 195.123C210.398 194.103 212.025 193.569 214.094 193.569V192.964ZM208.775 194.656L208.393 194.187C206.989 195.327 206.144 196.792 205.879 198.556L206.478 198.646L207.076 198.735C207.295 197.276 207.981 196.08 209.156 195.126L208.775 194.656ZM206.478 198.646V198.041H183.387V198.646V199.251H206.478V198.646ZM183.387 198.646H183.992V145.211H183.387H182.782V198.646H183.387ZM183.387 145.211V145.816H241.174V145.211V144.606H183.387V145.211ZM241.174 145.211H240.569V166.125H241.174H241.779V145.211H241.174ZM255.572 195.3L255.158 194.859L255.572 195.3ZM269.85 210.09L270.263 210.532L270.268 210.527L269.85 210.09ZM255.572 210.09L255.153 210.527L255.162 210.536L255.572 210.09ZM293.229 193.366L293.763 193.652L294.24 192.761H293.229V193.366ZM271.67 233.584V234.189H272.032L272.203 233.87L271.67 233.584ZM260.976 233.584L260.442 233.298L259.965 234.189H260.976V233.584ZM282.535 193.366V192.761H282.173L282.002 193.08L282.535 193.366ZM264.446 205.255L263.973 204.877L263.965 204.887L263.958 204.897L264.446 205.255ZM264.446 200.135L263.958 200.493L263.965 200.504L263.973 200.513L264.446 200.135ZM284.355 216.86L284.769 217.301L284.769 217.301L284.355 216.86ZM298.576 216.86L298.153 217.292L298.163 217.301L298.576 216.86ZM298.576 231.65L298.995 232.087L298.995 232.086L298.576 231.65ZM284.355 231.65L283.937 232.087L283.946 232.095L284.355 231.65ZM293.172 226.814L292.688 226.451L292.685 226.457L293.172 226.814ZM293.172 221.695L292.674 222.038L292.686 222.056L292.7 222.073L293.172 221.695ZM252.841 202.695H253.446C253.446 199.588 254.32 197.303 255.985 195.742L255.572 195.3L255.158 194.859C253.182 196.711 252.236 199.356 252.236 202.695H252.841ZM255.572 195.3L255.985 195.742C257.673 194.159 259.904 193.345 262.739 193.345V192.74V192.135C259.658 192.135 257.111 193.028 255.158 194.859L255.572 195.3ZM262.739 192.74V193.345C265.533 193.345 267.747 194.158 269.436 195.742L269.85 195.3L270.263 194.859C268.312 193.03 265.785 192.135 262.739 192.135V192.74ZM269.85 195.3L269.436 195.742C271.101 197.303 271.975 199.588 271.975 202.695H272.58H273.185C273.185 199.356 272.239 196.711 270.263 194.859L269.85 195.3ZM272.58 202.695H271.975C271.975 205.762 271.103 208.052 269.431 209.654L269.85 210.09L270.268 210.527C272.237 208.64 273.185 206 273.185 202.695H272.58ZM269.85 210.09L269.436 209.649C267.747 211.233 265.533 212.045 262.739 212.045V212.65V213.255C265.785 213.255 268.312 212.361 270.263 210.532L269.85 210.09ZM262.739 212.65V212.045C259.945 212.045 257.71 211.233 255.981 209.645L255.572 210.09L255.162 210.536C257.15 212.361 259.693 213.255 262.739 213.255V212.65ZM255.572 210.09L255.99 209.654C254.319 208.052 253.446 205.762 253.446 202.695H252.841H252.236C252.236 206 253.184 208.64 255.153 210.527L255.572 210.09ZM293.229 193.366L292.696 193.08L271.137 233.298L271.67 233.584L272.203 233.87L293.763 193.652L293.229 193.366ZM271.67 233.584V232.979H260.976V233.584V234.189H271.67V233.584ZM260.976 233.584L261.509 233.87L283.068 193.652L282.535 193.366L282.002 193.08L260.442 233.298L260.976 233.584ZM282.535 193.366V193.971H293.229V193.366V192.761H282.535V193.366ZM262.682 199.282V198.677C261.735 198.677 260.951 199.037 260.433 199.794C259.944 200.51 259.745 201.508 259.745 202.695H260.35H260.955C260.955 201.608 261.144 200.899 261.433 200.477C261.693 200.096 262.075 199.887 262.682 199.887V199.282ZM260.35 202.695H259.745C259.745 203.883 259.944 204.881 260.433 205.596C260.951 206.354 261.735 206.713 262.682 206.713V206.108V205.503C262.075 205.503 261.693 205.294 261.433 204.914C261.144 204.492 260.955 203.783 260.955 202.695H260.35ZM262.682 206.108V206.713C263.616 206.713 264.393 206.35 264.934 205.613L264.446 205.255L263.958 204.897C263.664 205.298 263.265 205.503 262.682 205.503V206.108ZM264.446 205.255L264.918 205.633C265.495 204.911 265.733 203.898 265.733 202.695H265.128H264.523C264.523 203.768 264.306 204.461 263.973 204.877L264.446 205.255ZM265.128 202.695H265.733C265.733 201.493 265.495 200.479 264.918 199.758L264.446 200.135L263.973 200.513C264.306 200.929 264.523 201.622 264.523 202.695H265.128ZM264.446 200.135L264.934 199.778C264.393 199.04 263.616 198.677 262.682 198.677V199.282V199.887C263.265 199.887 263.664 200.093 263.958 200.493L264.446 200.135ZM281.625 224.198H282.23C282.23 221.13 283.102 218.863 284.769 217.301L284.355 216.86L283.942 216.418C281.968 218.269 281.02 220.894 281.02 224.198H281.625ZM284.355 216.86L284.769 217.301C286.499 215.677 288.732 214.848 291.523 214.848V214.243V213.638C288.473 213.638 285.928 214.553 283.941 216.419L284.355 216.86ZM291.523 214.243V214.848C294.314 214.848 296.503 215.677 298.153 217.292L298.576 216.86L299 216.427C297.085 214.553 294.572 213.638 291.523 213.638V214.243ZM298.576 216.86L298.163 217.301C299.829 218.863 300.702 221.13 300.702 224.198H301.307H301.912C301.912 220.894 300.964 218.269 298.99 216.418L298.576 216.86ZM301.307 224.198H300.702C300.702 227.305 299.828 229.612 298.158 231.213L298.576 231.65L298.995 232.086C300.965 230.198 301.912 227.538 301.912 224.198H301.307ZM298.576 231.65L298.158 231.213C296.509 232.792 294.317 233.604 291.523 233.604V234.209V234.814C294.568 234.814 297.08 233.92 298.995 232.087L298.576 231.65ZM291.523 234.209V233.604C288.729 233.604 286.494 232.792 284.765 231.204L284.355 231.65L283.946 232.095C285.933 233.92 288.477 234.814 291.523 234.814V234.209ZM284.355 231.65L284.774 231.213C283.104 229.612 282.23 227.305 282.23 224.198H281.625H281.02C281.02 227.538 281.966 230.198 283.937 232.086L284.355 231.65ZM291.466 220.785V220.18C290.506 220.18 289.708 220.535 289.178 221.291C288.677 222.008 288.472 223.008 288.472 224.198H289.077H289.682C289.682 223.112 289.875 222.406 290.17 221.985C290.437 221.603 290.833 221.39 291.466 221.39V220.785ZM289.077 224.198H288.472C288.472 225.405 288.676 226.418 289.176 227.143C289.703 227.91 290.501 228.273 291.466 228.273V227.668V227.063C290.838 227.063 290.441 226.847 290.172 226.457C289.876 226.026 289.682 225.304 289.682 224.198H289.077ZM291.466 227.668V228.273C292.374 228.273 293.126 227.9 293.66 227.172L293.172 226.814L292.685 226.457C292.384 226.866 291.999 227.063 291.466 227.063V227.668ZM293.172 226.814L293.656 227.177C294.221 226.425 294.46 225.404 294.46 224.198H293.855H293.25C293.25 225.267 293.034 225.99 292.688 226.451L293.172 226.814ZM293.855 224.198H294.46C294.46 223.028 294.22 222.036 293.645 221.317L293.172 221.695L292.7 222.073C293.035 222.492 293.25 223.168 293.25 224.198H293.855ZM293.172 221.695L293.671 221.352C293.144 220.585 292.391 220.18 291.466 220.18V220.785V221.39C291.982 221.39 292.367 221.591 292.674 222.038L293.172 221.695Z" fill="#F5EDE2"/>
<path d="M66.4106 182.641C66.4106 168.778 69.2315 157.858 74.8732 149.879C80.5149 141.9 89.3804 137.91 101.47 137.91C113.559 137.91 122.425 141.9 128.066 149.879C133.789 157.858 136.65 168.778 136.65 182.641C136.65 196.664 133.829 207.666 128.187 215.645C122.545 223.624 113.64 227.613 101.47 227.613C89.2998 227.613 80.394 223.624 74.7523 215.645C69.1912 207.666 66.4106 196.664 66.4106 182.641ZM113.196 182.641C113.196 175.387 112.431 169.866 110.899 166.078C109.368 162.21 106.225 160.276 101.47 160.276C96.7146 160.276 93.5714 162.21 92.04 166.078C90.5087 169.866 89.7431 175.387 89.7431 182.641C89.7431 190.056 90.4684 195.697 91.9191 199.566C93.4505 203.354 96.634 205.248 101.47 205.248C106.305 205.248 109.449 203.354 110.899 199.566C112.431 195.697 113.196 190.056 113.196 182.641ZM159.405 229.064C155.214 229.064 151.829 227.935 149.25 225.679C146.752 223.342 145.502 220.4 145.502 216.854C145.502 213.307 146.752 210.366 149.25 208.028C151.829 205.691 155.214 204.522 159.405 204.522C163.515 204.522 166.82 205.691 169.318 208.028C171.897 210.366 173.187 213.307 173.187 216.854C173.187 220.319 171.897 223.221 169.318 225.558C166.82 227.895 163.515 229.064 159.405 229.064ZM246.543 160.638H210.275V174.057C211.806 172.445 213.901 171.156 216.561 170.189C219.221 169.222 222.163 168.738 225.386 168.738C231.189 168.738 236.025 170.068 239.894 172.728C243.843 175.387 246.744 178.893 248.598 183.245C250.452 187.597 251.378 192.353 251.378 197.511C251.378 207.021 248.678 214.516 243.279 219.997C237.879 225.397 230.383 228.097 220.792 228.097C214.103 228.097 208.3 226.968 203.384 224.712C198.548 222.374 194.841 219.151 192.262 215.04C189.683 210.93 188.353 206.215 188.272 200.896H211.363C211.605 202.749 212.41 204.361 213.781 205.731C215.151 207.102 217.166 207.787 219.825 207.787C222.646 207.787 224.782 206.819 226.233 204.885C227.683 202.951 228.409 200.372 228.409 197.148C228.409 194.005 227.643 191.627 226.112 190.015C224.58 188.323 222.364 187.477 219.463 187.477C217.286 187.477 215.513 188.041 214.143 189.169C212.854 190.217 212.088 191.547 211.846 193.158H188.756V139.724H246.543V160.638ZM258.21 197.208C258.21 193.985 259.12 191.52 260.94 189.813C262.761 188.107 265.15 187.253 268.108 187.253C271.028 187.253 273.398 188.107 275.218 189.813C277.039 191.52 277.949 193.985 277.949 197.208C277.949 200.394 277.039 202.859 275.218 204.603C273.398 206.31 271.028 207.163 268.108 207.163C265.188 207.163 262.798 206.31 260.94 204.603C259.12 202.859 258.21 200.394 258.21 197.208ZM298.598 187.879L277.039 228.097H266.344L287.904 187.879H298.598ZM268.051 193.795C266.496 193.795 265.719 194.933 265.719 197.208C265.719 199.484 266.496 200.621 268.051 200.621C268.809 200.621 269.397 200.337 269.814 199.768C270.269 199.199 270.497 198.346 270.497 197.208C270.497 196.071 270.269 195.217 269.814 194.648C269.397 194.08 268.809 193.795 268.051 193.795ZM286.993 218.711C286.993 215.525 287.904 213.079 289.724 211.373C291.582 209.628 293.971 208.756 296.891 208.756C299.812 208.756 302.163 209.628 303.945 211.373C305.765 213.079 306.676 215.525 306.676 218.711C306.676 221.934 305.765 224.418 303.945 226.163C302.163 227.869 299.812 228.722 296.891 228.722C293.971 228.722 291.582 227.869 289.724 226.163C287.904 224.418 286.993 221.934 286.993 218.711ZM296.835 215.298C295.242 215.298 294.445 216.435 294.445 218.711C294.445 221.024 295.242 222.181 296.835 222.181C297.555 222.181 298.124 221.896 298.541 221.327C298.996 220.721 299.224 219.848 299.224 218.711C299.224 217.611 298.996 216.777 298.541 216.208C298.124 215.601 297.555 215.298 296.835 215.298Z" fill="#F5EDE2"/>
<path d="M350.564 226.376C330.698 234.512 321.188 257.211 329.324 277.077C337.459 296.943 360.159 306.452 380.025 298.317C399.891 290.182 409.4 267.482 401.265 247.616C393.129 227.75 370.429 218.241 350.564 226.376Z" fill="#8C2746" stroke="black" stroke-width="1.81748" stroke-linecap="round" stroke-linejoin="round"/>
<path d="M376.825 248.969V244.417H352.086V248.969H359.957C362.886 248.969 365.357 250.877 366.288 253.522H352.086V258.074H366.288C365.827 259.402 364.97 260.552 363.837 261.368C362.703 262.183 361.348 262.623 359.957 262.627H352.086V268.122L364.649 280.838H371.009L357.515 267.18H359.957C362.548 267.176 365.059 266.269 367.065 264.61C369.072 262.951 370.452 260.643 370.973 258.074H376.825V253.522H370.973C370.628 251.865 369.918 250.309 368.895 248.969H376.825Z" fill="#F5EDE2"/>
</svg>
