<svg width="40" height="40" viewBox="0 0 40 40" fill="none" xmlns="http://www.w3.org/2000/svg">
    <path class="scale" d="M19.9638 40C16.5004 40 13.0778 39.0907 9.99755 37.3129C0.445061 31.8007 -2.83956 19.5451 2.67738 9.99709C8.19432 0.449086 20.444 -2.84086 29.9914 2.67644C34.6195 5.34825 37.9245 9.65992 39.3089 14.8196C40.6932 19.9793 39.9832 25.3689 37.3115 29.9922C34.6399 34.6206 30.3285 37.9259 25.1691 39.3103C23.4477 39.7701 21.6955 40 19.9587 40H19.9638ZM20.02 4.08642C14.5184 4.08642 9.15979 6.94214 6.21231 12.0405C1.8243 19.6371 4.43974 29.3894 12.0358 33.7726C19.6318 38.1609 29.3835 35.5453 33.7715 27.9488C35.8965 24.2655 36.4584 19.9793 35.3602 15.8771C34.2619 11.7698 31.626 8.3419 27.948 6.21672C25.4501 4.77609 22.7172 4.08642 20.02 4.08642Z" fill="black"/>
</svg>
