<svg width="24" height="16" viewBox="0 0 24 16" fill="none" xmlns="http://www.w3.org/2000/svg">
    <path d="M7.64091 6.71724V9.54399H11.9713C11.851 10.6867 10.7082 12.8519 7.64091 12.8519C5.05474 12.8519 2.94971 10.6867 2.94971 8.0404C2.94971 5.39408 4.93445 3.22891 7.52063 3.22891C9.02422 3.22891 10.0467 3.83034 10.588 4.37164L12.693 2.38689C11.6142 1.36317 10.256 0.682408 8.79029 0.430716C7.32455 0.179024 5.81708 0.367716 4.45859 0.972919C3.1001 1.57812 1.95163 2.57264 1.15846 3.83068C0.365295 5.08871 -0.0369313 6.55373 0.00266623 8.0404C0.00266623 12.2505 3.43086 15.6786 7.64091 15.6786C12.0915 15.6786 14.9784 12.491 14.9784 8.16069L14.8582 6.71724" fill="currentColor"/>
    <path fill-rule="evenodd" clip-rule="evenodd" d="M21.3236 8.61177V11.2882H19.5794V8.61177H16.903V6.8676H19.5794V4.19121H21.3236V6.8676H24V8.61177H21.3236Z" fill="currentColor"/>
</svg>
