<svg width="326" height="557" viewBox="0 0 326 557" fill="none" xmlns="http://www.w3.org/2000/svg">
<g clip-path="url(#clip0_8490_267)">
<path d="M217.771 113.15L195.594 29.4494C191.704 14.9377 202.688 0.694153 217.771 0.694153C232.854 0.694153 243.841 14.9345 239.947 29.4494L217.771 113.15Z" fill="#1C1C27"/>
<path d="M324.944 28.3387H0.693848V430.01H324.944V28.3387Z" fill="#8C2746"/>
<path d="M324.947 430.707H0.693702C0.308742 430.707 -0.000488281 430.395 -0.000488281 430.013V28.3387C-0.000488281 27.9538 0.311897 27.6445 0.693702 27.6445H324.944C325.329 27.6445 325.638 27.9569 325.638 28.3387V430.01C325.638 430.395 325.326 430.704 324.944 430.704L324.947 430.707ZM1.39105 429.316H324.25V29.0361H1.39105V429.316Z" fill="#1C1C27"/>
<path d="M310.71 416.644H36.2051V56.2894H248.706L310.71 117.814V416.644Z" fill="#1C1C27"/>
<path d="M310.71 117.814H248.707V56.2894L310.71 117.814Z" fill="#1C1C27"/>
<path d="M303.677 409.667H16.626V49.3096H238.839L303.677 110.837V409.667Z" fill="white"/>
<path d="M303.676 410.361H16.6253C16.2404 410.361 15.9312 410.049 15.9312 409.667V49.3096C15.9312 48.9246 16.2435 48.6154 16.6253 48.6154H238.836C239.012 48.6154 239.186 48.6848 239.315 48.8047L304.156 110.329C304.295 110.461 304.374 110.641 304.374 110.834V409.664C304.374 410.049 304.061 410.358 303.679 410.358L303.676 410.361ZM17.3227 408.97H302.982V111.134L238.561 50.0038H17.3227V408.97Z" fill="#1C1C27"/>
<path d="M303.677 110.837H238.839V49.3096L303.677 110.837Z" fill="white"/>
<path d="M303.676 111.531H238.836C238.451 111.531 238.142 111.219 238.142 110.837V49.3127C238.142 49.035 238.309 48.7826 238.561 48.6722C238.817 48.5617 239.113 48.6154 239.315 48.8079L304.156 110.332C304.361 110.528 304.427 110.831 304.323 111.096C304.219 111.361 303.96 111.534 303.676 111.534V111.531ZM239.533 110.14H301.935L239.533 50.9283V110.14Z" fill="#1C1C27"/>
<path d="M111.711 91.2671H211.974L195.594 29.4494C191.704 14.9377 202.688 0.694153 217.771 0.694153H117.507C102.425 0.694153 91.4374 14.9345 95.3312 29.4494L111.711 91.2671Z" fill="white"/>
<path d="M211.971 91.9613H111.711C111.395 91.9613 111.118 91.7499 111.039 91.4438L94.659 29.6261C92.7532 22.5233 94.2331 15.0955 98.7169 9.25165C103.229 3.36996 110.08 -0.00317383 117.511 -0.00317383H217.774C218.159 -0.00317383 218.468 0.309212 218.468 0.691017C218.468 1.07282 218.156 1.38521 217.774 1.38521C210.778 1.38521 204.332 4.55955 200.084 10.0941C195.866 15.5909 194.474 22.5801 196.266 29.2633L212.646 91.0809C212.7 91.2892 212.656 91.5132 212.526 91.6836C212.394 91.854 212.192 91.955 211.974 91.955L211.971 91.9613ZM112.244 90.5697H211.065L194.919 29.6261C193.013 22.5233 194.493 15.0955 198.977 9.25165C201.788 5.58821 205.509 2.89665 209.708 1.38836H117.507C110.512 1.38836 104.065 4.56271 99.8181 10.0973C95.5994 15.594 94.2078 22.5833 96.0001 29.2664L112.244 90.5666V90.5697Z" fill="#1C1C27"/>
<path d="M220.512 223.331H147.411C147.026 223.331 146.717 223.018 146.717 222.636C146.717 222.255 147.029 221.942 147.411 221.942H220.512C220.897 221.942 221.207 222.255 221.207 222.636C221.207 223.018 220.894 223.331 220.512 223.331Z" fill="#1C1C27"/>
<path d="M220.512 259.094H147.411C147.026 259.094 146.717 258.782 146.717 258.4C146.717 258.018 147.029 257.706 147.411 257.706H220.512C220.897 257.706 221.207 258.018 221.207 258.4C221.207 258.782 220.894 259.094 220.512 259.094Z" fill="#1C1C27"/>
<path d="M238.41 241.212H147.411C147.026 241.212 146.717 240.9 146.717 240.518C146.717 240.136 147.029 239.824 147.411 239.824H238.41C238.795 239.824 239.104 240.136 239.104 240.518C239.104 240.9 238.792 241.212 238.41 241.212Z" fill="#1C1C27"/>
<path d="M130.965 263.862H74.9061C74.5211 263.862 74.2119 263.549 74.2119 263.168V208.97C74.2119 208.585 74.5243 208.276 74.9061 208.276H130.965C131.35 208.276 131.659 208.588 131.659 208.97V263.168C131.659 263.553 131.347 263.862 130.965 263.862ZM75.6003 262.473H130.268V209.668H75.6003V262.473Z" fill="#1C1C27"/>
<path d="M105.239 269.592L69.3682 226.104L79.1562 218.042L103.866 247.999L132.539 202.546L143.271 209.305L105.239 269.592Z" fill="#1C1C27"/>
<path d="M130.965 347.31H74.9061C74.5211 347.31 74.2119 346.997 74.2119 346.616V292.418C74.2119 292.033 74.5243 291.724 74.9061 291.724H130.965C131.35 291.724 131.659 292.036 131.659 292.418V346.616C131.659 347.001 131.347 347.31 130.965 347.31ZM75.6003 345.921H130.268V293.116H75.6003V345.921Z" fill="#1C1C27"/>
<path d="M105.239 353.04L69.3682 309.552L79.1562 301.493L103.866 331.447L132.539 285.994L143.271 292.753L105.239 353.04Z" fill="#1C1C27"/>
<path d="M220.512 307.678H147.411C147.026 307.678 146.717 307.365 146.717 306.984C146.717 306.602 147.029 306.289 147.411 306.289H220.512C220.897 306.289 221.207 306.602 221.207 306.984C221.207 307.365 220.894 307.678 220.512 307.678Z" fill="#1C1C27"/>
<path d="M238.41 325.56H194.994C194.61 325.56 194.3 325.247 194.3 324.865C194.3 324.484 194.613 324.171 194.994 324.171H238.41C238.795 324.171 239.104 324.484 239.104 324.865C239.104 325.247 238.792 325.56 238.41 325.56Z" fill="#1C1C27"/>
<path d="M96.1543 140.003H98.5145V170.279H117.172V172.409H96.1543V140.003Z" fill="#1C1C27"/>
<path d="M119.489 156.205C119.489 146.809 126.664 139.772 136.339 139.772C146.013 139.772 153.189 146.761 153.189 156.205C153.189 165.65 145.966 172.642 136.339 172.642C126.712 172.642 119.489 165.605 119.489 156.205ZM150.784 156.205C150.784 148.011 144.581 141.946 136.339 141.946C128.097 141.946 121.849 148.011 121.849 156.205C121.849 164.4 128.053 170.465 136.339 170.465C144.625 170.465 150.784 164.4 150.784 156.205Z" fill="#1C1C27"/>
<path d="M180.969 163.286H162.172L158.051 172.405H155.504L170.411 139.999H172.771L187.677 172.405H185.131L180.965 163.286H180.969ZM180.091 161.298L171.572 142.596L163.099 161.298H180.091Z" fill="#1C1C27"/>
<path d="M219.95 140.003V172.409H218.007L195.925 144.262V172.409H193.565V140.003H195.556L217.593 168.149V140.003H219.954H219.95Z" fill="#1C1C27"/>
<path d="M324.679 324.667L227.095 491.995L159.484 452.464L257.068 285.135L324.679 324.667Z" fill="white"/>
<path d="M227.095 492.692C226.972 492.692 226.852 492.661 226.744 492.597L159.133 453.066C158.802 452.874 158.692 452.448 158.884 452.117L256.468 284.788C256.56 284.627 256.714 284.514 256.894 284.467C257.071 284.416 257.264 284.444 257.421 284.539L325.032 324.07C325.364 324.263 325.474 324.689 325.282 325.02L227.697 492.348C227.603 492.509 227.451 492.623 227.271 492.67C227.215 492.686 227.155 492.692 227.095 492.692ZM160.433 452.215L226.845 491.045L323.729 324.916L257.317 286.085L160.433 452.215Z" fill="#1C1C27"/>
<path d="M189.428 469.973C199.087 453.414 193.508 432.149 176.968 422.481L159.48 452.464L189.425 469.973H189.428Z" fill="#8C2746" fill-opacity="0.32"/>
<path d="M197.15 474.489L227.095 491.998L244.582 462.015C228.045 452.347 206.809 457.932 197.15 474.492V474.489Z" fill="#8C2746" fill-opacity="0.32"/>
<path d="M294.734 307.157C285.075 323.717 290.654 344.981 307.195 354.649L324.682 324.666L294.737 307.157H294.734Z" fill="#8C2746" fill-opacity="0.32"/>
<path d="M239.581 315.118C256.118 324.786 277.357 319.201 287.013 302.642L257.068 285.132L239.581 315.115V315.118Z" fill="#8C2746" fill-opacity="0.32"/>
<path d="M227.095 492.692C226.972 492.692 226.852 492.661 226.744 492.597L159.133 453.066C158.802 452.874 158.692 452.448 158.884 452.117L256.468 284.788C256.56 284.627 256.714 284.514 256.894 284.467C257.071 284.416 257.264 284.444 257.421 284.539L325.032 324.07C325.364 324.263 325.474 324.689 325.282 325.02L227.697 492.348C227.603 492.509 227.451 492.623 227.271 492.67C227.215 492.686 227.155 492.692 227.095 492.692ZM160.433 452.215L226.845 491.045L323.729 324.916L257.317 286.085L160.433 452.215Z" fill="#1C1C27"/>
<path d="M225.038 482.462C224.918 482.462 224.798 482.431 224.687 482.368L169.039 449.829C168.707 449.637 168.597 449.211 168.789 448.879L193.531 406.455C193.727 406.123 194.153 406.013 194.484 406.206C194.815 406.398 194.929 406.824 194.733 407.158L170.342 448.983L225.391 481.172C225.722 481.364 225.833 481.793 225.64 482.125C225.511 482.346 225.278 482.469 225.038 482.469V482.462Z" fill="#1C1C27"/>
<path d="M287.815 374.819C287.695 374.819 287.575 374.787 287.464 374.724C287.133 374.532 287.019 374.106 287.215 373.771L313.635 328.469L258.586 296.284C258.255 296.091 258.144 295.662 258.337 295.331C258.529 294.999 258.955 294.886 259.29 295.081L314.938 327.617C315.27 327.809 315.38 328.235 315.188 328.567L288.417 374.472C288.288 374.692 288.054 374.816 287.815 374.816V374.819Z" fill="#1C1C27"/>
<path d="M208.833 294.463L154 480.291L229.103 502.452L283.936 316.624L208.833 294.463Z" fill="white"/>
<path d="M229.095 503.146C229.029 503.146 228.963 503.137 228.9 503.118L153.81 480.91C153.441 480.803 153.233 480.414 153.34 480.045L208.162 294.214C208.216 294.037 208.336 293.889 208.497 293.8C208.658 293.712 208.847 293.693 209.027 293.743L284.113 315.951C284.482 316.059 284.69 316.447 284.583 316.816L229.761 502.647C229.707 502.824 229.588 502.973 229.427 503.061C229.322 503.118 229.209 503.146 229.095 503.146ZM154.871 479.771L228.625 501.584L283.053 317.087L209.298 295.274L154.871 479.771Z" fill="#1C1C27"/>
<path d="M187.264 490.076C192.688 471.687 182.196 452.372 163.829 446.942L154.006 480.241L187.264 490.076Z" fill="#8C2746" fill-opacity="0.32"/>
<path d="M195.838 492.613L229.096 502.449L238.919 469.15C220.551 463.716 201.262 474.224 195.838 492.613Z" fill="#8C2746" fill-opacity="0.32"/>
<path d="M250.659 306.782C245.235 325.171 255.727 344.486 274.091 349.916L283.914 316.617L250.656 306.782H250.659Z" fill="#8C2746" fill-opacity="0.32"/>
<path d="M199.005 327.712C217.373 333.145 236.662 322.638 242.086 304.248L208.828 294.412L199.005 327.712Z" fill="#8C2746" fill-opacity="0.32"/>
<path d="M229.095 503.146C229.029 503.146 228.963 503.137 228.9 503.118L153.81 480.91C153.441 480.803 153.233 480.414 153.34 480.045L208.162 294.214C208.216 294.037 208.336 293.889 208.497 293.8C208.658 293.712 208.847 293.693 209.027 293.743L284.113 315.951C284.482 316.059 284.69 316.447 284.583 316.816L229.761 502.647C229.707 502.824 229.588 502.973 229.427 503.061C229.322 503.118 229.209 503.146 229.095 503.146ZM154.871 479.771L228.625 501.584L283.053 317.087L209.298 295.274L154.871 479.771Z" fill="#1C1C27"/>
<path d="M224.658 493.705C224.592 493.705 224.526 493.696 224.463 493.677L162.661 475.397C162.292 475.29 162.083 474.902 162.191 474.533L176.09 427.416C176.198 427.05 176.586 426.836 176.955 426.946C177.324 427.053 177.532 427.441 177.425 427.811L163.721 474.258L224.857 492.339C225.226 492.446 225.435 492.834 225.327 493.203C225.239 493.506 224.961 493.702 224.662 493.702L224.658 493.705Z" fill="#1C1C27"/>
<path d="M259.923 374.159C259.857 374.159 259.791 374.15 259.728 374.131C259.359 374.024 259.15 373.635 259.258 373.266L274.101 322.953L212.965 304.873C212.595 304.765 212.387 304.377 212.494 304.008C212.605 303.639 212.993 303.428 213.359 303.538L275.161 321.817C275.53 321.925 275.738 322.313 275.631 322.682L260.592 373.661C260.504 373.964 260.226 374.159 259.927 374.159H259.923Z" fill="#1C1C27"/>
<path d="M162.306 314.831L150.544 508.242L228.695 512.994L240.457 319.584L162.306 314.831Z" fill="white"/>
<path d="M228.694 513.695C228.694 513.695 228.666 513.695 228.653 513.695L150.503 508.93C150.118 508.908 149.828 508.577 149.85 508.195L161.613 314.784C161.623 314.601 161.708 314.427 161.847 314.304C161.986 314.181 162.165 314.118 162.352 314.131L240.502 318.895C240.887 318.917 241.177 319.249 241.155 319.63L229.391 513.041C229.382 513.224 229.297 513.398 229.158 513.521C229.032 513.635 228.864 513.695 228.697 513.695H228.694ZM151.282 507.579L228.044 512.259L239.722 320.236L162.961 315.557L151.282 507.579Z" fill="#1C1C27"/>
<path d="M185.159 510.344C186.323 491.203 171.77 474.741 152.652 473.577L150.544 508.236L185.159 510.347V510.344Z" fill="#8C2746" fill-opacity="0.32"/>
<path d="M194.083 510.886L228.698 512.997L230.806 478.338C211.69 477.174 195.247 491.745 194.083 510.886Z" fill="#8C2746" fill-opacity="0.32"/>
<path d="M205.843 317.479C204.679 336.619 219.232 353.081 238.35 354.245L240.458 319.586L205.843 317.475V317.479Z" fill="#8C2746" fill-opacity="0.32"/>
<path d="M160.2 349.481C179.316 350.645 195.759 336.073 196.923 316.933L162.308 314.822L160.2 349.481Z" fill="#8C2746" fill-opacity="0.32"/>
<path d="M228.694 513.695C228.694 513.695 228.666 513.695 228.653 513.695L150.503 508.93C150.118 508.908 149.828 508.577 149.85 508.195L161.613 314.784C161.623 314.601 161.708 314.427 161.847 314.304C161.986 314.181 162.165 314.118 162.352 314.131L240.502 318.895C240.887 318.917 241.177 319.249 241.155 319.63L229.391 513.041C229.382 513.224 229.297 513.398 229.158 513.521C229.032 513.635 228.864 513.695 228.697 513.695H228.694ZM151.282 507.579L228.044 512.259L239.722 320.236L162.961 315.557L151.282 507.579Z" fill="#1C1C27"/>
<path d="M222.254 505.494C222.254 505.494 222.226 505.494 222.21 505.494L157.887 501.572C157.502 501.549 157.212 501.218 157.234 500.836L160.215 451.798C160.241 451.416 160.572 451.135 160.951 451.145C161.336 451.167 161.626 451.498 161.604 451.88L158.663 500.224L222.292 504.105C222.677 504.127 222.967 504.459 222.945 504.841C222.923 505.21 222.617 505.494 222.251 505.494H222.254Z" fill="#1C1C27"/>
<path d="M229.821 381.07C229.821 381.07 229.793 381.07 229.777 381.07C229.392 381.047 229.102 380.716 229.124 380.334L232.308 327.97L168.679 324.092C168.294 324.07 168.004 323.739 168.026 323.357C168.048 322.972 168.388 322.685 168.761 322.704L233.084 326.626C233.469 326.648 233.759 326.979 233.737 327.361L230.509 380.42C230.487 380.789 230.181 381.073 229.815 381.073L229.821 381.07Z" fill="#1C1C27"/>
<path d="M144.505 481.55C140.949 500.047 123.07 512.155 104.57 508.589C86.0731 505.023 73.9594 487.139 77.5156 468.638C81.0717 450.141 98.9503 438.034 117.45 441.6C135.951 445.165 148.061 463.05 144.505 481.55Z" fill="#8C2746"/>
<path d="M111.101 509.908C108.889 509.908 106.661 509.697 104.44 509.268C85.5958 505.636 73.2109 487.35 76.8364 468.503C78.5908 459.374 83.7973 451.476 91.4933 446.267C99.1894 441.054 108.454 439.154 117.585 440.915C136.43 444.547 148.815 462.833 145.192 481.677C143.438 490.805 138.231 498.703 130.535 503.916C124.71 507.86 117.986 509.908 111.104 509.908H111.101ZM110.924 441.669C104.317 441.669 97.8609 443.635 92.2695 447.421C84.8827 452.423 79.8846 460.005 78.1996 468.768C74.7191 486.861 86.6087 504.418 104.702 507.904C113.468 509.593 122.36 507.769 129.75 502.767C137.139 497.766 142.135 490.184 143.819 481.418C147.297 463.325 135.41 445.771 117.317 442.281C115.187 441.871 113.045 441.669 110.924 441.669Z" fill="#1C1C27"/>
<path d="M127.22 471.428C145.486 476.041 156.559 494.589 151.955 512.852C147.351 531.116 128.81 542.185 110.546 537.568C92.2798 532.955 81.2074 514.408 85.8112 496.144C90.4149 477.881 108.956 466.812 127.22 471.428Z" fill="#1C1C27"/>
<path d="M123.767 466.329C142.034 470.942 153.106 489.49 148.503 507.753C143.899 526.017 125.358 537.086 107.094 532.469C88.8276 527.856 77.7553 509.309 82.359 491.045C86.9628 472.782 105.504 461.712 123.767 466.329Z" fill="white"/>
<path d="M115.507 534.22C112.648 534.22 109.767 533.864 106.921 533.148C88.3134 528.446 76.9917 509.485 81.6807 490.878C83.9526 481.863 89.6008 474.277 97.5808 469.512C105.564 464.748 114.92 463.378 123.935 465.657C142.542 470.358 153.864 489.319 149.175 507.926C146.903 516.941 141.255 524.527 133.275 529.292C127.813 532.551 121.704 534.224 115.504 534.224L115.507 534.22ZM115.355 465.972C109.401 465.972 103.538 467.575 98.2971 470.705C90.6357 475.277 85.2147 482.563 83.0344 491.215C78.5316 509.078 89.402 527.285 107.265 531.797C115.92 533.984 124.904 532.668 132.565 528.096C140.226 523.524 145.647 516.238 147.828 507.586C152.33 489.723 141.463 471.516 123.597 467.004C120.865 466.313 118.1 465.972 115.355 465.972Z" fill="#1C1C27"/>
<path d="M101.087 513.979L104.034 510.246C101.462 508.15 99.4363 505.522 98.6064 503.537L103.428 499.827C104.384 501.969 106.082 504.538 108.666 506.456C110.931 508.138 113.166 508.425 114.406 506.854C115.583 505.361 115.056 503.474 112.888 500.306C109.748 495.734 108.395 491.613 111.402 487.801C114.131 484.343 118.735 483.463 123.645 485.798L126.592 482.065L130.489 484.958L127.759 488.417C130.331 490.512 131.688 492.392 132.502 493.995L127.844 497.58C127.15 496.381 126.036 494.118 123.171 491.992C120.587 490.073 118.883 490.553 118.015 491.654C116.993 492.951 117.731 494.809 120.12 498.577C123.55 503.739 123.755 507.317 120.963 510.855C118.202 514.351 113.339 515.477 108.145 512.868L104.984 516.875L101.087 513.982V513.979Z" fill="#1C1C27"/>
</g>
<path d="M99.4374 465.653C78.6369 474.171 68.6801 497.939 77.1983 518.739C85.7165 539.54 109.484 549.497 130.285 540.979C151.085 532.46 161.042 508.693 152.524 487.892C144.006 467.092 120.238 457.135 99.4374 465.653Z" fill="#8C2746" stroke="black" stroke-width="1.90298" stroke-linecap="round" stroke-linejoin="round"/>
<path d="M126.935 489.309V484.542H101.032V489.309H109.274C112.339 489.309 114.927 491.306 115.902 494.076H101.032V498.843H115.902C115.419 500.233 114.522 501.437 113.335 502.291C112.148 503.144 110.73 503.605 109.274 503.61H101.032V509.363L114.186 522.677H120.845L106.716 508.376H109.274C111.986 508.373 114.615 507.423 116.716 505.686C118.817 503.949 120.262 501.532 120.807 498.843H126.935V494.076H120.807C120.446 492.341 119.702 490.712 118.632 489.309H126.935Z" fill="#F5EDE2"/>
<path d="M186.999 394.334C176.245 398.738 171.097 411.027 175.501 421.781C179.905 432.536 192.193 437.683 202.948 433.279C213.702 428.875 218.85 416.587 214.446 405.832C210.042 395.078 197.753 389.93 186.999 394.334Z" fill="#8C2746" stroke="black" stroke-width="0.785284" stroke-linecap="round" stroke-linejoin="round"/>
<path d="M199.425 421.805L201.888 421.976L202.813 408.672L200.351 408.5L200.056 412.734C199.947 414.308 198.822 415.566 197.356 415.967L197.888 408.329L195.425 408.158L194.894 415.796C194.193 415.497 193.603 414.993 193.204 414.353C192.805 413.713 192.618 412.967 192.668 412.219L192.962 407.986L189.99 407.779L182.641 414.057L182.403 417.477L190.297 410.735L190.205 412.048C190.11 413.442 190.507 414.826 191.329 415.967C192.151 417.109 193.348 417.938 194.718 418.315L194.499 421.462L196.962 421.633L197.181 418.486C198.09 418.363 198.959 418.04 199.722 417.54L199.425 421.805Z" fill="#F5EDE2"/>
<defs>
<clipPath id="clip0_8490_267">
<rect width="325.642" height="538.616" fill="white"/>
</clipPath>
</defs>
</svg>
