<svg width="206" height="266" viewBox="0 0 206 266" fill="none" xmlns="http://www.w3.org/2000/svg">
<g clip-path="url(#clip0_8357_367)">
<path d="M68.0216 57.0195C67.7104 57.3158 67.3326 57.4936 66.9326 57.538C66.8067 57.5529 66.6881 57.5603 66.5548 57.5529C66.1103 57.5232 65.6658 57.3306 65.3325 56.9824C65.125 56.775 62.5619 54.2785 57.4281 52.9673C53.0055 51.8265 46.6939 51.5672 38.3524 54.4045C37.3598 54.7452 36.2782 54.2118 35.9374 53.2118C35.604 52.2117 36.1374 51.1301 37.1301 50.7967C46.4494 47.6335 53.6056 47.9891 58.6801 49.3596C63.8805 50.7597 66.8881 53.2266 67.7919 54.0711C67.9401 54.2044 68.0364 54.3007 68.0734 54.3378C68.8068 55.0934 68.7846 56.3009 68.029 57.0343L68.0216 57.0195Z" fill="#1C1C27"/>
<g style="mix-blend-mode:multiply" opacity="0.5">
<path d="M67.792 54.0563C67.4956 55.2712 67.1993 56.4713 66.94 57.5381C66.8141 57.5529 66.6956 57.5603 66.5622 57.5529C66.1178 57.5233 65.6733 57.3307 65.3399 56.9825C65.1325 56.7751 62.5693 54.2786 57.4355 52.9673C58.0652 52.1747 58.7542 51.8561 58.7542 51.8561C58.5986 51.1375 58.5912 50.2708 58.6801 49.3596C63.8805 50.7597 66.8882 53.2266 67.792 54.0711V54.0563Z" fill="#3E2410"/>
</g>
<path d="M72.5774 57.7457C72.1922 58.7236 71.081 59.2051 70.1031 58.8125C68.9993 58.3754 67.9252 58.005 66.8954 57.6864C62.8136 56.4567 59.3393 56.1456 56.4501 56.3308C49.5681 56.7679 46.1011 59.9903 46.0419 60.0422C45.6418 60.4274 45.1084 60.6052 44.5899 60.5682C44.138 60.5385 43.6935 60.3459 43.3453 59.9903C42.6193 59.2273 42.6416 58.0198 43.4046 57.2938C43.6861 57.0271 48.5532 52.4786 57.8947 52.449C60.769 52.449 64.073 52.8638 67.7992 53.9824C68.9919 54.3306 70.2291 54.7529 71.5106 55.264C72.4885 55.6566 72.97 56.7604 72.5774 57.7383V57.7457Z" fill="#1C1C27"/>
<g style="mix-blend-mode:multiply" opacity="0.5">
<path d="M67.7993 53.9898C67.4807 55.2862 67.1696 56.5678 66.8955 57.6938C62.8137 56.464 59.3393 56.1529 56.4502 56.3381C56.3316 54.3305 57.1984 53.1082 57.8947 52.4563C60.769 52.4563 64.073 52.8711 67.7993 53.9898Z" fill="#543016"/>
</g>
<path d="M205.307 160.791C205.337 161.843 205.359 162.895 205.359 163.962C205.359 199.609 187.135 231.004 159.496 249.332C149.569 255.918 137.85 259.281 125.938 259.281H80.0522C68.1401 259.281 56.4355 255.918 46.5087 249.347C18.8545 231.019 0.615984 199.624 0.615984 163.962C0.615984 163.962 -7.55507 121.166 53.6574 62.1978C54.7168 61.1755 55.8058 60.1458 56.917 59.1086C58.7023 57.4492 60.5469 55.7676 62.4434 54.0712C62.7249 53.8267 63.0064 53.5674 63.2953 53.3156C63.3101 53.3007 63.3323 53.2859 63.3471 53.2711C64.0731 52.634 64.8065 51.9895 65.5399 51.345C65.9992 50.9524 66.4511 50.5524 66.9178 50.1523C66.9474 50.1301 66.9697 50.1079 66.9993 50.0857C67.2067 49.9079 67.4141 49.7301 67.629 49.5449C67.5771 49.4708 67.5179 49.3893 67.466 49.3152C67.229 48.9819 66.9919 48.6485 66.7548 48.3077C56.3688 33.5584 40.5897 8.68221 50.3609 6.30423C64.3546 2.89654 80.5634 14.3345 80.5634 14.3345C80.5634 14.3345 87.238 0 100.898 0H104.714C118.381 0 125.056 14.3345 125.056 14.3345C125.056 14.3345 125.1 14.3049 125.189 14.253C125.204 14.2308 125.226 14.216 125.256 14.2012C125.308 14.1641 125.36 14.1271 125.434 14.0752C125.486 14.0456 125.545 14.0086 125.612 13.9641C125.886 13.7863 126.256 13.5419 126.708 13.2604C126.849 13.1715 127.004 13.0826 127.16 12.9863C127.501 12.7788 127.878 12.5566 128.286 12.327C128.382 12.2677 128.493 12.2084 128.597 12.1492C128.908 11.964 129.242 11.7788 129.597 11.5936C129.945 11.401 130.316 11.2083 130.701 11.0083C130.96 10.8824 131.219 10.749 131.486 10.6083C131.634 10.5342 131.783 10.4675 131.931 10.3861C132.323 10.2009 132.731 10.0157 133.146 9.81563C133.279 9.75637 133.42 9.6897 133.56 9.62303C133.886 9.48227 134.212 9.33411 134.553 9.19336C135.175 8.92667 135.82 8.65998 136.479 8.40811C136.813 8.28958 137.146 8.15624 137.487 8.03771C137.657 7.97844 137.827 7.91177 137.998 7.85992C138.176 7.79324 138.346 7.74139 138.524 7.68212C139.191 7.45247 139.872 7.24505 140.568 7.04503C141.139 6.88206 141.717 6.7339 142.294 6.60055C142.48 6.5487 142.672 6.50425 142.857 6.46721C143.043 6.43017 143.228 6.38572 143.421 6.34868C143.539 6.31905 143.658 6.29682 143.776 6.28201C143.954 6.23756 144.124 6.20793 144.309 6.17829C144.398 6.15607 144.487 6.14866 144.576 6.13385C144.732 6.10421 144.887 6.08199 145.035 6.05236C145.154 6.03754 145.265 6.01532 145.384 6.0005C145.68 5.95605 145.984 5.91901 146.287 5.87456C146.702 5.8153 147.125 5.78567 147.554 5.75604C147.821 5.73381 148.095 5.719 148.369 5.70418C148.458 5.69677 148.554 5.68936 148.643 5.68936C150.858 5.60047 153.073 5.77085 155.251 6.30423C165.096 8.69702 149.036 33.8843 138.672 48.5966C138.494 48.8411 138.331 49.0782 138.161 49.3152H138.153C138.102 49.3893 138.05 49.4708 137.99 49.5449C138.516 49.9968 139.035 50.4487 139.561 50.9005C139.568 50.9005 139.576 50.908 139.583 50.9154C139.746 51.0635 139.909 51.2043 140.072 51.345C141.154 52.2933 142.22 53.2267 143.265 54.1675H143.272C143.354 54.2416 143.435 54.3156 143.517 54.3897C143.613 54.4712 143.709 54.5601 143.798 54.6416C144.606 55.3602 145.398 56.0862 146.184 56.7973C147.176 57.7085 148.147 58.6123 149.11 59.5161C149.31 59.7013 149.503 59.8865 149.703 60.0717C150.095 60.4495 150.488 60.8125 150.873 61.1829C151.651 61.9237 152.414 62.6645 153.169 63.3979C153.925 64.1313 154.666 64.8647 155.407 65.5907C156.503 66.687 157.585 67.776 158.629 68.865C158.977 69.2206 159.326 69.5836 159.674 69.9392C159.814 70.0873 159.963 70.2355 160.103 70.3837C161 71.3171 161.866 72.2431 162.718 73.1617C164.044 74.5766 165.326 75.9915 166.563 77.3916C166.867 77.7472 167.178 78.0954 167.482 78.4436C169.008 80.1697 170.46 81.8809 171.86 83.5699C172.149 83.9329 172.43 84.2811 172.727 84.6293C173.423 85.4812 174.097 86.3257 174.756 87.1628C175.423 87.9999 176.068 88.8371 176.712 89.6667C177.09 90.1631 177.468 90.6594 177.838 91.1558C178.586 92.141 179.305 93.1189 180.009 94.0893C180.364 94.5783 180.705 95.0598 181.046 95.5413C181.276 95.8673 181.505 96.1858 181.727 96.5044C182.135 97.0822 182.527 97.66 182.928 98.2304C183.187 98.6156 183.439 98.9935 183.691 99.3639C184.113 99.9861 184.528 100.608 184.935 101.231C186.565 103.727 188.069 106.164 189.454 108.542C189.624 108.839 189.795 109.128 189.965 109.424C190.424 110.209 190.861 110.987 191.276 111.757C191.336 111.861 191.387 111.957 191.439 112.054C191.728 112.572 192.002 113.076 192.276 113.587C192.454 113.943 192.647 114.291 192.825 114.632C192.973 114.913 193.121 115.202 193.262 115.484C194.032 116.973 194.751 118.44 195.425 119.869C195.647 120.329 195.855 120.788 196.062 121.24C196.188 121.514 196.306 121.781 196.425 122.04C196.662 122.573 196.899 123.099 197.121 123.618C198.018 125.692 198.81 127.692 199.529 129.626C199.529 129.648 199.544 129.663 199.551 129.677C199.736 130.174 199.907 130.655 200.077 131.137C200.077 131.137 200.077 131.152 200.092 131.167C200.425 132.115 200.736 133.041 201.033 133.952C201.336 134.871 201.611 135.774 201.87 136.663C202.003 137.1 202.129 137.537 202.248 137.967C202.285 138.115 202.329 138.256 202.366 138.397C202.448 138.686 202.522 138.975 202.596 139.256C202.64 139.419 202.685 139.582 202.729 139.745C202.796 140.004 202.855 140.256 202.922 140.515C203.233 141.745 203.507 142.938 203.744 144.086C203.759 144.131 203.759 144.175 203.774 144.219C203.84 144.568 203.907 144.901 203.974 145.242C204.048 145.612 204.122 145.975 204.189 146.338C204.203 146.42 204.211 146.501 204.226 146.583C204.277 146.864 204.322 147.146 204.374 147.427C204.455 147.894 204.522 148.361 204.589 148.82C204.67 149.338 204.737 149.85 204.803 150.338C204.818 150.405 204.826 150.479 204.826 150.546C204.87 150.842 204.9 151.124 204.937 151.413C205.055 152.428 205.137 153.383 205.203 154.287C205.218 154.48 205.233 154.665 205.24 154.843C205.278 155.398 205.3 155.932 205.322 156.443C205.322 156.658 205.337 156.872 205.337 157.08V157.169C205.352 157.384 205.352 157.598 205.352 157.806C205.374 158.961 205.352 159.954 205.307 160.791Z" fill="#8C2746"/>
<g style="mix-blend-mode:multiply" opacity="0.5">
<path d="M89.2677 53.4712C89.2677 53.4712 82.1856 32.9287 74.7998 21.9648C74.7998 21.9648 88.8677 34.0696 96.0164 54.5972L89.2677 53.4712Z" fill="#C47D3D"/>
<path d="M116.344 53.4712C116.344 53.4712 123.426 32.9287 130.812 21.9648C130.812 21.9648 116.744 34.0696 109.595 54.5972L116.344 53.4712Z" fill="#C47D3D"/>
</g>
<g style="mix-blend-mode:multiply" opacity="0.5">
<path d="M205.352 157.806C205.352 157.599 205.352 157.384 205.337 157.169V157.08C205.337 156.873 205.337 156.658 205.322 156.443C205.3 155.932 205.278 155.398 205.241 154.843C205.233 154.665 205.218 154.48 205.203 154.287C205.137 153.383 205.055 152.428 204.937 151.413C204.9 151.124 204.87 150.842 204.826 150.546C204.826 150.479 204.818 150.405 204.803 150.339C204.737 149.842 204.67 149.339 204.589 148.82C204.522 148.361 204.455 147.894 204.374 147.427C204.322 147.146 204.277 146.864 204.226 146.583C204.211 146.501 204.203 146.42 204.189 146.338C204.122 145.975 204.048 145.612 203.974 145.242C203.907 144.901 203.84 144.568 203.774 144.22C203.759 144.175 203.759 144.131 203.744 144.086C203.507 142.938 203.233 141.745 202.922 140.516C202.855 140.256 202.796 140.005 202.729 139.745C202.685 139.582 202.64 139.419 202.596 139.256C202.522 138.975 202.448 138.686 202.366 138.397C202.329 138.256 202.285 138.115 202.248 137.967C202.129 137.538 202.003 137.101 201.87 136.663C201.611 135.775 201.329 134.871 201.033 133.952C200.736 133.041 200.425 132.115 200.092 131.167C200.092 131.152 200.077 131.145 200.077 131.137C199.907 130.656 199.736 130.174 199.551 129.678C199.551 129.663 199.536 129.648 199.529 129.626C198.81 127.692 198.018 125.692 197.121 123.618C196.899 123.099 196.662 122.573 196.425 122.04C196.306 121.781 196.188 121.514 196.062 121.24C195.855 120.788 195.64 120.336 195.425 119.869C194.751 118.44 194.032 116.973 193.262 115.484C193.121 115.202 192.973 114.914 192.825 114.632C192.647 114.291 192.454 113.943 192.276 113.588C192.002 113.076 191.728 112.573 191.439 112.054C191.387 111.958 191.336 111.861 191.276 111.758C190.854 110.987 190.417 110.209 189.965 109.424C189.795 109.128 189.624 108.839 189.454 108.543C188.069 106.165 186.565 103.727 184.935 101.231C184.528 100.609 184.113 99.9864 183.691 99.3641C183.439 98.9937 183.187 98.6159 182.928 98.2307C182.528 97.6602 182.135 97.0824 181.727 96.5046C181.505 96.1861 181.276 95.8675 181.046 95.5415C180.705 95.06 180.364 94.5785 180.009 94.0896C179.305 93.1191 178.586 92.1413 177.838 91.156C177.468 90.6597 177.09 90.1633 176.712 89.667C176.068 88.8373 175.423 88.0002 174.756 87.1631C174.09 86.326 173.416 85.4814 172.727 84.6295C172.43 84.2813 172.149 83.9332 171.86 83.5702C170.452 81.8811 169 80.1699 167.482 78.4438C167.178 78.0956 166.867 77.7475 166.563 77.3919C165.319 75.9992 164.037 74.5842 162.718 73.1619C161.726 72.0951 160.711 71.021 159.674 69.9394C159.326 69.5838 158.977 69.2208 158.629 68.8652C157.577 67.7837 156.503 66.6873 155.407 65.5909C154.666 64.8649 153.925 64.1315 153.169 63.3981C152.414 62.6647 151.651 61.9239 150.873 61.1831C150.488 60.8127 150.095 60.4497 149.703 60.0719C149.503 59.8867 149.31 59.7015 149.11 59.5163C147.302 57.8199 145.443 56.1086 143.517 54.39C143.435 54.3159 143.354 54.2418 143.272 54.1677C142.228 53.2343 141.154 52.2935 140.072 51.3453C139.909 51.2045 139.746 51.0638 139.583 50.9156C139.05 50.4637 138.524 50.0044 137.99 49.5451C138.05 49.471 138.102 49.3895 138.153 49.3155H138.161C138.331 49.0784 138.494 48.8413 138.672 48.5969C149.036 33.8845 165.096 8.69726 155.251 6.30446C153.073 5.77109 150.858 5.6007 148.643 5.6896C148.554 5.6896 148.458 5.6896 148.369 5.70441C148.095 5.71923 147.821 5.73405 147.554 5.75627C147.125 5.7859 146.702 5.81553 146.287 5.8748C145.984 5.91925 145.68 5.95629 145.384 6.00074C145.265 6.01555 145.154 6.03778 145.035 6.05259C144.887 6.08222 144.732 6.10445 144.576 6.13408C144.487 6.1489 144.398 6.1563 144.31 6.17853C144.124 6.20816 143.954 6.23779 143.776 6.28224C143.658 6.29706 143.539 6.31928 143.421 6.34891C143.228 6.38595 143.043 6.4304 142.858 6.46744C142.672 6.50448 142.48 6.54893 142.295 6.60079C141.717 6.73413 141.139 6.88229 140.568 7.04527C139.872 7.24528 139.191 7.45271 138.524 7.68236C138.346 7.74162 138.176 7.79348 137.998 7.86015C137.827 7.91201 137.657 7.97868 137.487 8.03794C137.146 8.15647 136.813 8.28982 136.479 8.40834C135.82 8.66022 135.175 8.92691 134.553 9.19359C134.212 9.33435 133.886 9.48251 133.56 9.62326C133.42 9.68993 133.279 9.7566 133.146 9.81587C132.731 10.0085 132.323 10.2011 131.931 10.3863C131.783 10.4678 131.634 10.5344 131.486 10.6085C131.22 10.7493 130.96 10.8826 130.701 11.0086C130.316 11.2086 129.945 11.4012 129.597 11.5938C129.242 11.779 128.908 11.9642 128.597 12.1494C128.493 12.2087 128.382 12.2679 128.286 12.3272C127.878 12.5568 127.501 12.7791 127.16 12.9865C127.004 13.0828 126.849 13.1717 126.708 13.2606C126.256 13.5421 125.886 13.7866 125.612 13.9644C125.545 14.0014 125.486 14.0384 125.434 14.0755C125.36 14.1273 125.308 14.1644 125.256 14.2014C125.226 14.2162 125.204 14.2311 125.189 14.2459C123.241 22.1799 115.707 34.4327 109.099 44.1298C108.61 44.8558 108.121 45.567 107.64 46.2559C107.24 46.7819 106.817 47.3227 106.388 47.8561C105.603 48.8117 104.773 49.7674 103.914 50.6711C102.521 52.1157 101.054 53.4047 99.5798 54.3603C103.973 56.3975 114.159 61.398 121.071 67.0577C126.227 70.895 131.938 75.7917 137.842 81.9478C171.334 121.707 173.112 151.376 172.645 160.791C172.682 161.843 172.697 162.895 172.697 163.962C172.697 207.306 145.754 244.354 107.706 259.281H125.938C137.85 259.281 149.569 255.918 159.496 249.332C187.135 231.005 205.359 199.609 205.359 163.962C205.359 162.895 205.337 161.843 205.307 160.791C205.352 159.954 205.374 158.962 205.352 157.806Z" fill="#C47D3D"/>
</g>
<g style="mix-blend-mode:multiply" opacity="0.5">
<path d="M160.103 70.3835C105.188 53.7673 66.5993 59.3826 53.6575 62.1976C54.7168 61.1753 55.8058 60.1456 56.917 59.1085C58.7023 57.4491 60.5469 55.7675 62.4434 54.071C62.7249 53.8266 63.0064 53.5673 63.2953 53.3154C63.3101 53.3006 63.3324 53.2858 63.3472 53.271C64.0732 52.6339 64.8066 51.9894 65.5399 51.3449C65.9992 50.9523 66.4511 50.5522 66.9178 50.1522C66.9475 50.13 66.9697 50.1077 66.9993 50.0855C76.8298 47.3446 88.7048 46.0556 103.721 45.9815C118.359 45.9148 131.079 48.5298 139.561 50.9004C139.568 50.9004 139.576 50.9078 139.583 50.9152C139.746 51.0634 139.909 51.2041 140.072 51.3449C141.154 52.2931 142.22 53.2265 143.265 54.1673H143.272C143.354 54.2414 143.435 54.3155 143.517 54.3896C143.613 54.4711 143.709 54.56 143.798 54.6415C144.606 55.36 145.398 56.086 146.184 56.7972C147.176 57.7084 148.147 58.6122 149.11 59.5159C149.31 59.7011 149.503 59.8863 149.703 60.0715C150.095 60.4493 150.488 60.8123 150.873 61.1827C151.651 61.9235 152.414 62.6643 153.169 63.3977C153.925 64.1311 154.666 64.8645 155.407 65.5905C156.503 66.6869 157.585 67.7759 158.629 68.8649C158.977 69.2204 159.326 69.5834 159.674 69.939C159.814 70.0872 159.963 70.2354 160.103 70.3835Z" fill="#C47D3D"/>
</g>
<path d="M50.3608 10.823C64.3546 7.41535 80.5634 18.8533 80.5634 18.8533C80.5634 18.8533 87.238 4.51881 100.898 4.51881H104.714C118.381 4.51881 123.589 18.8533 123.589 18.8533C123.589 18.8533 123.634 18.8237 123.723 18.7719C123.737 18.7496 123.76 18.7348 123.789 18.72C123.841 18.683 123.893 18.6459 123.967 18.5941C124.019 18.5644 124.078 18.5274 124.145 18.4829C124.419 18.3051 124.789 18.0607 125.241 17.7792C125.382 17.6903 132.731 14.5345 133.146 14.3344C133.279 14.2752 133.42 14.2085 133.56 14.1418C133.886 14.0011 134.212 13.8529 134.553 13.7122C135.175 13.4455 135.82 13.1788 136.479 12.9269C136.813 12.8084 137.146 12.675 137.487 12.5565C137.657 12.4973 137.827 12.4306 137.998 12.3787C138.176 12.3121 138.346 12.2602 138.524 12.2009C139.19 11.9713 139.872 11.7639 140.568 11.5638C141.139 11.4009 141.717 11.2527 142.294 11.1194C142.48 11.0675 142.672 11.0231 142.857 10.986C143.043 10.949 143.228 10.9045 143.42 10.8675C143.539 10.8379 143.658 10.8156 143.776 10.8008C143.954 10.7564 144.124 10.7267 144.309 10.6971C144.398 10.6749 144.487 10.6675 144.576 10.6527C144.732 10.623 144.887 10.6008 145.035 10.5712C145.154 10.5564 145.265 10.5341 145.384 10.5193C145.68 10.4749 145.984 10.4378 146.287 10.3934C146.702 10.3341 147.124 10.3045 147.554 10.2748C147.821 10.2526 148.095 10.2378 148.369 10.223C148.458 10.2156 148.554 10.2082 148.643 10.2082C150.858 10.1193 153.073 10.2897 155.251 10.823C156.733 11.186 157.622 12.0676 158.037 13.3566C158.777 9.63035 158.111 7.0005 155.251 6.31155C153.073 5.77818 150.858 5.60779 148.643 5.69669C148.554 5.69669 148.458 5.69669 148.369 5.7115C148.095 5.72632 147.821 5.74114 147.554 5.76336C147.124 5.79299 146.702 5.82262 146.287 5.88189C145.984 5.92634 145.68 5.96338 145.384 6.00783C145.265 6.02264 145.154 6.04487 145.035 6.05968C144.887 6.08931 144.732 6.11154 144.576 6.14117C144.487 6.15599 144.398 6.16339 144.309 6.18562C144.124 6.21525 143.954 6.24488 143.776 6.28933C143.658 6.30415 143.539 6.32637 143.42 6.356C143.228 6.39304 143.043 6.43749 142.857 6.47453C142.672 6.51157 142.48 6.55602 142.294 6.60788C141.717 6.74122 141.139 6.88938 140.568 7.05236C139.872 7.25237 139.19 7.4598 138.524 7.68945C138.346 7.74871 138.176 7.80057 137.998 7.86724C137.827 7.9191 137.657 7.98577 137.487 8.04503C137.146 8.16356 136.813 8.29691 136.479 8.41543C135.82 8.66731 135.175 8.934 134.553 9.20068C134.212 9.34144 133.886 9.4896 133.56 9.63035C133.42 9.69702 133.279 9.76369 133.146 9.82296C132.731 10.023 132.323 10.2082 131.931 10.3934C131.782 10.4749 131.634 10.5415 131.486 10.6156C131.219 10.7564 130.96 10.8897 130.701 11.0157C130.316 11.2157 129.945 11.4083 129.597 11.6009C129.242 11.7861 128.908 11.9713 128.597 12.1565C128.493 12.2158 128.382 12.275 128.286 12.3343C127.878 12.5639 127.501 12.7862 127.16 12.9936C127.004 13.0899 126.849 13.1788 126.708 13.2677C126.256 13.5492 125.886 13.7937 125.612 13.9715C125.545 14.0159 125.486 14.0529 125.434 14.0826C125.36 14.1344 125.308 14.1715 125.256 14.2085C125.226 14.2233 125.204 14.2381 125.189 14.2604C125.1 14.3122 125.056 14.3419 125.056 14.3419C125.056 14.3419 118.381 0.00732422 104.714 0.00732422H100.898C87.238 0.00732422 80.5634 14.3419 80.5634 14.3419C80.5634 14.3419 64.3546 2.90386 50.3608 6.31155C47.5087 7.00791 46.842 9.63035 47.5754 13.3492C47.9903 12.0676 48.8792 11.186 50.3608 10.823Z" fill="#781634"/>
<path d="M117.909 202.464C137.288 194.13 146.242 171.664 137.908 152.285C129.574 132.906 107.109 123.952 87.7296 132.286C68.3506 140.62 59.3968 163.086 67.7307 182.465C76.0645 201.844 98.5302 210.797 117.909 202.464Z" fill="white"/>
<g style="mix-blend-mode:multiply" opacity="0.3">
<path d="M110.232 129.915C119.507 136.886 125.508 147.975 125.508 160.473C125.508 181.571 108.403 198.668 87.312 198.668C84.771 198.668 82.2894 198.417 79.8892 197.942C86.2749 202.735 94.2089 205.58 102.81 205.58C123.908 205.58 141.005 188.475 141.005 167.384C141.005 148.827 127.775 133.374 110.232 129.915Z" fill="#8C2746"/>
</g>
<path d="M116.048 159.421H108.921C108.61 158.169 108.114 156.998 107.454 155.924H116.048C117.685 155.924 119.011 154.598 119.011 152.961C119.011 151.324 117.685 149.998 116.048 149.998H89.564C87.9269 149.998 86.6008 151.324 86.6008 152.961C86.6008 154.598 87.9269 155.924 89.564 155.924H96.9054C99.3945 155.924 101.558 157.346 102.639 159.421H89.564C87.9269 159.421 86.6008 160.747 86.6008 162.384C86.6008 164.021 87.9269 165.347 89.564 165.347H102.639C101.565 167.421 99.4019 168.844 96.9054 168.844H89.564C87.9269 168.844 86.6008 170.17 86.6008 171.807C86.6008 173.444 87.9269 174.77 89.564 174.77H93.5199C95.2238 175.281 104.676 178.718 108.78 192.646C109.158 193.935 110.344 194.772 111.618 194.772C111.892 194.772 112.173 194.735 112.455 194.653C114.025 194.194 114.922 192.542 114.462 190.971C111.781 181.859 107.069 176.415 102.906 173.207C105.869 171.555 108.084 168.718 108.914 165.347H116.04C117.678 165.347 119.004 164.021 119.004 162.384C119.004 160.747 117.678 159.421 116.04 159.421H116.048Z" fill="#1C1C27"/>
<path d="M145.324 56.0197C145.072 50.2266 138.672 48.5968 138.672 48.5968C129.19 46.1151 119.233 44.6039 109.099 44.1298C106.788 44.0187 104.469 43.9668 102.15 43.9668C90.0383 43.9668 78.0595 45.4484 66.7548 48.3079C66.7548 48.3079 60.0876 50.597 60.2802 56.0197L65.5547 52.686C67.4586 52.1601 69.3847 51.6563 71.333 51.2118C81.2449 48.9524 91.6384 47.7819 102.15 47.7819C103.565 47.7819 104.98 47.8042 106.388 47.856C117.329 48.2042 128.019 49.9228 138.198 52.6935L145.324 56.0197Z" fill="#1C1C27"/>
<path d="M152.036 62.3014C152.036 62.3014 151.036 58.9456 149.11 57.1825C147.184 55.4194 143.517 54.3897 143.517 54.3897C131.049 52.0413 117.559 50.7671 103.913 50.6708C103.313 50.656 102.713 50.656 102.113 50.656C93.1644 50.656 84.2674 51.1598 75.6593 52.145C71.6812 52.5969 67.7623 53.1525 63.9324 53.8118C63.436 53.8933 62.9323 53.9822 62.4433 54.0711C62.4433 54.0711 56.7318 55.249 54.4871 58.3455C52.2351 61.4421 52.4277 63.3904 52.4277 63.3904L57.9541 58.9011C61.2284 58.2122 64.5769 57.5899 68.0068 57.0565C75.8519 55.8268 84.0451 55.0267 92.3792 54.6786C94.7053 54.5823 97.0388 54.5156 99.3872 54.4934C100.298 54.4785 101.21 54.4711 102.121 54.4711C118.137 54.4711 133.968 56.1454 148.132 59.3086L152.043 62.3014H152.036Z" fill="#1C1C27"/>
</g>
<defs>
<clipPath id="clip0_8357_367">
<rect width="205.106" height="266" fill="white" transform="translate(0.25293)"/>
</clipPath>
</defs>
</svg>
