<svg width="363" height="211" viewBox="0 0 363 211" fill="none" xmlns="http://www.w3.org/2000/svg">
<path d="M121.52 34.97L104.23 29.5V64.01H121.52V34.97Z" fill="#8C2746"/>
<path d="M87.7001 63.5801V35.2701L103.81 30.0801V63.5801H87.7001Z" fill="#F5EDE2"/>
<path d="M103.39 30.67V63.16H88.13V35.58L103.39 30.67ZM104.24 29.5L87.28 34.96V64.01H104.24V29.5Z" fill="#8C2746"/>
<path d="M124.42 187.4V46.6001L104.23 41.8401V187.4H124.42Z" fill="#8C2746"/>
<path d="M84.8601 186.96V46.8501L103.81 42.3701V186.96H84.8601Z" fill="#F5EDE2"/>
<path d="M103.39 42.9101V186.53H85.2901V47.1901L103.39 42.9201M104.24 41.8301L84.4301 46.5101V187.39H104.24V41.8301Z" fill="#8C2746"/>
<path d="M127.86 187.4V60.18L104.23 56.24V187.4H127.86Z" fill="#8C2746"/>
<path d="M81.4801 186.96V60.45L103.81 56.74V186.96H81.4801Z" fill="#F5EDE2"/>
<path d="M103.39 57.25V186.54H81.91V60.81L103.39 57.24M104.24 56.24L81.05 60.09V187.39H104.24V56.24Z" fill="#8C2746"/>
<path d="M86.67 68.31L84.05 68.59V65.29L86.67 64.97V68.31Z" fill="#8C2746"/>
<path d="M91.42 67.7999L88.8 68.0799V64.7199L91.42 64.3999V67.7999Z" fill="#8C2746"/>
<path d="M96.17 67.2901L93.55 67.5701V64.1501L96.17 63.8401V67.2901Z" fill="#8C2746"/>
<path d="M100.92 66.78L98.3 67.06V63.58L100.92 63.27V66.78Z" fill="#8C2746"/>
<path d="M86.67 74.36L84.05 74.59V71.28L86.67 71.02V74.36Z" fill="#8C2746"/>
<path d="M91.42 73.9501L88.8 74.1801V70.8201L91.42 70.5601V73.9501Z" fill="#8C2746"/>
<path d="M96.17 73.5401L93.55 73.7701V70.3501L96.17 70.0901V73.5401Z" fill="#8C2746"/>
<path d="M100.92 73.1401L98.3 73.3601V69.8801L100.92 69.6301V73.1401Z" fill="#8C2746"/>
<path d="M86.67 80.4201L84.05 80.5801V77.2801L86.67 77.0801V80.4201Z" fill="#8C2746"/>
<path d="M91.42 80.11L88.8 80.28V76.91L91.42 76.71V80.11Z" fill="#8C2746"/>
<path d="M96.17 79.8001L93.55 79.9701V76.5501L96.17 76.3501V79.8001Z" fill="#8C2746"/>
<path d="M100.92 79.49L98.3 79.66V76.19L100.92 75.99V79.49Z" fill="#8C2746"/>
<path d="M86.67 86.4699L84.05 86.5799V83.2699L86.67 83.1299V86.4699Z" fill="#8C2746"/>
<path d="M91.42 86.2601L88.8 86.3801V83.0101L91.42 82.8701V86.2601Z" fill="#8C2746"/>
<path d="M96.17 86.0599L93.55 86.1699V82.7499L96.17 82.6099V86.0599Z" fill="#8C2746"/>
<path d="M100.92 85.8501L98.3 85.9701V82.4901L100.92 82.3501V85.8501Z" fill="#8C2746"/>
<path d="M86.67 92.5202L84.05 92.5802V89.2702L86.67 89.1802V92.5202Z" fill="#8C2746"/>
<path d="M91.42 92.42L88.8 92.47V89.11L91.42 89.02V92.42Z" fill="#8C2746"/>
<path d="M96.17 92.3099L93.55 92.3699V88.9499L96.17 88.8599V92.3099Z" fill="#8C2746"/>
<path d="M100.92 92.2102L98.3 92.2702V88.7902L100.92 88.7002V92.2102Z" fill="#8C2746"/>
<path d="M86.67 98.57H84.05V95.26L86.67 95.23V98.57Z" fill="#8C2746"/>
<path d="M91.42 98.5702H88.8V95.2102L91.42 95.1802V98.5702Z" fill="#8C2746"/>
<path d="M96.17 98.5701H93.55V95.1501L96.17 95.1201V98.5701Z" fill="#8C2746"/>
<path d="M100.92 98.5701H98.3V95.0901L100.92 95.0601V98.5701Z" fill="#8C2746"/>
<path d="M121.63 68.33L124.25 68.61V65.3L121.63 64.99V68.33Z" fill="#F5EDE2"/>
<path d="M116.88 67.8099L119.5 68.0999V64.7299L116.88 64.4199V67.8099Z" fill="#F5EDE2"/>
<path d="M112.13 67.3001L114.75 67.5801V64.1601L112.13 63.8501V67.3001Z" fill="#F5EDE2"/>
<path d="M107.39 66.79L110.01 67.07V63.6L107.39 63.28V66.79Z" fill="#F5EDE2"/>
<path d="M121.63 74.38L124.25 74.6V71.3L121.63 71.04V74.38Z" fill="#F5EDE2"/>
<path d="M116.88 73.9701L119.5 74.1901V70.8301L116.88 70.5701V73.9701Z" fill="#F5EDE2"/>
<path d="M112.13 73.5601L114.75 73.7901V70.3601L112.13 70.1101V73.5601Z" fill="#F5EDE2"/>
<path d="M107.39 73.1501L110.01 73.3801V69.9001L107.39 69.6401V73.1501Z" fill="#F5EDE2"/>
<path d="M121.63 80.4301L124.25 80.6001V77.2901L121.63 77.0901V80.4301Z" fill="#F5EDE2"/>
<path d="M116.88 80.12L119.5 80.29V76.93L116.88 76.73V80.12Z" fill="#F5EDE2"/>
<path d="M112.13 79.8201L114.75 79.9901V76.5601L112.13 76.3601V79.8201Z" fill="#F5EDE2"/>
<path d="M107.39 79.51L110.01 79.68V76.2L107.39 76V79.51Z" fill="#F5EDE2"/>
<path d="M121.63 86.4801L124.25 86.5901V83.2901L121.63 83.1401V86.4801Z" fill="#F5EDE2"/>
<path d="M116.88 86.2799L119.5 86.3899V83.0299L116.88 82.8799V86.2799Z" fill="#F5EDE2"/>
<path d="M112.13 86.0701L114.75 86.1901V82.7701L112.13 82.6201V86.0701Z" fill="#F5EDE2"/>
<path d="M107.39 85.8699L110.01 85.9799V82.4999L107.39 82.3599V85.8699Z" fill="#F5EDE2"/>
<path d="M121.63 92.5302L124.25 92.5902V89.2802L121.63 89.2002V92.5302Z" fill="#F5EDE2"/>
<path d="M116.88 92.43L119.5 92.49V89.12L116.88 89.04V92.43Z" fill="#F5EDE2"/>
<path d="M112.13 92.3299L114.75 92.3899V88.9699L112.13 88.8799V92.3299Z" fill="#F5EDE2"/>
<path d="M107.39 92.2302L110.01 92.2802V88.8102L107.39 88.7202V92.2302Z" fill="#F5EDE2"/>
<path d="M121.63 98.59H124.25V95.28L121.63 95.25V98.59Z" fill="#F5EDE2"/>
<path d="M116.88 98.5899H119.5V95.2199L116.88 95.1899V98.5899Z" fill="#F5EDE2"/>
<path d="M112.13 98.5899H114.75V95.1699L112.13 95.1299V98.5899Z" fill="#F5EDE2"/>
<path d="M107.39 98.5901H110.01V95.1101L107.39 95.0801V98.5901Z" fill="#F5EDE2"/>
<path d="M89.29 51.7201L87.04 52.2101V48.9101L89.29 48.3901V51.7201Z" fill="#8C2746"/>
<path d="M93.36 50.8299L91.11 51.3199V47.9699L93.36 47.4399V50.8299Z" fill="#8C2746"/>
<path d="M97.4301 49.94L95.1901 50.43V47.02L97.4301 46.49V49.94Z" fill="#8C2746"/>
<path d="M101.5 49.05L99.26 49.5401V46.07L101.5 45.55V49.05Z" fill="#8C2746"/>
<path d="M89.29 57.7599L87.04 58.1899V54.8899L89.29 54.4299V57.7599Z" fill="#8C2746"/>
<path d="M93.36 56.9801L91.11 57.4101V54.0501L93.36 53.5901V56.9801Z" fill="#8C2746"/>
<path d="M97.4301 56.2L95.1901 56.63V53.21L97.4301 52.75V56.2Z" fill="#8C2746"/>
<path d="M101.5 55.4101L99.26 55.8401V52.3701L101.5 51.9001V55.4101Z" fill="#8C2746"/>
<path d="M92.36 38.2899L90.12 38.9399V35.6299L92.36 34.9399V38.2899Z" fill="#8C2746"/>
<path d="M96.4299 37.0999L94.1899 37.7599V34.3699L96.4299 33.6699V37.0999Z" fill="#8C2746"/>
<path d="M100.51 35.9099L98.26 36.5699V33.0999L100.51 32.3999V35.9099Z" fill="#8C2746"/>
<path d="M92.36 44.37L90.12 44.94V41.63L92.36 41.01V44.37Z" fill="#8C2746"/>
<path d="M96.4299 43.3199L94.1899 43.8999V40.5099L96.4299 39.8899V43.3199Z" fill="#8C2746"/>
<path d="M100.51 42.27L98.26 42.85V39.38L100.51 38.76V42.27Z" fill="#8C2746"/>
<path d="M118.99 51.6401L121.24 52.1301V48.8301L118.99 48.3101V51.6401Z" fill="#F5EDE2"/>
<path d="M114.92 50.7499L117.17 51.2399V47.8899L114.92 47.3599V50.7499Z" fill="#F5EDE2"/>
<path d="M110.85 49.8599L113.1 50.3499V46.9399L110.85 46.4099V49.8599Z" fill="#F5EDE2"/>
<path d="M106.78 48.97L109.03 49.46V45.99L106.78 45.47V48.97Z" fill="#F5EDE2"/>
<path d="M118.99 57.6799L121.24 58.1099V54.8099L118.99 54.3499V57.6799Z" fill="#F5EDE2"/>
<path d="M114.92 56.9L117.17 57.33V53.97L114.92 53.51V56.9Z" fill="#F5EDE2"/>
<path d="M110.85 56.1199L113.1 56.5499V53.1299L110.85 52.6699V56.1199Z" fill="#F5EDE2"/>
<path d="M106.78 55.3301L109.03 55.7601V52.2901L106.78 51.8301V55.3301Z" fill="#F5EDE2"/>
<path d="M115.92 38.2101L118.16 38.8601V35.5501L115.92 34.8601V38.2101Z" fill="#F5EDE2"/>
<path d="M111.85 37.0201L114.09 37.6801V34.2901L111.85 33.5901V37.0201Z" fill="#F5EDE2"/>
<path d="M107.77 35.8301L110.02 36.4901V33.0201L107.77 32.3201V35.8301Z" fill="#F5EDE2"/>
<path d="M115.92 44.2902L118.16 44.8602V41.5502L115.92 40.9302V44.2902Z" fill="#F5EDE2"/>
<path d="M111.85 43.2401L114.09 43.8201V40.4301L111.85 39.8101V43.2401Z" fill="#F5EDE2"/>
<path d="M107.77 42.1902L110.02 42.7702V39.3002L107.77 38.6802V42.1902Z" fill="#F5EDE2"/>
<path d="M88.7299 184V4.71L68.8099 0V184H88.7299Z" fill="#8C2746"/>
<path d="M49.6799 183.57V4.95003L68.3899 0.530029V183.57H49.6799Z" fill="#F5EDE2"/>
<path d="M67.9699 1.06V183.14H50.0999V5.28L67.9699 1.06ZM68.8199 0L49.2699 4.62V183.99H68.8199V0Z" fill="#8C2746"/>
<path d="M92.1299 184V18.11L68.8099 14.22V184H92.1299Z" fill="#8C2746"/>
<path d="M46.35 183.57V18.38L68.39 14.72V183.57H46.35Z" fill="#F5EDE2"/>
<path d="M67.9699 15.21V183.14H46.7599V18.73L67.9699 15.21ZM68.8199 14.22L45.9299 18.02V183.99H68.8199V14.22Z" fill="#8C2746"/>
<path d="M79.2399 24.0901L71.2699 23.3801V19.3201L79.2399 20.1301V24.0901Z" fill="#F5EDE2"/>
<path d="M90.1599 25.0602L82.1899 24.3502V20.4302L90.1599 21.2402V25.0602Z" fill="#F5EDE2"/>
<path d="M79.2399 31.2602L71.2699 30.7302V26.6702L79.2399 27.3002V31.2602Z" fill="#F5EDE2"/>
<path d="M90.1599 31.99L82.1899 31.46V27.54L90.1599 28.17V31.99Z" fill="#F5EDE2"/>
<path d="M79.2399 38.44L71.2699 38.08V34.03L79.2399 34.48V38.44Z" fill="#F5EDE2"/>
<path d="M90.1599 38.9201L82.1899 38.5701V34.6501L90.1599 35.1001V38.9201Z" fill="#F5EDE2"/>
<path d="M79.2399 45.6101L71.2699 45.4301V41.3801L79.2399 41.6501V45.6101Z" fill="#F5EDE2"/>
<path d="M90.1599 45.86L82.1899 45.68V41.76L90.1599 42.03V45.86Z" fill="#F5EDE2"/>
<path d="M79.2399 52.79H71.2699V48.73L79.2399 48.83V52.79Z" fill="#F5EDE2"/>
<path d="M90.1599 52.7901H82.1899V48.8701L90.1599 48.9601V52.7901Z" fill="#F5EDE2"/>
<path d="M66.0499 23.2399L48.1199 25.9699V22.2899L66.0499 19.1799V23.2399Z" fill="#8C2746"/>
<path d="M66.0499 30.59L48.1199 32.64V28.96L66.0499 26.53V30.59Z" fill="#8C2746"/>
<path d="M66.0499 37.9399L48.1199 39.3099V35.6299L66.0499 33.8899V37.9399Z" fill="#8C2746"/>
<path d="M66.0499 45.29L48.1199 45.98V42.3L66.0499 41.24V45.29Z" fill="#8C2746"/>
<path d="M66.0499 52.6498H48.1199V48.9698L66.0499 48.5898V52.6498Z" fill="#8C2746"/>
<path d="M196.73 201.28V60.44L179.7 50.26V201.28H196.73Z" fill="#8C2746"/>
<path d="M156.79 200.9V60.6901L179.33 50.8501V200.9H156.79Z" fill="#F5EDE2"/>
<path d="M178.94 51.43V200.52H157.16V60.94L178.94 51.44M179.71 50.27L156.41 60.44V201.28H179.71V50.27Z" fill="#8C2746"/>
<path d="M176.12 122.24L157.12 116.97V111.67L176.15 115.76L176.12 122.24Z" fill="#8C2746"/>
<path d="M176.18 110.67L157.12 107.5V102.2L176.21 104.19L176.18 110.67Z" fill="#8C2746"/>
<path d="M176.24 99.0999L157.12 98.0299V92.7299L176.27 92.6299L176.24 99.0999Z" fill="#8C2746"/>
<path d="M176.3 87.5401L157.12 88.5601V83.2601L176.33 81.0601L176.3 87.5401Z" fill="#8C2746"/>
<path d="M176.35 75.97L157.12 79.09V73.79L176.39 69.5L176.35 75.97Z" fill="#8C2746"/>
<path d="M176.41 64.4099L157.12 69.6199V64.3199L176.44 57.9299L176.41 64.4099Z" fill="#8C2746"/>
<path d="M196.21 112.33L183.29 115.63L183.31 122.1L196.21 117.86V112.33Z" fill="#F5EDE2"/>
<path d="M196.21 102.45L183.24 104.06L183.26 110.54L196.21 107.98V102.45Z" fill="#F5EDE2"/>
<path d="M196.21 92.5802L183.19 92.4902L183.21 98.9702L196.21 98.1102V92.5802Z" fill="#F5EDE2"/>
<path d="M196.21 82.6999L183.14 80.9299L183.16 87.3999L196.21 88.2299V82.6999Z" fill="#F5EDE2"/>
<path d="M196.21 72.8301L183.09 69.3601L183.11 75.8401L196.21 78.3601V72.8301Z" fill="#F5EDE2"/>
<path d="M196.21 62.9701L183.04 57.8L183.07 64.27L196.21 68.49V62.9701Z" fill="#F5EDE2"/>
<path d="M166.03 103.3V90.95L148.17 86.73V103.3H166.03Z" fill="#8C2746"/>
<path d="M155.46 97.1802L150.79 96.2002V91.2002L155.46 92.2602V97.1802Z" fill="#F5EDE2"/>
<path d="M163.92 98.9701L159.25 97.9801V93.1201L163.92 94.1901V98.9701Z" fill="#F5EDE2"/>
<path d="M155.46 103.3V101.19L150.79 100.26V103.3H155.46Z" fill="#F5EDE2"/>
<path d="M163.92 103.3V102.86L159.25 101.94V103.3H163.92Z" fill="#F5EDE2"/>
<path d="M136.89 102.92V91.1498L147.79 87.2798V102.92H136.89Z" fill="#F5EDE2"/>
<path d="M147.42 87.8097V102.54H137.27V91.4098L147.42 87.8097ZM148.17 86.7397L136.51 90.8797V103.29H148.17V86.7397Z" fill="#8C2746"/>
<path d="M167.08 201.35V102.3L148.06 97.8101V201.35H167.08Z" fill="#8C2746"/>
<path d="M155.82 108.94L150.85 107.89V102.56L155.82 103.69V108.94Z" fill="#F5EDE2"/>
<path d="M164.83 110.84L159.86 109.79V104.61L164.83 105.75V110.84Z" fill="#F5EDE2"/>
<path d="M155.82 118.44L150.85 117.54V112.21L155.82 113.2V118.44Z" fill="#F5EDE2"/>
<path d="M164.83 120.07L159.86 119.17V113.99L164.83 114.98V120.07Z" fill="#F5EDE2"/>
<path d="M155.82 127.94L150.85 127.19V121.87L155.82 122.7V127.94Z" fill="#F5EDE2"/>
<path d="M164.83 129.3L159.86 128.55V123.38L164.83 124.21V129.3Z" fill="#F5EDE2"/>
<path d="M155.82 137.45L150.85 136.85V131.52L155.82 132.2V137.45Z" fill="#F5EDE2"/>
<path d="M164.83 138.53L159.86 137.93V132.76L164.83 133.44V138.53Z" fill="#F5EDE2"/>
<path d="M155.82 146.95L150.85 146.5V141.17L155.82 141.71V146.95Z" fill="#F5EDE2"/>
<path d="M164.83 147.77L159.86 147.31V142.14L164.83 142.67V147.77Z" fill="#F5EDE2"/>
<path d="M155.82 156.45L150.85 156.15V150.83L155.82 151.21V156.45Z" fill="#F5EDE2"/>
<path d="M164.83 157L159.86 156.7V151.52L164.83 151.9V157Z" fill="#F5EDE2"/>
<path d="M136.04 200.95V102.51L147.66 98.3896V200.95H136.04Z" fill="#F5EDE2"/>
<path d="M147.25 98.9598V200.55H136.44V102.8L147.25 98.9598ZM148.06 97.8198L135.64 102.23V201.35H148.06V97.8198Z" fill="#8C2746"/>
<path d="M140.44 121.65L111.09 115.5V201.24H140.44V121.65Z" fill="#8C2746"/>
<path d="M92.8301 200.84V124.84L110.7 116.15V200.84H92.8301Z" fill="#F5EDE2"/>
<path d="M110.29 116.79V200.44H93.2301V125.09L110.29 116.79ZM111.1 115.5L92.4301 124.58V201.24H111.1V115.5Z" fill="#8C2746"/>
<path d="M105.07 152.86L75.7301 149.37V201.24H105.07V152.86Z" fill="#8C2746"/>
<path d="M62.2101 200.84V156.85L75.3301 150.03V200.84H62.2101Z" fill="#F5EDE2"/>
<path d="M74.93 150.69V200.43H62.6101V157.09L74.93 150.69ZM75.7301 149.37L61.8 156.6V201.24H75.7301V149.37Z" fill="#8C2746"/>
<path d="M125.36 127.15L122.89 126.68V123.3L125.36 123.79V127.15Z" fill="#F5EDE2"/>
<path d="M129.84 128.01L127.37 127.54V124.2L129.84 124.7V128.01Z" fill="#F5EDE2"/>
<path d="M116.39 131.7L113.92 131.27V127.8L116.39 128.25V131.7Z" fill="#F5EDE2"/>
<path d="M125.36 133.24L122.89 132.81V129.43L125.36 129.88V133.24Z" fill="#F5EDE2"/>
<path d="M129.84 134.01L127.37 133.58V130.25L129.84 130.7V134.01Z" fill="#F5EDE2"/>
<path d="M116.39 137.96L113.92 137.58V134.1L116.39 134.5V137.96Z" fill="#F5EDE2"/>
<path d="M120.87 138.64L118.4 138.27V134.83L120.87 135.24V138.64Z" fill="#F5EDE2"/>
<path d="M129.84 140.01L127.37 139.63V136.29L129.84 136.7V140.01Z" fill="#F5EDE2"/>
<path d="M116.39 144.22L113.92 143.89V140.41L116.39 140.77V144.22Z" fill="#F5EDE2"/>
<path d="M120.87 144.81L118.4 144.49V141.05L120.87 141.41V144.81Z" fill="#F5EDE2"/>
<path d="M125.36 145.41L122.89 145.08V141.7L125.36 142.05V145.41Z" fill="#F5EDE2"/>
<path d="M116.39 150.48L113.92 150.19V146.71L116.39 147.02V150.48Z" fill="#F5EDE2"/>
<path d="M129.84 152.01L127.37 151.73V148.39L129.84 148.7V152.01Z" fill="#F5EDE2"/>
<path d="M116.39 156.73L113.92 156.5V153.02L116.39 153.28V156.73Z" fill="#F5EDE2"/>
<path d="M125.36 157.59L122.89 157.35V153.97L125.36 154.23V157.59Z" fill="#F5EDE2"/>
<path d="M129.84 158.01L127.37 157.78V154.44L129.84 154.7V158.01Z" fill="#F5EDE2"/>
<path d="M116.39 162.99L113.92 162.81V159.33L116.39 159.54V162.99Z" fill="#F5EDE2"/>
<path d="M120.87 163.33L118.4 163.15V159.71L120.87 159.93V163.33Z" fill="#F5EDE2"/>
<path d="M125.36 163.67L122.89 163.49V160.1L125.36 160.31V163.67Z" fill="#F5EDE2"/>
<path d="M116.39 169.25L113.92 169.11V165.63L116.39 165.8V169.25Z" fill="#F5EDE2"/>
<path d="M125.36 169.76L122.89 169.62V166.24L125.36 166.4V169.76Z" fill="#F5EDE2"/>
<path d="M129.84 170.01L127.37 169.87V166.54L129.84 166.7V170.01Z" fill="#F5EDE2"/>
<path d="M133.87 140.62L131.4 140.25V136.95L133.87 137.35V140.62Z" fill="#F5EDE2"/>
<path d="M133.87 146.55L131.4 146.22V142.92L133.87 143.28V146.55Z" fill="#F5EDE2"/>
<path d="M133.87 152.47L131.4 152.19V148.89L133.87 149.2V152.47Z" fill="#F5EDE2"/>
<path d="M133.87 164.32L131.4 164.13V160.84L133.87 161.05V164.32Z" fill="#F5EDE2"/>
<path d="M137.9 129.54L135.42 129.07V125.82L137.9 126.32V129.54Z" fill="#F5EDE2"/>
<path d="M137.9 135.39L135.42 134.96V131.71L137.9 132.16V135.39Z" fill="#F5EDE2"/>
<path d="M137.9 141.24L135.42 140.86V137.61L137.9 138.01V141.24Z" fill="#F5EDE2"/>
<path d="M137.9 147.08L135.42 146.75V143.5L137.9 143.86V147.08Z" fill="#F5EDE2"/>
<path d="M137.9 158.78L135.42 158.54V155.29L137.9 155.55V158.78Z" fill="#F5EDE2"/>
<path d="M137.9 164.62L135.42 164.44V161.19L137.9 161.4V164.62Z" fill="#F5EDE2"/>
<path d="M137.9 170.47L135.42 170.33V167.08L137.9 167.24V170.47Z" fill="#F5EDE2"/>
<path d="M116.39 175.24L113.92 175.14V171.66L116.39 171.78V175.24Z" fill="#F5EDE2"/>
<path d="M120.87 175.41L118.4 175.31V171.88L120.87 172V175.41Z" fill="#F5EDE2"/>
<path d="M125.36 175.58L122.89 175.48V172.1L125.36 172.22V175.58Z" fill="#F5EDE2"/>
<path d="M129.84 175.75L127.37 175.66V172.32L129.84 172.44V175.75Z" fill="#F5EDE2"/>
<path d="M116.39 181.49L113.92 181.45V177.97L116.39 178.04V181.49Z" fill="#F5EDE2"/>
<path d="M125.36 181.67L122.89 181.62V178.23L125.36 178.31V181.67Z" fill="#F5EDE2"/>
<path d="M116.39 187.75H113.92V184.27L116.39 184.3V187.75Z" fill="#F5EDE2"/>
<path d="M120.87 187.75H118.4V184.32L120.87 184.35V187.75Z" fill="#F5EDE2"/>
<path d="M129.84 187.75H127.37V184.42L129.84 184.44V187.75Z" fill="#F5EDE2"/>
<path d="M133.87 181.83L131.4 181.78V178.49L133.87 178.56V181.83Z" fill="#F5EDE2"/>
<path d="M133.87 187.75H131.4V184.46L133.87 184.48V187.75Z" fill="#F5EDE2"/>
<path d="M137.9 176.06L135.42 175.96V172.71L137.9 172.83V176.06Z" fill="#F5EDE2"/>
<path d="M137.9 181.91L135.42 181.86V178.61L137.9 178.68V181.91Z" fill="#F5EDE2"/>
<path d="M90.02 158.73L87.55 158.26V154.87L90.02 155.37V158.73Z" fill="#F5EDE2"/>
<path d="M94.4901 159.58L92.0201 159.11V155.77L94.4901 156.27V159.58Z" fill="#F5EDE2"/>
<path d="M81.0701 163.27L78.6001 162.85V159.37L81.0701 159.82V163.27Z" fill="#F5EDE2"/>
<path d="M90.02 164.81L87.55 164.39V161L90.02 161.45V164.81Z" fill="#F5EDE2"/>
<path d="M94.4901 165.58L92.0201 165.16V161.82L94.4901 162.27V165.58Z" fill="#F5EDE2"/>
<path d="M81.0701 169.53L78.6001 169.16V165.68L81.0701 166.08V169.53Z" fill="#F5EDE2"/>
<path d="M85.5401 170.22L83.0701 169.84V166.41L85.5401 166.81V170.22Z" fill="#F5EDE2"/>
<path d="M94.4901 171.58L92.0201 171.21V167.87L94.4901 168.27V171.58Z" fill="#F5EDE2"/>
<path d="M81.0701 175.79L78.6001 175.46V171.98L81.0701 172.34V175.79Z" fill="#F5EDE2"/>
<path d="M85.5401 176.39L83.0701 176.06V172.63L85.5401 172.98V176.39Z" fill="#F5EDE2"/>
<path d="M90.02 176.99L87.55 176.66V173.27L90.02 173.63V176.99Z" fill="#F5EDE2"/>
<path d="M81.0701 182.05L78.6001 181.77V178.29L81.0701 178.6V182.05Z" fill="#F5EDE2"/>
<path d="M94.4901 183.59L92.0201 183.3V179.97L94.4901 180.27V183.59Z" fill="#F5EDE2"/>
<path d="M81.0701 188.31L78.6001 188.08V184.6L81.0701 184.86V188.31Z" fill="#F5EDE2"/>
<path d="M90.02 189.16L87.55 188.93V185.54L90.02 185.8V189.16Z" fill="#F5EDE2"/>
<path d="M94.4901 189.59L92.0201 189.35V186.02L94.4901 186.28V189.59Z" fill="#F5EDE2"/>
<path d="M81.0701 194.57L78.6001 194.38V190.9L81.0701 191.11V194.57Z" fill="#F5EDE2"/>
<path d="M85.5401 194.91L83.0701 194.72V191.29L85.5401 191.5V194.91Z" fill="#F5EDE2"/>
<path d="M90.02 195.25L87.55 195.06V191.68L90.02 191.89V195.25Z" fill="#F5EDE2"/>
<path d="M98.51 172.2L96.04 171.82V168.53L98.51 168.93V172.2Z" fill="#F5EDE2"/>
<path d="M98.51 178.12L96.04 177.79V174.5L98.51 174.85V178.12Z" fill="#F5EDE2"/>
<path d="M98.51 184.05L96.04 183.76V180.47L98.51 180.78V184.05Z" fill="#F5EDE2"/>
<path d="M98.51 195.89L96.04 195.7V192.41L98.51 192.63V195.89Z" fill="#F5EDE2"/>
<path d="M102.53 161.12L100.06 160.65V157.39L102.53 157.89V161.12Z" fill="#F5EDE2"/>
<path d="M102.53 166.96L100.06 166.54V163.29L102.53 163.74V166.96Z" fill="#F5EDE2"/>
<path d="M102.53 172.81L100.06 172.44V169.18L102.53 169.59V172.81Z" fill="#F5EDE2"/>
<path d="M102.53 178.66L100.06 178.33V175.08L102.53 175.43V178.66Z" fill="#F5EDE2"/>
<path d="M102.53 190.35L100.06 190.12V186.86L102.53 187.13V190.35Z" fill="#F5EDE2"/>
<path d="M102.53 196.2L100.06 196.01V192.76L102.53 192.97V196.2Z" fill="#F5EDE2"/>
<path d="M230.46 200.97V29.78L211.44 25.29V200.97H230.46Z" fill="#8C2746"/>
<path d="M193.18 200.56V30.0201L211.04 25.8V200.56H193.18Z" fill="#F5EDE2"/>
<path d="M210.64 26.3V200.15H193.58V30.33L210.64 26.3ZM211.45 25.29L192.78 29.7V200.96H211.45V25.29Z" fill="#8C2746"/>
<path d="M233.71 200.97V42.5801L211.44 38.8701V200.97H233.71Z" fill="#8C2746"/>
<path d="M189.99 200.56V42.8301L211.04 39.3401V200.56H189.99Z" fill="#F5EDE2"/>
<path d="M210.64 39.8101V200.15H190.39V43.1701L210.64 39.8101ZM211.45 38.8601L189.6 42.4901V200.96H211.45V38.8601Z" fill="#8C2746"/>
<path d="M221.4 48.29L213.79 47.61V43.74L221.4 44.51V48.29Z" fill="#F5EDE2"/>
<path d="M231.82 49.22L224.21 48.54V44.79L231.82 45.56V49.22Z" fill="#F5EDE2"/>
<path d="M221.4 55.14L213.79 54.63V50.76L221.4 51.36V55.14Z" fill="#F5EDE2"/>
<path d="M231.82 55.8301L224.21 55.3301V51.5801L231.82 52.1801V55.8301Z" fill="#F5EDE2"/>
<path d="M221.4 61.99L213.79 61.65V57.78L221.4 58.21V61.99Z" fill="#F5EDE2"/>
<path d="M231.82 62.4499L224.21 62.1099V58.3699L231.82 58.7999V62.4499Z" fill="#F5EDE2"/>
<path d="M221.4 68.84L213.79 68.67V64.8L221.4 65.06V68.84Z" fill="#F5EDE2"/>
<path d="M231.82 69.0699L224.21 68.8999V65.1599L231.82 65.4199V69.0699Z" fill="#F5EDE2"/>
<path d="M221.4 75.6901H213.79V71.8201L221.4 71.9101V75.6901Z" fill="#F5EDE2"/>
<path d="M231.82 75.6899H224.21V71.9399L231.82 72.0399V75.6899Z" fill="#F5EDE2"/>
<path d="M208.81 47.4801L191.69 50.0801V46.5701L208.81 43.6001V47.4801Z" fill="#8C2746"/>
<path d="M208.81 54.5001L191.69 56.4501V52.9401L208.81 50.6201V54.5001Z" fill="#8C2746"/>
<path d="M208.81 61.5201L191.69 62.8201V59.3101L208.81 57.6401V61.5201Z" fill="#8C2746"/>
<path d="M208.81 68.5402L191.69 69.1902V65.6702L208.81 64.6602V68.5402Z" fill="#8C2746"/>
<path d="M208.81 75.5602H191.69V72.0402L208.81 71.6802V75.5602Z" fill="#8C2746"/>
<path d="M249.2 195.47V147.79L212.74 140.41V195.47H249.2Z" fill="#8C2746"/>
<path d="M185.65 194.81V146.97L212.09 141.22V194.81H185.65Z" fill="#F5EDE2"/>
<path d="M211.43 142.04V194.15H186.31V147.51L211.43 142.05M212.75 140.4L184.99 146.44V195.47H212.75V140.41V140.4Z" fill="#8C2746"/>
<path d="M252.96 201.08V152.57L216.41 146.47V201.08H252.96Z" fill="#8C2746"/>
<path d="M182.41 200.42V153.27L215.76 147.26V200.42H182.41Z" fill="#F5EDE2"/>
<path d="M215.1 148.05V199.76H183.06V153.82L215.1 148.05ZM216.42 146.47L181.75 152.72V201.09H216.42V146.48V146.47Z" fill="#8C2746"/>
<path d="M288.35 156.32V108.64L251.88 101.26V156.32H288.35Z" fill="#8C2746"/>
<path d="M224.8 155.66V107.82L251.23 102.07V155.66H224.8Z" fill="#F5EDE2"/>
<path d="M250.58 102.89V155H225.46V108.36L250.58 102.9M251.89 101.25L224.13 107.29V156.32H251.89V101.26V101.25Z" fill="#8C2746"/>
<path d="M291.65 201.29V140.52L255.09 134.43V201.29H291.65Z" fill="#8C2746"/>
<path d="M221.09 200.61V141.22L254.44 135.21V200.61H221.09Z" fill="#F5EDE2"/>
<path d="M253.79 136V199.94H221.76V141.77L253.79 136ZM255.1 134.42L220.43 140.67V201.27H255.1V134.43V134.42Z" fill="#8C2746"/>
<path d="M237.09 187.04H227.14V200.4H237.09V187.04Z" fill="#8C2746"/>
<path d="M248.16 186.85H238.21V200.21H248.16V186.85Z" fill="#8C2746"/>
<path d="M293.04 199.44H179.92V205.06H293.04V199.44Z" fill="#8C2746"/>
<path d="M231.7 148.63L227.12 149.18V144.63L231.7 144V148.63Z" fill="#8C2746"/>
<path d="M240 147.63L235.42 148.18V143.49L240 142.87V147.63Z" fill="#8C2746"/>
<path d="M248.29 146.64L243.72 147.19V142.36L248.29 141.74V146.64Z" fill="#8C2746"/>
<path d="M231.7 157.02L227.12 157.43V152.88L231.7 152.39V157.02Z" fill="#8C2746"/>
<path d="M240 156.27L235.42 156.68V151.99L240 151.51V156.27Z" fill="#8C2746"/>
<path d="M248.29 155.52L243.72 155.94V151.11L248.29 150.62V155.52Z" fill="#8C2746"/>
<path d="M231.7 165.4L227.12 165.68V161.13L231.7 160.78V165.4Z" fill="#8C2746"/>
<path d="M240 164.91L235.42 165.18V160.49L240 160.14V164.91Z" fill="#8C2746"/>
<path d="M248.29 164.41L243.72 164.68V159.86L248.29 159.51V164.41Z" fill="#8C2746"/>
<path d="M231.7 173.79L227.12 173.93V169.38L231.7 169.16V173.79Z" fill="#8C2746"/>
<path d="M240 173.54L235.42 173.68V168.99L240 168.78V173.54Z" fill="#8C2746"/>
<path d="M248.29 173.29L243.72 173.43V168.61L248.29 168.39V173.29Z" fill="#8C2746"/>
<path d="M231.7 182.18H227.12V177.63L231.7 177.55V182.18Z" fill="#8C2746"/>
<path d="M240 182.18H235.42V177.49L240 177.42V182.18Z" fill="#8C2746"/>
<path d="M248.29 182.18H243.72V177.35L248.29 177.28V182.18Z" fill="#8C2746"/>
<path d="M192.17 159.7L186.8 160.24V155.74L192.17 155.12V159.7Z" fill="#8C2746"/>
<path d="M201.89 158.72L196.53 159.26V154.62L201.89 154V158.72Z" fill="#8C2746"/>
<path d="M211.61 157.73L206.25 158.27V153.5L211.61 152.88V157.73Z" fill="#8C2746"/>
<path d="M192.17 168L186.8 168.41V163.9L192.17 163.42V168Z" fill="#8C2746"/>
<path d="M201.89 167.27L196.53 167.67V163.03L201.89 162.55V167.27Z" fill="#8C2746"/>
<path d="M211.61 166.53L206.25 166.93V162.16L211.61 161.68V166.53Z" fill="#8C2746"/>
<path d="M192.17 176.3L186.8 176.58V172.07L192.17 171.73V176.3Z" fill="#8C2746"/>
<path d="M201.89 175.81L196.53 176.08V171.44L201.89 171.1V175.81Z" fill="#8C2746"/>
<path d="M211.61 175.32L206.25 175.59V170.81L211.61 170.47V175.32Z" fill="#8C2746"/>
<path d="M192.17 184.61L186.8 184.74V180.24L192.17 180.03V184.61Z" fill="#8C2746"/>
<path d="M201.89 184.36L196.53 184.5V179.85L201.89 179.64V184.36Z" fill="#8C2746"/>
<path d="M211.61 184.11L206.25 184.25V179.47L211.61 179.26V184.11Z" fill="#8C2746"/>
<path d="M192.17 192.91H186.8V188.4L192.17 188.33V192.91Z" fill="#8C2746"/>
<path d="M201.89 192.91H196.53V188.27L201.89 188.19V192.91Z" fill="#8C2746"/>
<path d="M211.61 192.91H206.25V188.13L211.61 188.06V192.91Z" fill="#8C2746"/>
<path d="M263.5 148.06L258.92 147.66V142.76L263.5 143.2V148.06Z" fill="#F5EDE2"/>
<path d="M271.8 148.77L267.22 148.38V143.55L271.8 143.99V148.77Z" fill="#F5EDE2"/>
<path d="M280.09 149.49L275.52 149.09V144.35L280.09 144.79V149.49Z" fill="#F5EDE2"/>
<path d="M288.39 150.2L283.81 149.81V145.14L288.39 145.58V150.2Z" fill="#F5EDE2"/>
<path d="M263.5 156.86L258.92 156.55V151.65L263.5 152.01V156.86Z" fill="#F5EDE2"/>
<path d="M271.8 157.44L267.22 157.12V152.3L271.8 152.66V157.44Z" fill="#F5EDE2"/>
<path d="M280.09 158.01L275.52 157.69V152.95L280.09 153.31V158.01Z" fill="#F5EDE2"/>
<path d="M288.39 158.58L283.81 158.26V153.6L288.39 153.96V158.58Z" fill="#F5EDE2"/>
<path d="M263.5 165.67L258.92 165.43V160.53L263.5 160.81V165.67Z" fill="#F5EDE2"/>
<path d="M271.8 166.1L267.22 165.86V161.04L271.8 161.32V166.1Z" fill="#F5EDE2"/>
<path d="M280.09 166.53L275.52 166.29V161.55L280.09 161.83V166.53Z" fill="#F5EDE2"/>
<path d="M288.39 166.96L283.81 166.72V162.05L288.39 162.34V166.96Z" fill="#F5EDE2"/>
<path d="M263.5 174.48L258.92 174.32V169.42L263.5 169.62V174.48Z" fill="#F5EDE2"/>
<path d="M271.8 174.76L267.22 174.6V169.78L271.8 169.98V174.76Z" fill="#F5EDE2"/>
<path d="M280.09 175.05L275.52 174.89V170.15L280.09 170.35V175.05Z" fill="#F5EDE2"/>
<path d="M288.39 175.33L283.81 175.18V170.51L288.39 170.71V175.33Z" fill="#F5EDE2"/>
<path d="M263.5 183.28L258.92 183.2V178.3L263.5 178.43V183.28Z" fill="#F5EDE2"/>
<path d="M271.8 183.43L267.22 183.35V178.52L271.8 178.65V183.43Z" fill="#F5EDE2"/>
<path d="M280.09 183.57L275.52 183.49V178.75L280.09 178.87V183.57Z" fill="#F5EDE2"/>
<path d="M288.39 183.71L283.81 183.63V178.97L288.39 179.09V183.71Z" fill="#F5EDE2"/>
<path d="M263.5 192.09H258.92V187.19L263.5 187.23V192.09Z" fill="#F5EDE2"/>
<path d="M271.8 192.09H267.22V187.27L271.8 187.31V192.09Z" fill="#F5EDE2"/>
<path d="M280.09 192.09H275.52V187.35L280.09 187.39V192.09Z" fill="#F5EDE2"/>
<path d="M288.39 192.09H283.81V187.42L288.39 187.47V192.09Z" fill="#F5EDE2"/>
<path d="M260.51 113.03L255.93 112.24V107.34L260.51 108.19V113.03Z" fill="#F5EDE2"/>
<path d="M268.81 114.47L264.23 113.68V108.87L268.81 109.72V114.47Z" fill="#F5EDE2"/>
<path d="M277.1 115.9L272.53 115.11V110.41L277.1 111.25V115.9Z" fill="#F5EDE2"/>
<path d="M285.4 117.33L280.82 116.54V111.94L285.4 112.78V117.33Z" fill="#F5EDE2"/>
<path d="M260.51 121.82L255.93 121.13V116.23L260.51 116.97V121.82Z" fill="#F5EDE2"/>
<path d="M268.81 123.07L264.23 122.38V117.58L268.81 118.33V123.07Z" fill="#F5EDE2"/>
<path d="M277.1 124.33L272.53 123.64V118.93L277.1 119.68V124.33Z" fill="#F5EDE2"/>
<path d="M285.4 125.58L280.82 124.89V120.29L285.4 121.03V125.58Z" fill="#F5EDE2"/>
<path d="M260.51 130.61L255.93 130.01V125.11L260.51 125.76V130.61Z" fill="#F5EDE2"/>
<path d="M268.81 131.68L264.23 131.09V126.29L268.81 126.93V131.68Z" fill="#F5EDE2"/>
<path d="M277.1 132.76L272.53 132.16V127.46L277.1 128.11V132.76Z" fill="#F5EDE2"/>
<path d="M285.4 133.83L280.82 133.24V128.63L285.4 129.28V133.83Z" fill="#F5EDE2"/>
<path d="M232.83 118.1L228.5 119.02L228.54 114.22L232.85 113.28L232.83 118.1Z" fill="#8C2746"/>
<path d="M240.67 116.42L236.34 117.35L236.37 112.51L240.68 111.56L240.67 116.42Z" fill="#8C2746"/>
<path d="M248.51 114.75L244.19 115.67V110.79L248.51 109.85V114.75Z" fill="#8C2746"/>
<path d="M232.78 126.83L228.44 127.71L228.47 122.92L232.81 122.01L232.78 126.83Z" fill="#8C2746"/>
<path d="M240.65 125.23L236.3 126.11L236.33 121.28L240.66 120.37L240.65 125.23Z" fill="#8C2746"/>
<path d="M248.51 123.63L244.17 124.52L244.18 119.64L248.51 118.73V123.63Z" fill="#8C2746"/>
<path d="M232.73 135.57L228.37 136.41L228.41 131.61L232.76 130.75L232.73 135.57Z" fill="#8C2746"/>
<path d="M240.62 134.04L236.27 134.88L236.29 130.05L240.63 129.18L240.62 134.04Z" fill="#8C2746"/>
<path d="M248.51 132.52L244.16 133.36L244.17 128.48L248.51 127.62V132.52Z" fill="#8C2746"/>
<path d="M37.9299 202.06H69.2499V137.7L37.9299 130.3V202.06Z" fill="#8C2746"/>
<path d="M9.71997 201.57V168.03L21.03 163.22V138.02L37.44 131.04V201.57H9.71997Z" fill="#F5EDE2"/>
<path d="M36.95 131.78V201.08H10.21V168.35L20.92 163.8L21.52 163.55V138.35L36.96 131.79M37.93 130.3L20.53 137.69V162.89L9.21997 167.7V202.06H37.92V130.3H37.93Z" fill="#8C2746"/>
<path d="M45.14 140.97L41.33 140.17V136.09L45.14 136.96V140.97Z" fill="#F5EDE2"/>
<path d="M52.04 142.43L48.23 141.63V137.66L52.04 138.53V142.43Z" fill="#F5EDE2"/>
<path d="M58.9499 143.89L55.1399 143.08V139.24L58.9499 140.1V143.89Z" fill="#F5EDE2"/>
<path d="M65.8499 145.35L62.0399 144.54V140.81L65.8499 141.68V145.35Z" fill="#F5EDE2"/>
<path d="M45.14 148.25L41.33 147.56V143.49L45.14 144.24V148.25Z" fill="#F5EDE2"/>
<path d="M52.04 149.5L48.23 148.81V144.85L52.04 145.6V149.5Z" fill="#F5EDE2"/>
<path d="M58.9499 150.75L55.1399 150.06V146.21L58.9499 146.96V150.75Z" fill="#F5EDE2"/>
<path d="M65.8499 152L62.0399 151.31V147.58L65.8499 148.33V152Z" fill="#F5EDE2"/>
<path d="M45.14 155.53L41.33 154.96V150.88L45.14 151.52V155.53Z" fill="#F5EDE2"/>
<path d="M52.04 156.57L48.23 156V152.03L52.04 152.67V156.57Z" fill="#F5EDE2"/>
<path d="M58.9499 157.61L55.1399 157.04V153.19L58.9499 153.83V157.61Z" fill="#F5EDE2"/>
<path d="M65.8499 158.65L62.0399 158.08V154.35L65.8499 154.98V158.65Z" fill="#F5EDE2"/>
<path d="M45.14 162.81L41.33 162.35V158.27L45.14 158.79V162.81Z" fill="#F5EDE2"/>
<path d="M52.04 163.64L48.23 163.18V159.22L52.04 159.74V163.64Z" fill="#F5EDE2"/>
<path d="M58.9499 164.48L55.1399 164.02V160.17L58.9499 160.69V164.48Z" fill="#F5EDE2"/>
<path d="M65.8499 165.31L62.0399 164.85V161.11L65.8499 161.64V165.31Z" fill="#F5EDE2"/>
<path d="M45.14 170.09L41.33 169.74V165.67L45.14 166.07V170.09Z" fill="#F5EDE2"/>
<path d="M52.04 170.71L48.23 170.37V166.4L52.04 166.81V170.71Z" fill="#F5EDE2"/>
<path d="M58.9499 171.34L55.1399 170.99V167.14L58.9499 167.55V171.34Z" fill="#F5EDE2"/>
<path d="M65.8499 171.96L62.0399 171.62V167.88L65.8499 168.29V171.96Z" fill="#F5EDE2"/>
<path d="M45.14 177.37L41.33 177.14V173.06L45.14 173.35V177.37Z" fill="#F5EDE2"/>
<path d="M52.04 177.78L48.23 177.55V173.59L52.04 173.88V177.78Z" fill="#F5EDE2"/>
<path d="M58.9499 178.2L55.1399 177.97V174.12L58.9499 174.41V178.2Z" fill="#F5EDE2"/>
<path d="M65.8499 178.61L62.0399 178.39V174.65L65.8499 174.94V178.61Z" fill="#F5EDE2"/>
<path d="M45.14 184.65L41.33 184.53V180.45L45.14 180.63V184.65Z" fill="#F5EDE2"/>
<path d="M52.04 184.85L48.23 184.74V180.77L52.04 180.95V184.85Z" fill="#F5EDE2"/>
<path d="M58.9499 185.06L55.1399 184.95V181.1L58.9499 181.28V185.06Z" fill="#F5EDE2"/>
<path d="M65.8499 185.27L62.0399 185.16V181.42L65.8499 181.6V185.27Z" fill="#F5EDE2"/>
<path d="M45.14 191.92H41.33V187.85L45.14 187.91V191.92Z" fill="#F5EDE2"/>
<path d="M52.04 191.92H48.23V187.96L52.04 188.02V191.92Z" fill="#F5EDE2"/>
<path d="M58.9499 191.92H55.1399V188.08L58.9499 188.14V191.92Z" fill="#F5EDE2"/>
<path d="M65.8499 191.92H62.0399V188.19L65.8499 188.25V191.92Z" fill="#F5EDE2"/>
<path d="M28.3999 145.49L24.8999 146.98V143.23L28.3999 141.62V145.49Z" fill="#8C2746"/>
<path d="M34.75 142.78L31.25 144.27V140.31L34.75 138.7V142.78Z" fill="#8C2746"/>
<path d="M28.3999 152.49L24.8999 153.77V150.02L28.3999 148.63V152.49Z" fill="#8C2746"/>
<path d="M34.75 150.17L31.25 151.45V147.49L34.75 146.1V150.17Z" fill="#8C2746"/>
<path d="M28.3999 159.5L24.8999 160.57V156.82L28.3999 155.63V159.5Z" fill="#8C2746"/>
<path d="M34.75 157.57L31.25 158.63V154.67L34.75 153.49V157.57Z" fill="#8C2746"/>
<path d="M28.3999 166.51L24.8999 167.36V163.61L28.3999 162.64V166.51Z" fill="#8C2746"/>
<path d="M34.75 164.96L31.25 165.81V161.85L34.75 160.88V164.96Z" fill="#8C2746"/>
<path d="M15.6899 175.83L12.1899 176.47V173.15L15.6899 172.39V175.83Z" fill="#8C2746"/>
<path d="M22.0499 174.67L18.5399 175.31V171.78L22.0499 171.02V174.67Z" fill="#8C2746"/>
<path d="M28.3999 173.51L24.8999 174.15V170.41L28.3999 169.65V173.51Z" fill="#8C2746"/>
<path d="M34.75 172.35L31.25 172.99V169.03L34.75 168.27V172.35Z" fill="#8C2746"/>
<path d="M15.6899 182.07L12.1899 182.49V179.17L15.6899 178.63V182.07Z" fill="#8C2746"/>
<path d="M22.0499 181.29L18.5399 181.72V178.19L22.0499 177.64V181.29Z" fill="#8C2746"/>
<path d="M28.3999 180.52L24.8999 180.95V177.2L28.3999 176.65V180.52Z" fill="#8C2746"/>
<path d="M34.75 179.75L31.25 180.17V176.21L34.75 175.67V179.75Z" fill="#8C2746"/>
<path d="M15.6899 188.3L12.1899 188.51V185.19L15.6899 184.86V188.3Z" fill="#8C2746"/>
<path d="M22.0499 187.91L18.5399 188.13V184.59L22.0499 184.26V187.91Z" fill="#8C2746"/>
<path d="M28.3999 187.53L24.8999 187.74V183.99L28.3999 183.66V187.53Z" fill="#8C2746"/>
<path d="M34.75 187.14L31.25 187.35V183.39L34.75 183.06V187.14Z" fill="#8C2746"/>
<path d="M15.6899 194.53H12.1899V191.21L15.6899 191.1V194.53Z" fill="#8C2746"/>
<path d="M22.0499 194.53H18.5399V191L22.0499 190.88V194.53Z" fill="#8C2746"/>
<path d="M28.3999 194.53H24.8999V190.78L28.3999 190.67V194.53Z" fill="#8C2746"/>
<path d="M34.75 194.53H31.25V190.57L34.75 190.45V194.53Z" fill="#8C2746"/>
<path d="M352.14 183.78V135.87L315.5 128.46V183.78H352.14Z" fill="#8C2746"/>
<path d="M269.57 183.11V139.13L314.85 129.28V183.11H269.57Z" fill="#F5EDE2"/>
<path d="M314.19 130.1V182.45H270.24V139.66L314.19 130.1ZM315.51 128.45L268.91 138.59V183.78H315.51V128.46V128.45Z" fill="#8C2746"/>
<path d="M355.45 202.89V141.84L318.73 135.72V202.89H355.45Z" fill="#8C2746"/>
<path d="M267.47 202.21V145.62L318.07 136.51V202.21H267.47Z" fill="#F5EDE2"/>
<path d="M317.41 137.3V201.54H268.14V146.17L317.41 137.3ZM318.74 135.72L266.81 145.07V202.87H318.74V135.72Z" fill="#8C2746"/>
<path d="M291.33 185.07H281.33V202.01H291.33V185.07Z" fill="#8C2746"/>
<path d="M302.46 184.83H292.46V201.77H302.46V184.83Z" fill="#8C2746"/>
<path d="M318.054 177.911L267.41 179.529L267.467 181.298L318.111 179.68L318.054 177.911Z" fill="#8C2746"/>
<path d="M317.828 148.038L267.183 154.984L267.423 156.738L318.069 149.791L317.828 148.038Z" fill="#8C2746"/>
<path d="M317.87 162.917L267.219 167.411L267.376 169.174L318.027 164.68L317.87 162.917Z" fill="#8C2746"/>
<path d="M305.28 138.62H303.51V178.94H305.28V138.62Z" fill="#8C2746"/>
<path d="M280.44 143.13H278.67V180.07H280.44V143.13Z" fill="#8C2746"/>
<path d="M358.96 201.04H262.99V206.68H358.96V201.04Z" fill="#8C2746"/>
<path d="M362.55 198.56H0V210.62H362.55V198.56Z" fill="#8C2746"/>
</svg>
