<svg width="223" height="565" viewBox="0 0 223 565" fill="none" xmlns="http://www.w3.org/2000/svg">
<path d="M109.061 1.37475C109.555 1.37475 110.013 1.62159 110.225 2.08003C118.618 17.7372 131.524 42.3866 134.627 51.7668C143.232 40.835 152.365 30.0795 161.816 19.853C162.063 19.5709 162.415 19.4298 162.803 19.4298C162.979 19.4298 163.156 19.4651 163.332 19.5357C163.861 19.7473 164.178 20.3114 164.108 20.8757C162.627 37.7318 156.279 58.0085 150.108 77.5799C145.101 93.4839 140.375 108.506 138.154 121.624C137.096 127.972 137.554 134.39 138.013 140.596C138.683 149.589 139.282 158.087 134.486 163.624C131.242 167.326 125.847 169.407 117.983 169.901C117.242 169.936 116.466 169.971 115.726 169.971C101.303 169.971 86.6333 161.049 77.3941 146.697C72.0693 138.375 73.233 133.473 74.6083 127.796C75.5252 123.987 76.5831 119.685 75.7367 113.408C72.8451 91.3328 67.7671 65.2728 62.3718 37.6965C61.1728 31.5254 59.9738 25.3189 58.7749 19.1478C58.7043 18.6893 58.8454 18.2309 59.1628 17.9135C59.4096 17.7019 59.727 17.5608 60.0444 17.5608C60.1501 17.5608 60.2912 17.5609 60.397 17.5961C67.4145 19.5357 75.1373 27.8932 81.3437 34.6286C82.8953 36.3213 84.3764 37.9081 85.7164 39.2834C86.9507 37.3439 88.996 34.3817 91.4644 30.8553C97.0714 22.8152 108.744 6.10011 107.862 3.34953C107.545 2.71478 107.792 1.93898 108.426 1.58633C108.638 1.48054 108.814 1.44529 109.026 1.44529L109.061 1.37475Z" fill="#8C2746"/>
<path d="M115.691 168.596C100.668 168.596 86.6685 158.687 78.4873 145.922C69.9181 132.557 79.122 128.925 77.0414 113.162C73.4798 86.0085 66.4976 52.1905 60.0795 18.7956C69.0013 21.2288 79.4746 35.017 86.0337 41.3292C88.7843 36.0396 111.318 6.94696 109.096 2.68003C112.164 8.39277 135.544 52.7547 134.134 54.5532C143.232 42.8808 152.788 31.5964 162.803 20.7352C160.194 50.7799 141.856 91.6507 136.849 121.378C133.146 143.242 147.428 166.622 117.877 168.526C117.136 168.561 116.431 168.596 115.691 168.596ZM115.691 171.241C116.466 171.241 117.242 171.241 118.018 171.171C126.27 170.642 131.947 168.455 135.438 164.435C140.622 158.476 139.987 149.73 139.282 140.456C138.824 134.32 138.365 127.972 139.423 121.801C141.61 108.789 146.335 93.8018 151.342 77.9331C157.514 58.2911 163.932 37.9439 165.413 20.9467C165.518 19.8183 164.884 18.7604 163.861 18.3019C163.508 18.1609 163.156 18.0904 162.803 18.0904C162.063 18.0904 161.357 18.3725 160.864 18.9367C151.977 28.5637 143.373 38.6492 135.192 48.9109C133.605 45.0672 130.713 38.9665 125.635 28.8811C119.746 17.2088 113.152 4.65486 111.388 1.41058C110.895 0.528987 110.013 -4.84418e-06 109.061 -4.92742e-06C108.638 -4.96441e-06 108.215 0.105784 107.827 0.317363C106.663 0.952113 106.134 2.32742 106.557 3.52638C106.381 7.12329 95.5902 22.5336 90.4064 29.9743C88.4317 32.8306 86.739 35.1933 85.54 37.027C84.5174 35.9691 83.4595 34.8054 82.331 33.5712C76.0188 26.73 68.155 18.1961 60.7495 16.1861C60.5027 16.1156 60.2911 16.0803 60.0443 16.0803C59.3743 16.0803 58.7395 16.3271 58.2458 16.7856C57.5758 17.4203 57.2584 18.3372 57.4348 19.2188C58.6337 25.4252 59.8327 31.6316 61.0317 37.8381C66.3918 65.3791 71.4697 91.4039 74.3614 113.409C75.1372 119.439 74.1851 123.423 73.2329 127.302C71.8576 133.05 70.5529 138.446 76.1951 147.227C85.6458 161.967 100.774 171.1 115.62 171.1L115.691 171.241Z" fill="black"/>
<path d="M36.1356 98.8096C36.1356 125.857 58.0345 147.756 85.0818 147.756L133.429 147.756C160.476 147.756 182.375 125.857 182.375 98.8097L36.1709 98.8096L36.1356 98.8096Z" fill="#F5EDE2" stroke="black" stroke-width="3.52638" stroke-miterlimit="10"/>
<path d="M39.5913 140.174C16.4935 184.606 2.00004 248.258 2.00004 318.962C2.00002 453.211 115.585 562 115.585 562C115.585 562 220.847 453.211 220.847 318.962C220.847 248.258 199.266 184.606 176.168 140.174L39.5913 140.174Z" fill="#F5EDE2" stroke="black" stroke-width="3.52638" stroke-miterlimit="10"/>
<mask id="mask0_8357_390" style="mask-type:luminance" maskUnits="userSpaceOnUse" x="2" y="140" width="219" height="422">
<path d="M39.5913 140.174C16.4935 184.606 2.00004 248.258 2.00004 318.962C2.00002 453.211 115.585 562 115.585 562C115.585 562 220.847 453.211 220.847 318.962C220.847 248.258 199.266 184.606 176.168 140.174L39.5913 140.174Z" fill="white"/>
</mask>
<g mask="url(#mask0_8357_390)">
<path d="M84.094 528.499C102.079 549.763 115.585 562 115.585 562C115.585 562 128.174 549.763 144.924 528.499L84.0587 528.499L84.094 528.499Z" fill="#8C2746" stroke="black" stroke-width="3.52638" stroke-miterlimit="10"/>
</g>
<path d="M89.9996 212.743C61.0908 224.582 47.2527 257.614 59.0914 286.523C70.9301 315.432 103.962 329.27 132.871 317.431C161.78 305.593 175.618 272.56 163.779 243.652C151.941 214.743 118.908 200.905 89.9996 212.743Z" fill="#8C2746" stroke="black" stroke-width="2.64479" stroke-linecap="round" stroke-linejoin="round"/>
<path d="M89.981 353.457C61.0722 365.296 47.2341 398.328 59.0728 427.237C70.9115 456.146 103.944 469.984 132.853 458.145C161.762 446.307 175.6 413.274 163.761 384.365C151.922 355.457 118.89 341.619 89.981 353.457Z" fill="#8C2746" stroke="black" stroke-width="2.64479" stroke-linecap="round" stroke-linejoin="round"/>
<path d="M128 254.625V248H92V254.625H103.455C107.716 254.625 111.312 257.401 112.667 261.25H92V267.875H112.667C111.995 269.807 110.749 271.481 109.1 272.667C107.45 273.853 105.478 274.494 103.455 274.5H92V282.496L110.281 301H119.537L99.9004 281.125H103.455C107.225 281.12 110.878 279.799 113.798 277.386C116.718 274.972 118.726 271.613 119.484 267.875H128V261.25H119.484C118.983 258.839 117.949 256.574 116.46 254.625H128Z" fill="#F5EDE2"/>
<path d="M133 393.625V387H97V393.625H108.455C112.716 393.625 116.312 396.401 117.667 400.25H97V406.875H117.667C116.995 408.807 115.749 410.481 114.1 411.667C112.45 412.853 110.478 413.494 108.455 413.5H97V421.496L115.281 440H124.537L104.9 420.125H108.455C112.225 420.12 115.878 418.799 118.798 416.386C121.718 413.972 123.726 410.613 124.484 406.875H133V400.25H124.484C123.983 397.839 122.949 395.574 121.46 393.625H133Z" fill="#F5EDE2"/>
</svg>
