<svg width="726" height="741" viewBox="0 0 726 741" fill="none" xmlns="http://www.w3.org/2000/svg">
<g clip-path="url(#clip0_8767_97)">
<path d="M664.66 2H48.71C22.9128 2 2 22.9128 2 48.71V691.8C2 717.597 22.9128 738.51 48.71 738.51H664.66C690.457 738.51 711.37 717.597 711.37 691.8V48.71C711.37 22.9128 690.457 2 664.66 2Z" fill="#F5EDE2" stroke="black" stroke-width="4" stroke-miterlimit="10"/>
<path d="M2.32996 67.95H711.11" stroke="black" stroke-width="4" stroke-miterlimit="10"/>
<path d="M718.29 608.79H718.28C714.232 608.79 710.95 612.072 710.95 616.12V662.64C710.95 666.688 714.232 669.97 718.28 669.97H718.29C722.338 669.97 725.62 666.688 725.62 662.64V616.12C725.62 612.072 722.338 608.79 718.29 608.79Z" fill="black"/>
<path d="M718.29 155.4H718.28C714.232 155.4 710.95 158.682 710.95 162.73V217.9C710.95 221.948 714.232 225.23 718.28 225.23H718.29C722.338 225.23 725.62 221.948 725.62 217.9V162.73C725.62 158.682 722.338 155.4 718.29 155.4Z" fill="black"/>
<path d="M718.29 229.64H718.28C714.232 229.64 710.95 232.922 710.95 236.97V292.14C710.95 296.188 714.232 299.47 718.28 299.47H718.29C722.338 299.47 725.62 296.188 725.62 292.14V236.97C725.62 232.922 722.338 229.64 718.29 229.64Z" fill="black"/>
<path d="M577.07 49.52C583.051 49.52 587.9 44.6712 587.9 38.69C587.9 32.7087 583.051 27.86 577.07 27.86C571.089 27.86 566.24 32.7087 566.24 38.69C566.24 44.6712 571.089 49.52 577.07 49.52Z" stroke="black" stroke-width="4" stroke-miterlimit="10"/>
<path d="M616.83 49.52C622.811 49.52 627.66 44.6712 627.66 38.69C627.66 32.7087 622.811 27.86 616.83 27.86C610.849 27.86 606 32.7087 606 38.69C606 44.6712 610.849 49.52 616.83 49.52Z" stroke="black" stroke-width="4" stroke-miterlimit="10"/>
<path d="M656.59 49.52C662.571 49.52 667.42 44.6712 667.42 38.69C667.42 32.7087 662.571 27.86 656.59 27.86C650.609 27.86 645.76 32.7087 645.76 38.69C645.76 44.6712 650.609 49.52 656.59 49.52Z" stroke="black" stroke-width="4" stroke-miterlimit="10"/>
</g>
<defs>
<clipPath id="clip0_8767_97">
<rect width="725.62" height="740.51" fill="white"/>
</clipPath>
</defs>
</svg>
