<svg width="60" height="60" viewBox="0 0 60 60" fill="none" xmlns="http://www.w3.org/2000/svg">
<circle cx="30" cy="30" r="29" stroke="#CAC9C4"/>
<path d="M28.5 38C28.5 38.2761 28.7239 38.5 29 38.5C29.2761 38.5 29.5 38.2761 29.5 38L29 38L28.5 38ZM29.3536 21.6464C29.1583 21.4512 28.8417 21.4512 28.6464 21.6464L25.4645 24.8284C25.2692 25.0237 25.2692 25.3403 25.4645 25.5355C25.6597 25.7308 25.9763 25.7308 26.1716 25.5355L29 22.7071L31.8284 25.5355C32.0237 25.7308 32.3403 25.7308 32.5355 25.5355C32.7308 25.3403 32.7308 25.0237 32.5355 24.8284L29.3536 21.6464ZM29 38L29.5 38L29.5 22L29 22L28.5 22L28.5 38L29 38Z" fill="#CAC9C4"/>
</svg>
