<svg width="103" height="25" viewBox="0 0 103 15" fill="none" xmlns="http://www.w3.org/2000/svg">
    <style>
        .t1 {
            -webkit-animation: text1 1.5s linear infinite both;
            animation: text1 1.5s linear infinite both;
        }

        @keyframes text1 {
            0%, 100% {
                transform: translateY(0);
            } 25% {
                transform: translateY(-2px);
            } 60% {
                transform: translateY(5px);
            }
        }
        @-webkit-keyframes text1 {
            0%, 100% {
                transform: translateY(0);
            } 25% {
                transform: translateY(-2px);
            } 60% {
                transform: translateY(5px);
            }
        }
    </style>
    <path class="t1" d="M102.833 14.2486C97.0999 14.167 94.158 11.4208 91.5618 8.99696C89.0639 6.6635 86.9077 4.65109 82.3748 4.58582C77.8419 4.52055 75.6559 6.47232 73.1229 8.73463C70.4922 11.0855 67.5077 13.7469 61.7745 13.6653C56.0413 13.5837 53.0993 10.8374 50.5031 8.41366C48.0053 6.0802 45.8491 4.06779 41.3162 4.00252C36.7833 3.93725 34.5972 5.88902 32.0643 8.15133C29.4336 10.5022 26.4491 13.1636 20.7159 13.082C14.9827 13.0004 12.0407 10.2541 9.44448 7.83036C6.94665 5.49689 4.79176 3.48028 0.260313 3.4178L0.283047 0.293409C6.01624 0.375007 8.95822 3.12123 11.5544 5.54502C14.0523 7.87848 16.2085 9.8909 20.7414 9.95616C25.2728 10.0186 27.4589 8.06687 29.9933 5.80734C32.6254 3.4593 35.6085 0.795112 41.3417 0.87671C47.0749 0.958309 50.0169 3.70453 52.6131 6.12832C55.1109 8.46178 57.2671 10.4742 61.8 10.5395C66.3329 10.6047 68.5189 8.65296 71.0519 6.39065C73.684 4.0426 76.6671 1.37841 82.4003 1.46001C88.1335 1.54161 91.0755 4.28783 93.6717 6.71162C96.1695 9.04509 98.3258 11.0575 102.859 11.1228L102.836 14.2472L102.833 14.2486Z" fill="#8C2746"/>
</svg>
