<svg width="50" height="46" viewBox="0 0 50 46" fill="none" xmlns="http://www.w3.org/2000/svg">
<path d="M25.0047 45.3415C18.9968 45.3347 13.2369 42.945 8.98869 38.6968C4.74047 34.4486 2.35082 28.6887 2.34399 22.6808C2.34399 22.4736 2.42632 22.2748 2.57286 22.1283C2.7194 21.9817 2.91816 21.8994 3.1254 21.8994C3.33264 21.8994 3.53139 21.9817 3.67793 22.1283C3.82447 22.2748 3.9068 22.4736 3.9068 22.6808C3.90193 27.7521 5.72387 32.6555 9.03904 36.4931C12.3542 40.3308 16.9408 42.8459 21.9589 43.578C26.9771 44.3101 32.091 43.2102 36.3645 40.4796C40.6379 37.7491 43.7848 33.5706 45.229 28.7093C45.2892 28.5121 45.4249 28.3466 45.6067 28.249C45.7884 28.1515 46.0013 28.1297 46.199 28.1885C46.3967 28.2473 46.5632 28.3818 46.662 28.5629C46.7609 28.7439 46.7843 28.9566 46.7269 29.1547C45.3132 33.8211 42.4406 37.9113 38.5309 40.8247C34.6212 43.7381 29.8804 45.3212 25.0047 45.3415Z" fill="white"/>
<path d="M46.884 23.4623C46.6768 23.4623 46.478 23.38 46.3315 23.2334C46.185 23.0869 46.1026 22.8881 46.1026 22.6809C46.1075 17.6096 44.2856 12.7063 40.9704 8.8686C37.6552 5.03095 33.0687 2.51582 28.0505 1.78372C23.0323 1.05161 17.9184 2.15153 13.645 4.88207C9.37156 7.61261 6.22467 11.7911 4.78047 16.6524C4.72025 16.8496 4.58448 17.0151 4.40276 17.1127C4.22104 17.2102 4.00811 17.232 3.81041 17.1732C3.6127 17.1144 3.44626 16.9799 3.34737 16.7989C3.24849 16.6178 3.22517 16.4051 3.28252 16.207C4.83376 10.9858 8.21369 6.49802 12.8035 3.5653C17.3933 0.632594 22.8858 -0.548826 28.2755 0.237346C33.6653 1.02352 38.5915 3.72468 42.1523 7.84628C45.7131 11.9679 47.6703 17.2341 47.6654 22.6809C47.6654 22.8881 47.5831 23.0869 47.4366 23.2334C47.29 23.38 47.0913 23.4623 46.884 23.4623Z" fill="white"/>
<path d="M0.781236 25.8065C0.626714 25.8064 0.47567 25.7606 0.3472 25.6747C0.218729 25.5889 0.118601 25.4668 0.0594718 25.3241C0.000342963 25.1813 -0.0151311 25.0242 0.0150057 24.8727C0.0451425 24.7211 0.119537 24.5819 0.228785 24.4726L2.57299 22.1284C2.72037 21.9861 2.91775 21.9073 3.12263 21.9091C3.32751 21.9109 3.5235 21.993 3.66838 22.1379C3.81326 22.2828 3.89544 22.4788 3.89722 22.6837C3.899 22.8886 3.82024 23.0859 3.6779 23.2333L1.33369 25.5775C1.18718 25.7241 0.988461 25.8064 0.781236 25.8065Z" fill="white"/>
<path d="M5.46965 25.8065C5.26242 25.8064 5.0637 25.7241 4.9172 25.5775L2.57299 23.2333C2.43065 23.0859 2.35189 22.8886 2.35367 22.6837C2.35545 22.4788 2.43763 22.2828 2.58251 22.1379C2.72738 21.993 2.92337 21.9109 3.12825 21.9091C3.33313 21.9073 3.53052 21.9861 3.67789 22.1284L6.0221 24.4726C6.13135 24.5819 6.20574 24.7211 6.23588 24.8727C6.26602 25.0242 6.25054 25.1813 6.19141 25.3241C6.13228 25.4668 6.03216 25.5889 5.90368 25.6747C5.77521 25.7606 5.62417 25.8064 5.46965 25.8065Z" fill="white"/>
<path d="M46.884 23.4622C46.7295 23.4622 46.5785 23.4164 46.45 23.3305C46.3215 23.2446 46.2214 23.1226 46.1623 22.9798C46.1031 22.8371 46.0877 22.68 46.1178 22.5284C46.1479 22.3769 46.2223 22.2377 46.3316 22.1284L48.6758 19.7842C48.8232 19.6418 49.0205 19.5631 49.2254 19.5648C49.4303 19.5666 49.6263 19.6488 49.7712 19.7937C49.916 19.9386 49.9982 20.1346 50 20.3394C50.0018 20.5443 49.923 20.7417 49.7807 20.8891L47.4365 23.2333C47.29 23.3798 47.0912 23.4622 46.884 23.4622Z" fill="white"/>
<path d="M46.884 23.4622C46.6767 23.4622 46.478 23.3798 46.3315 23.2333L43.9873 20.8891C43.845 20.7417 43.7662 20.5443 43.768 20.3394C43.7698 20.1346 43.8519 19.9386 43.9968 19.7937C44.1417 19.6488 44.3377 19.5666 44.5426 19.5648C44.7474 19.5631 44.9448 19.6418 45.0922 19.7842L47.4364 22.1284C47.5457 22.2377 47.62 22.3769 47.6502 22.5284C47.6803 22.68 47.6648 22.8371 47.6057 22.9798C47.5466 23.1226 47.4465 23.2446 47.318 23.3305C47.1895 23.4164 47.0385 23.4622 46.884 23.4622Z" fill="white"/>
<path d="M31.2559 19.5553C26.984 19.5553 24.2233 18.3285 24.2233 16.4297C24.2233 14.5309 26.984 13.3041 31.2559 13.3041C35.5278 13.3041 38.2885 14.5309 38.2885 16.4297C38.2885 18.3285 35.5278 19.5553 31.2559 19.5553ZM31.2559 14.8669C27.438 14.8669 25.7861 15.9015 25.7861 16.4297C25.7861 16.9579 27.438 17.9925 31.2559 17.9925C35.0738 17.9925 36.7257 16.9579 36.7257 16.4297C36.7257 15.9015 35.0738 14.8669 31.2559 14.8669Z" fill="white"/>
<path d="M31.2559 22.6808C26.984 22.6808 24.2233 21.454 24.2233 19.5552V16.4296H25.7861V19.5552C25.7861 20.0834 27.438 21.118 31.2559 21.118C35.0738 21.118 36.7257 20.0834 36.7257 19.5552V16.4296H38.2885V19.5552C38.2885 21.454 35.5278 22.6808 31.2559 22.6808Z" fill="white"/>
<path d="M31.2559 25.8064C26.984 25.8064 24.2233 24.5796 24.2233 22.6808V19.5552H25.7861V22.6808C25.7861 23.209 27.438 24.2436 31.2559 24.2436C35.0738 24.2436 36.7257 23.209 36.7257 22.6808V19.5552H38.2885V22.6808C38.2885 24.5796 35.5278 25.8064 31.2559 25.8064Z" fill="white"/>
<path d="M31.2559 28.932C26.984 28.932 24.2233 27.7052 24.2233 25.8064V22.6808H25.7861V25.8064C25.7861 26.3346 27.438 27.3692 31.2559 27.3692C35.0738 27.3692 36.7257 26.3346 36.7257 25.8064V22.6808H38.2885V25.8064C38.2885 27.7052 35.5278 28.932 31.2559 28.932Z" fill="white"/>
<path d="M31.2559 32.0577C26.984 32.0577 24.2233 30.8309 24.2233 28.9321V25.8065H25.7861V28.9321C25.7861 29.4604 27.438 30.4949 31.2559 30.4949C35.0738 30.4949 36.7257 29.4604 36.7257 28.9321V25.8065H38.2885V28.9321C38.2885 30.8309 35.5278 32.0577 31.2559 32.0577Z" fill="white"/>
<path d="M18.7536 25.8064C14.4816 25.8064 11.7209 24.5796 11.7209 22.6808C11.7209 20.782 14.4816 19.5552 18.7536 19.5552C23.0255 19.5552 25.7862 20.782 25.7862 22.6808C25.7862 24.5796 23.0255 25.8064 18.7536 25.8064ZM18.7536 21.118C14.9356 21.118 13.2838 22.1526 13.2838 22.6808C13.2838 23.209 14.9356 24.2436 18.7536 24.2436C22.5715 24.2436 24.2234 23.209 24.2234 22.6808C24.2234 22.1526 22.5715 21.118 18.7536 21.118Z" fill="white"/>
<path d="M18.7536 28.932C14.4816 28.932 11.7209 27.7052 11.7209 25.8064V22.6808H13.2838V25.8064C13.2838 26.3346 14.9356 27.3692 18.7536 27.3692C22.5715 27.3692 24.2234 26.3346 24.2234 25.8064V22.6808H25.7862V25.8064C25.7862 27.7052 23.0255 28.932 18.7536 28.932Z" fill="white"/>
<path d="M18.7536 32.0577C14.4816 32.0577 11.7209 30.8309 11.7209 28.9321V25.8065H13.2838V28.9321C13.2838 29.4604 14.9356 30.4949 18.7536 30.4949C22.5715 30.4949 24.2234 29.4604 24.2234 28.9321V25.8065H25.7862V28.9321C25.7862 30.8309 23.0255 32.0577 18.7536 32.0577Z" fill="white"/>
</svg>
