<svg width="47" height="47" viewBox="0 0 47 47" fill="none" xmlns="http://www.w3.org/2000/svg">
<path d="M19.8294 33.6C20.3361 33.6 20.7474 33.1887 20.7474 32.6819C20.7474 32.1752 20.3361 31.7639 19.8294 31.7639C19.3227 31.7639 18.9114 32.1752 18.9114 32.6819C18.9114 33.1887 19.3227 33.6 19.8294 33.6Z" fill="white"/>
<path d="M0.268955 35.7179L11.2854 46.7343C11.644 47.093 12.2249 47.093 12.5835 46.7343L18.6425 40.6753C19.0011 40.3167 19.0011 39.7358 18.6425 39.3772L18.3736 39.1082H31.6069C32.7691 39.1082 33.8783 38.6725 34.7336 37.8786L45.8708 27.4406C46.937 26.4505 47.2902 24.8776 46.7494 23.5271C46.3585 22.5496 45.5603 21.8015 44.5598 21.4748C43.5589 21.1474 42.4734 21.2801 41.5805 21.8381C41.5747 21.8417 39.1079 23.4604 39.1079 23.4604C39.091 18.484 36.0834 13.1774 31.9433 10.7883C32.1796 10.5169 32.3653 10.1955 32.4837 9.83587C32.9574 8.39463 32.1699 6.83469 30.7265 6.3581C30.6813 6.34304 30.6361 6.32977 30.5909 6.31578L32.9542 2.0706C33.0901 1.82638 33.1077 1.5334 33.0011 1.27521C32.895 1.01665 32.677 0.820492 32.4084 0.742675C30.714 0.249949 28.9528 0 27.1738 0C25.3951 0 23.6336 0.249949 21.9392 0.742316C21.6706 0.820492 21.4526 1.01629 21.3461 1.27485C21.2399 1.5334 21.2571 1.82638 21.3934 2.0706L23.7566 6.31578C23.7107 6.33013 23.6648 6.34375 23.6189 6.35881C22.1777 6.83469 21.3905 8.39427 21.8643 9.83658C21.9826 10.1955 22.1698 10.5158 22.4068 10.7876C18.205 13.2121 15.2394 18.5733 15.2394 23.5017C15.2394 23.6361 15.2426 23.7688 15.2469 23.9004C13.6027 24.349 12.0739 25.1663 10.7883 26.292L7.99836 28.733L7.62613 28.3608C7.26752 28.0022 6.68658 28.0022 6.32797 28.3608L0.268955 34.4198C-0.0896517 34.7784 -0.0896517 35.3593 0.268955 35.7179ZM23.578 2.22013C24.7543 1.96481 25.9592 1.83607 27.1738 1.83607C28.3884 1.83607 29.5933 1.96481 30.7699 2.22013L28.724 5.89478C27.6927 5.75098 26.6542 5.75098 25.6239 5.89478L23.578 2.22013ZM24.192 8.10308C26.0757 7.48663 28.1295 7.44001 30.1531 8.10236C30.6347 8.26122 30.8976 8.78192 30.7394 9.26245C30.6204 9.62429 30.2976 9.86993 29.9236 9.89181C28.1133 9.31625 26.2332 9.31517 24.4236 9.89002C24.4236 9.89002 24.4236 9.89002 24.4233 9.89002C24.046 9.86635 23.7258 9.61963 23.6082 9.26281C23.45 8.78156 23.7129 8.26087 24.192 8.10308ZM24.6998 11.734C26.2916 11.1606 27.9408 11.1469 29.5366 11.6952C33.8019 13.1619 37.2722 18.4582 37.2722 23.5017C37.2722 23.9291 37.2453 24.3365 37.1922 24.7173L32.7795 27.6124C32.0964 26.766 31.0611 26.2558 29.9279 26.2558H28.0918V25.1799C29.1605 24.8009 29.9279 23.7803 29.9279 22.5836C29.9279 21.0649 28.6925 19.8295 27.1738 19.8295C26.6678 19.8295 26.2558 19.4178 26.2558 18.9115C26.2558 18.4051 26.6678 17.9935 27.1738 17.9935C27.499 17.9935 27.8422 18.1595 28.1668 18.4733C28.5311 18.8258 29.1124 18.8161 29.4649 18.4521C29.8174 18.0878 29.8078 17.5065 29.4434 17.154C28.9776 16.7028 28.5114 16.4479 28.0918 16.3087V15.2394C28.0918 14.7323 27.6809 14.3213 27.1738 14.3213C26.6667 14.3213 26.2558 14.7323 26.2558 15.2394V16.3152C25.1875 16.6942 24.4197 17.7148 24.4197 18.9115C24.4197 20.4302 25.6551 21.6656 27.1738 21.6656C27.6801 21.6656 28.0918 22.0773 28.0918 22.5836C28.0918 23.09 27.6801 23.5017 27.1738 23.5017C26.7815 23.5017 26.3583 23.2549 25.9818 22.807C25.6554 22.419 25.0763 22.3688 24.6883 22.6951C24.3003 23.0215 24.2501 23.6006 24.5764 23.9886C25.067 24.5725 25.6443 24.9791 26.2558 25.1842V26.2558H25.9502C25.4991 26.2558 25.2965 25.9617 24.9788 25.7562C23.039 24.3024 20.6364 23.5017 18.2129 23.5017C17.8339 23.5017 17.4541 23.5214 17.0761 23.5597C17.0761 23.5404 17.0754 23.5214 17.0754 23.5017C17.0754 18.5289 20.4958 13.2502 24.6998 11.734ZM11.9975 27.6733C13.7224 26.1629 15.939 25.3377 18.2129 25.3377C20.2419 25.3377 22.2533 26.008 23.8764 27.2247C24.1106 27.3617 24.7625 28.0918 25.9499 28.0918H29.9279C30.9729 28.0918 31.764 28.9414 31.764 29.9279C31.764 30.9402 30.9402 31.764 29.9279 31.764H23.5017C22.9946 31.764 22.5836 32.1749 22.5836 32.682C22.5836 33.1891 22.9946 33.6 23.5017 33.6H29.9279C31.9526 33.6 33.6 31.9526 33.6 29.9279C33.6 29.7174 33.5814 29.5097 33.5462 29.3053L42.5612 23.3905C42.9901 23.1255 43.5105 23.0634 43.9896 23.2198C44.4715 23.3776 44.8563 23.738 45.0446 24.2092C45.3096 24.8705 45.1432 25.611 44.6182 26.0983L33.4813 36.5359C32.9699 37.0107 32.3044 37.2722 31.6069 37.2722H16.5375L9.29975 30.034L11.9975 27.6733ZM6.97705 30.308L16.6953 40.0262L11.9344 44.7871L2.21619 35.0689L6.97705 30.308Z" fill="white"/>
</svg>
