<svg width="40" height="40" viewBox="0 0 40 40" fill="none" xmlns="http://www.w3.org/2000/svg">
<path d="M33.6 17.7201L29.136 22.1825L27.2 20.2337C27.0498 20.0837 26.8462 19.9995 26.6339 19.9996C26.4216 19.9998 26.218 20.0842 26.068 20.2345C25.918 20.3847 25.8338 20.5883 25.834 20.8006C25.8341 21.0129 25.9186 21.2165 26.0688 21.3665L28.5824 23.8801C28.7325 24.03 28.9359 24.1143 29.148 24.1143C29.3602 24.1143 29.5636 24.03 29.7136 23.8801L34.744 18.8513C34.8204 18.7775 34.8814 18.6892 34.9233 18.5916C34.9652 18.494 34.9873 18.389 34.9882 18.2828C34.9892 18.1766 34.9689 18.0712 34.9287 17.9729C34.8885 17.8746 34.8291 17.7853 34.7539 17.7101C34.6788 17.635 34.5895 17.5756 34.4912 17.5354C34.3929 17.4952 34.2875 17.4749 34.1813 17.4759C34.0751 17.4768 33.9701 17.4989 33.8725 17.5408C33.7749 17.5827 33.6866 17.6437 33.6128 17.7201H33.6Z" fill="white"/>
<path d="M40 20.8C39.9958 18.5335 39.1906 16.3415 37.7267 14.6112C36.2628 12.8808 34.2345 11.7236 32 11.344V7.2C32.0002 7.09487 31.9797 6.99074 31.9396 6.89355C31.8995 6.79637 31.8406 6.70803 31.7664 6.6336L25.3664 0.233601C25.292 0.159358 25.2036 0.100513 25.1064 0.0604307C25.0093 0.0203479 24.9051 -0.000186479 24.8 1.27599e-06H5.6C5.38783 1.27599e-06 5.18434 0.0842867 5.03431 0.234316C4.88429 0.384345 4.8 0.587828 4.8 0.800001V4.8H0.8C0.587827 4.8 0.384344 4.88429 0.234315 5.03432C0.0842854 5.18435 0 5.38783 0 5.6V39.2C0 39.4122 0.0842854 39.6157 0.234315 39.7657C0.384344 39.9157 0.587827 40 0.8 40H28C28.2122 40 28.4157 39.9157 28.5657 39.7657C28.7157 39.6157 28.8 39.4122 28.8 39.2V35.2H31.2C31.4122 35.2 31.6157 35.1157 31.7657 34.9657C31.9157 34.8157 32 34.6122 32 34.4V30.256C34.2345 29.8764 36.2628 28.7192 37.7267 26.9888C39.1906 25.2585 39.9958 23.0665 40 20.8ZM25.6 2.7312L29.2688 6.4H25.6V2.7312ZM27.2 38.4H1.6V6.4H4.8V34.4C4.8 34.6122 4.88429 34.8157 5.03431 34.9657C5.18434 35.1157 5.38783 35.2 5.6 35.2H27.2V38.4ZM30.4 33.6H6.4V1.6H24V7.2C24 7.41217 24.0843 7.61566 24.2343 7.76569C24.3843 7.91572 24.5878 8 24.8 8H30.4V11.2C27.8539 11.2 25.4121 12.2114 23.6118 14.0118C21.8114 15.8121 20.8 18.2539 20.8 20.8C20.8 23.3461 21.8114 25.7879 23.6118 27.5882C25.4121 29.3886 27.8539 30.4 30.4 30.4V33.6ZM30.4 28.8C28.8177 28.8 27.271 28.3308 25.9554 27.4518C24.6398 26.5727 23.6145 25.3233 23.009 23.8615C22.4035 22.3997 22.245 20.7911 22.5537 19.2393C22.8624 17.6874 23.6243 16.262 24.7431 15.1431C25.862 14.0243 27.2874 13.2624 28.8393 12.9537C30.3911 12.645 31.9997 12.8035 33.4615 13.409C34.9233 14.0145 36.1727 15.0398 37.0518 16.3554C37.9308 17.671 38.4 19.2178 38.4 20.8C38.3975 22.921 37.5538 24.9543 36.0541 26.4541C34.5543 27.9538 32.521 28.7975 30.4 28.8Z" fill="white"/>
<path d="M14.4001 19.4336L11.9233 21.92L10.9633 20.96C10.8133 20.8097 10.6097 20.7253 10.3974 20.7251C10.1852 20.725 9.9815 20.8092 9.83128 20.9592C9.68106 21.1092 9.59659 21.3127 9.59644 21.525C9.59629 21.7373 9.68047 21.9409 9.83048 22.0912L11.3553 23.6144C11.5053 23.7643 11.7087 23.8486 11.9209 23.8486C12.133 23.8486 12.3365 23.7643 12.4865 23.6144L15.5345 20.5744C15.6847 20.4244 15.7692 20.2208 15.7693 20.0085C15.7695 19.7962 15.6853 19.5926 15.5353 19.4424C15.3853 19.2921 15.1817 19.2077 14.9694 19.2075C14.7572 19.2074 14.5535 19.2916 14.4033 19.4416L14.4001 19.4336Z" fill="white"/>
<path d="M14.4001 25.8336L11.9233 28.32L10.9633 27.36C10.889 27.2856 10.8008 27.2266 10.7037 27.1863C10.6066 27.146 10.5026 27.1252 10.3974 27.1251C10.2923 27.1251 10.1882 27.1457 10.0911 27.1859C9.99394 27.226 9.90566 27.2849 9.83128 27.3592C9.7569 27.4335 9.69788 27.5217 9.65758 27.6187C9.61729 27.7158 9.59651 27.8199 9.59644 27.925C9.59636 28.0301 9.61699 28.1342 9.65715 28.2314C9.69731 28.3285 9.7562 28.4168 9.83048 28.4912L11.3553 30.0144C11.5053 30.1644 11.7087 30.2486 11.9209 30.2486C12.133 30.2486 12.3365 30.1644 12.4865 30.0144L15.5345 26.9744C15.6847 26.8244 15.7692 26.6208 15.7693 26.4086C15.7695 26.1963 15.6853 25.9926 15.5353 25.8424C15.3853 25.6922 15.1817 25.6077 14.9694 25.6075C14.7572 25.6074 14.5535 25.6916 14.4033 25.8416L14.4001 25.8336Z" fill="white"/>
<path d="M10.4001 6.40005H20.0001C20.2123 6.40005 20.4158 6.31576 20.5658 6.16573C20.7158 6.0157 20.8001 5.81222 20.8001 5.60005C20.8001 5.38788 20.7158 5.18439 20.5658 5.03436C20.4158 4.88433 20.2123 4.80005 20.0001 4.80005H10.4001C10.1879 4.80005 9.98444 4.88433 9.83441 5.03436C9.68438 5.18439 9.6001 5.38788 9.6001 5.60005C9.6001 5.81222 9.68438 6.0157 9.83441 6.16573C9.98444 6.31576 10.1879 6.40005 10.4001 6.40005Z" fill="white"/>
<path d="M20.0001 9.6001H10.4001C10.1879 9.6001 9.98444 9.68438 9.83441 9.83441C9.68438 9.98444 9.6001 10.1879 9.6001 10.4001C9.6001 10.6123 9.68438 10.8158 9.83441 10.9658C9.98444 11.1158 10.1879 11.2001 10.4001 11.2001H20.0001C20.2123 11.2001 20.4158 11.1158 20.5658 10.9658C20.7158 10.8158 20.8001 10.6123 20.8001 10.4001C20.8001 10.1879 20.7158 9.98444 20.5658 9.83441C20.4158 9.68438 20.2123 9.6001 20.0001 9.6001Z" fill="white"/>
<path d="M15.2001 14.3999H10.4001C10.1879 14.3999 9.98444 14.4842 9.83441 14.6342C9.68438 14.7842 9.6001 14.9877 9.6001 15.1999C9.6001 15.4121 9.68438 15.6156 9.83441 15.7656C9.98444 15.9156 10.1879 15.9999 10.4001 15.9999H15.2001C15.4123 15.9999 15.6158 15.9156 15.7658 15.7656C15.9158 15.6156 16.0001 15.4121 16.0001 15.1999C16.0001 14.9877 15.9158 14.7842 15.7658 14.6342C15.6158 14.4842 15.4123 14.3999 15.2001 14.3999Z" fill="white"/>
</svg>
