<svg width="45" height="48" viewBox="0 0 45 48" fill="none" xmlns="http://www.w3.org/2000/svg">
<path d="M22.5001 0C17.0199 0 12.5615 4.45243 12.5615 9.92522C12.5615 15.398 17.0199 19.8504 22.5001 19.8504C27.9802 19.8504 32.4387 15.398 32.4387 9.92522C32.4387 4.45243 27.9803 0 22.5001 0ZM22.5001 17.8223C18.1383 17.8223 14.5897 14.2797 14.5897 9.92522C14.5897 5.57079 18.1383 2.02819 22.5001 2.02819C26.8619 2.02819 30.4105 5.57079 30.4105 9.92522C30.4105 14.2797 26.8619 17.8223 22.5001 17.8223Z" fill="white"/>
<path d="M26.012 7.42089C25.5993 7.04217 24.958 7.06946 24.5791 7.4821L22.0813 10.2029L20.9228 9.00168C20.534 8.59853 19.892 8.58691 19.4889 8.97568C19.0857 9.36445 19.074 10.0065 19.4629 10.4096L21.3696 12.3866C21.5609 12.5849 21.8243 12.6968 22.0994 12.6968C22.1036 12.6968 22.1077 12.6968 22.112 12.6967C22.3916 12.6933 22.6575 12.5745 22.8465 12.3685L26.0732 8.85371C26.452 8.44116 26.4246 7.79961 26.012 7.42089Z" fill="white"/>
<path d="M36.9803 8.91113H35.7092C35.1491 8.91113 34.6951 9.36517 34.6951 9.92523C34.6951 10.4853 35.1491 10.9393 35.7092 10.9393H36.9803C37.5403 10.9393 37.9944 10.4853 37.9944 9.92523C37.9944 9.36517 37.5403 8.91113 36.9803 8.91113Z" fill="white"/>
<path d="M32.8639 1.01178L31.965 1.90926C31.5687 2.30494 31.5682 2.94704 31.9639 3.34337C32.162 3.54176 32.4217 3.64096 32.6815 3.64096C32.9409 3.64096 33.2001 3.54213 33.398 3.34448L34.2969 2.447C34.6932 2.05132 34.6937 1.40922 34.298 1.01289C33.9023 0.616562 33.2602 0.616101 32.8639 1.01178Z" fill="white"/>
<path d="M33.3981 16.5058C33.0019 16.1102 32.3598 16.1105 31.9639 16.5069C31.5682 16.9033 31.5687 17.5454 31.965 17.9411L32.8639 18.8385C33.0618 19.0362 33.3212 19.135 33.5804 19.135C33.8401 19.135 34.1 19.0358 34.298 18.8374C34.6937 18.4411 34.6932 17.799 34.2969 17.4033L33.3981 16.5058Z" fill="white"/>
<path d="M9.29108 8.91113H8.01995C7.4599 8.91113 7.00586 9.36517 7.00586 9.92523C7.00586 10.4853 7.4599 10.9393 8.01995 10.9393H9.29108C9.85113 10.9393 10.3052 10.4853 10.3052 9.92523C10.3052 9.36517 9.85113 8.91113 9.29108 8.91113Z" fill="white"/>
<path d="M11.6022 16.5058L10.7033 17.4033C10.307 17.799 10.3065 18.4411 10.7022 18.8375C10.9003 19.0359 11.16 19.1351 11.4198 19.1351C11.6791 19.1351 11.9384 19.0362 12.1363 18.8386L13.0352 17.9411C13.4315 17.5454 13.432 16.9033 13.0363 16.5069C12.6406 16.1106 11.9986 16.1101 11.6022 16.5058Z" fill="white"/>
<path d="M11.6023 3.34445C11.8002 3.5421 12.0595 3.64093 12.3188 3.64093C12.5786 3.64093 12.8384 3.54173 13.0364 3.34334C13.4321 2.94701 13.4316 2.30491 13.0353 1.90913L12.1364 1.01166C11.7401 0.615979 11.098 0.61644 10.7022 1.01277C10.3065 1.40909 10.307 2.0512 10.7033 2.44697L11.6023 3.34445Z" fill="white"/>
<path d="M43.986 22.2637H37.4265C36.8794 22.2637 36.4336 22.6969 36.4132 23.239L28.3206 20.8204C25.9771 20.1418 23.4819 20.8197 21.8053 22.5893L21.6092 22.7857L20.2917 22.4012C17.5816 21.6104 14.6893 21.5017 11.9275 22.0871C11.9189 22.089 11.9105 22.0908 11.902 22.093L8.51609 22.9025C8.36684 22.5283 8.00121 22.2638 7.57381 22.2638H1.01409C0.454038 22.2638 0 22.7178 0 23.2779V38.648C0 39.208 0.454038 39.6621 1.01409 39.6621H7.57363C8.05496 39.6621 8.45792 39.3268 8.56173 38.877H9.38425L18.2863 46.2579C18.8989 46.8838 19.7149 47.2 20.533 47.2C21.302 47.2 22.0727 46.9205 22.6774 46.3559C22.9979 46.0566 23.2475 45.7014 23.4166 45.3107C24.5606 45.9705 26.018 45.8728 27.0527 44.9731C27.6839 44.4244 28.0626 43.6696 28.1246 42.8407C28.9567 42.8348 29.7362 42.5081 30.3267 41.916C31.0769 41.1638 31.3636 40.1273 31.1842 39.1476C31.7259 39.0337 32.2441 38.7755 32.677 38.3713C33.0345 38.0375 33.3035 37.6343 33.4714 37.1901H36.4123V38.648C36.4123 39.208 36.8663 39.6621 37.4264 39.6621H43.9859C44.546 39.6621 45 39.208 45 38.648V23.2778C45.0001 22.7176 44.5461 22.2637 43.986 22.2637ZM6.55953 37.6338H2.02819V24.2919H6.55953V37.6338ZM31.6446 36.1154C31.6348 36.4115 31.5098 36.6862 31.2929 36.8888C30.8448 37.3073 30.1392 37.2844 29.7194 36.8377L27.3088 34.5352C26.9036 34.1484 26.2617 34.1637 25.8751 34.5688C25.4884 34.9741 25.5035 35.6159 25.9086 36.0025L28.8787 38.9071C29.3019 39.3588 29.3073 40.0661 28.8907 40.4837C28.6746 40.7004 28.3915 40.816 28.0825 40.8123C27.7772 40.8075 27.4942 40.6824 27.2859 40.46C27.2845 40.4585 24.3003 37.5221 24.3003 37.5221C23.9009 37.1293 23.2588 37.1348 22.8662 37.5339C22.4734 37.9332 22.4787 38.5753 22.878 38.968L25.8164 41.8583C26.0171 42.0786 26.1191 42.3631 26.1038 42.6612C26.0882 42.9645 25.9526 43.242 25.7221 43.4425C25.2755 43.8307 24.5673 43.7779 24.1431 43.325L21.5467 40.5576C21.163 40.1495 20.5212 40.1295 20.1132 40.5132C19.7051 40.8968 19.6852 41.5386 20.0688 41.9467L21.3462 43.3058C21.5487 43.5222 21.6548 43.8043 21.6448 44.1002C21.6349 44.3963 21.51 44.6709 21.293 44.8736C20.8443 45.2927 20.1378 45.2692 19.7181 44.8209C19.689 44.7899 10.3972 37.0824 10.3972 37.0824C10.2153 36.9315 9.98635 36.8489 9.74997 36.8489H8.58772V24.9705L12.3605 24.0684C14.7921 23.5552 17.3377 23.6519 19.7233 24.3481L19.9746 24.4214L15.5742 28.8259C15.5673 28.8328 15.5605 28.8397 15.5538 28.8469C14.6159 29.8416 14.3682 31.2913 14.9231 32.5403C15.3477 33.4964 16.1734 34.192 17.1884 34.4488C17.4668 34.5191 17.7481 34.5538 18.0272 34.5538C18.7668 34.5538 19.4897 34.3106 20.0918 33.8458C20.0964 33.8422 20.1011 33.8385 20.1057 33.8348L25.7785 29.2952L31.3456 35.3204C31.5483 35.537 31.6545 35.8193 31.6446 36.1154ZM36.4124 35.1617H33.5384C33.401 34.7094 33.1611 34.2919 32.8306 33.9391L26.6261 27.224C26.2501 26.8171 25.6181 26.7878 25.2063 27.1555L18.8463 32.245C18.5141 32.4985 18.0915 32.5851 17.6859 32.4824C17.2784 32.3794 16.947 32.1004 16.7768 31.7171C16.5565 31.2211 16.6525 30.6457 17.0209 30.2477L23.2502 24.0128C23.257 24.0059 23.2638 23.999 23.2705 23.9918C24.4231 22.7698 26.1419 22.3011 27.7484 22.7661L36.4125 25.3555V35.1617H36.4124ZM42.9719 37.6338H38.4406V24.2919H42.9719V37.6338Z" fill="white"/>
</svg>
