<svg width="12" height="9" viewBox="0 0 12 9" fill="none" xmlns="http://www.w3.org/2000/svg">
    <path d="M0.722168 4.34934C0.419178 4.34934 0.173557 4.59496 0.173557 4.89795C0.173557 5.20094 0.419178 5.44656 0.722168 5.44656L0.722168 4.89795L0.722168 4.34934ZM11.3508 5.28588C11.5651 5.07163 11.5651 4.72427 11.3508 4.51002L7.8595 1.01868C7.64525 0.804438 7.29789 0.804438 7.08364 1.01868C6.8694 1.23293 6.8694 1.58029 7.08364 1.79454L10.1871 4.89795L7.08364 8.00136C6.8694 8.21561 6.8694 8.56297 7.08364 8.77722C7.29789 8.99146 7.64525 8.99146 7.8595 8.77722L11.3508 5.28588ZM0.722168 4.89795L0.722168 5.44656L10.9629 5.44656L10.9629 4.89795L10.9629 4.34934L0.722168 4.34934L0.722168 4.89795Z" fill="currentColor"/>
</svg>
