<svg width="44" height="44" viewBox="0 0 44 44" fill="none" xmlns="http://www.w3.org/2000/svg">
<mask id="path-1-inside-1_8831_507" fill="white">
<path d="M37.5013 6.4756C46.0482 15.0225 46.0482 28.8797 37.5013 37.4266C28.9544 45.9735 15.0972 45.9735 6.5503 37.4266C-1.99659 28.8797 -1.99659 15.0225 6.5503 6.4756C15.0972 -2.07129 28.9544 -2.07129 37.5013 6.4756Z"/>
</mask>
<path d="M12.9742 30.7438C12.8129 30.9051 12.8129 31.1666 12.9742 31.3278C13.1355 31.4891 13.3969 31.4891 13.5582 31.3278L13.2662 31.0358L12.9742 30.7438ZM30.6146 14.1004C30.6146 13.8723 30.4297 13.6874 30.2017 13.6874L26.4852 13.6874C26.2572 13.6874 26.0723 13.8723 26.0723 14.1004C26.0723 14.3284 26.2572 14.5133 26.4852 14.5133L29.7887 14.5133L29.7887 17.8168C29.7887 18.0449 29.9736 18.2297 30.2017 18.2297C30.4297 18.2297 30.6146 18.0449 30.6146 17.8168L30.6146 14.1004ZM13.2662 31.0358L13.5582 31.3278L30.4937 14.3923L30.2017 14.1004L29.9097 13.8084L12.9742 30.7438L13.2662 31.0358ZM37.5013 6.4756L36.9173 7.05958C45.1417 15.2839 45.1417 28.6183 36.9173 36.8426L37.5013 37.4266L38.0853 38.0106C46.9547 29.1412 46.9547 14.761 38.0853 5.89162L37.5013 6.4756ZM37.5013 37.4266L36.9173 36.8426C28.693 45.067 15.3587 45.067 7.13429 36.8426L6.5503 37.4266L5.96632 38.0106C14.8357 46.88 29.2159 46.88 38.0853 38.0106L37.5013 37.4266ZM6.5503 37.4266L7.13429 36.8426C-1.09008 28.6183 -1.09008 15.2839 7.13429 7.05958L6.5503 6.4756L5.96632 5.89162C-2.90309 14.761 -2.90309 29.1412 5.96632 38.0106L6.5503 37.4266ZM6.5503 6.4756L7.13429 7.05958C15.3587 -1.16479 28.693 -1.16479 36.9173 7.05958L37.5013 6.4756L38.0853 5.89162C29.2159 -2.9778 14.8357 -2.9778 5.96632 5.89162L6.5503 6.4756Z" fill="#8C1843" mask="url(#path-1-inside-1_8831_507)"/>
</svg>
