<svg width="44" height="44" viewBox="0 0 44 44" fill="none" xmlns="http://www.w3.org/2000/svg">
<path d="M34.5039 21.4963C34.846 21.4963 35.1233 21.7736 35.1233 22.1157C35.1233 22.4578 34.846 22.7351 34.5039 22.7351L34.5039 22.1157L34.5039 21.4963ZM10.1156 22.5537C9.87366 22.3118 9.87366 21.9196 10.1156 21.6777L14.0574 17.7359C14.2993 17.494 14.6915 17.494 14.9334 17.7359C15.1753 17.9778 15.1753 18.3699 14.9334 18.6118L11.4295 22.1157L14.9334 25.6196C15.1753 25.8615 15.1753 26.2537 14.9334 26.4956C14.6915 26.7375 14.2993 26.7375 14.0574 26.4956L10.1156 22.5537ZM34.5039 22.1157L34.5039 22.7351L10.5535 22.7351L10.5535 22.1157L10.5535 21.4963L34.5039 21.4963L34.5039 22.1157Z" fill="#8C1843"/>
<circle cx="21.8857" cy="21.8857" r="21.4727" transform="matrix(-1 2.18557e-08 2.18557e-08 1 43.7715 0)" stroke="#8C1843" stroke-width="0.825875"/>
</svg>
