<svg width="44" height="44" viewBox="0 0 44 44" fill="none" xmlns="http://www.w3.org/2000/svg">
<path d="M9.26758 21.4963C8.92549 21.4963 8.64817 21.7736 8.64817 22.1157C8.64817 22.4578 8.92549 22.7351 9.26758 22.7351L9.26758 22.1157L9.26758 21.4963ZM33.6559 22.5537C33.8978 22.3118 33.8978 21.9196 33.6559 21.6777L29.7141 17.7359C29.4722 17.494 29.08 17.494 28.8381 17.7359C28.5962 17.9778 28.5962 18.3699 28.8381 18.6118L32.342 22.1157L28.8381 25.6196C28.5962 25.8615 28.5962 26.2537 28.8381 26.4956C29.08 26.7375 29.4722 26.7375 29.7141 26.4956L33.6559 22.5537ZM9.26758 22.1157L9.26758 22.7351L33.2179 22.7351L33.2179 22.1157L33.2179 21.4963L9.26758 21.4963L9.26758 22.1157Z" fill="#8C1843"/>
<circle cx="21.8857" cy="21.8857" r="21.4727" stroke="#8C1843" stroke-width="0.825875"/>
</svg>
