<svg width="28" height="28" viewBox="0 0 28 28" fill="none" xmlns="http://www.w3.org/2000/svg">
    <path d="M25.7505 4.63127C22.7052 1.58687 17.7513 1.58687 14.7069 4.63127L13.9998 5.33797L13.293 4.63127C10.2486 1.58645 5.29429 1.58645 2.24988 4.63127C-0.732705 7.61386 -0.752072 12.3416 2.20497 15.6287C4.90199 18.6257 12.8563 25.1006 13.1937 25.3746C13.4229 25.5609 13.6985 25.6516 13.9726 25.6516C13.9816 25.6516 13.9907 25.6516 13.9993 25.6511C14.2828 25.6643 14.5684 25.5671 14.8049 25.3746C15.1424 25.1006 23.0975 18.6257 25.7954 15.6283C28.752 12.3416 28.7326 7.61386 25.7505 4.63127ZM23.9575 13.9746C21.8547 16.3107 16.0745 21.1286 13.9993 22.8383C11.9241 21.1291 6.14522 16.3115 4.04282 13.975C1.97998 11.6823 1.96061 8.41699 3.9979 6.37969C5.03839 5.33962 6.40482 4.81917 7.77126 4.81917C9.1377 4.81917 10.5041 5.33921 11.5446 6.37969L13.099 7.93404C13.284 8.11906 13.5172 8.22949 13.762 8.26823C14.1592 8.35353 14.5903 8.24268 14.8993 7.93445L16.4545 6.37969C18.5359 4.29913 21.9215 4.29955 24.0016 6.37969C26.0389 8.41699 26.0195 11.6823 23.9575 13.9746Z" fill="currentColor"/>
</svg>
