<svg width="22" height="29" viewBox="0 0 22 29" fill="none" xmlns="http://www.w3.org/2000/svg">
<path d="M0 10.1953C0 15.2316 4.05842 20.6956 7.6395 25.4174C8.49076 26.5391 9.30614 27.6136 10.0155 28.6216C10.1819 28.8581 10.4622 29 10.7617 29C11.0611 29 11.3414 28.8581 11.5078 28.6216C12.2172 27.6136 13.0326 26.5391 13.8838 25.4174C17.465 20.6956 21.5234 15.2316 21.5234 10.1953C21.5234 4.57328 16.6961 0 10.7617 0C4.82735 0 0 4.57328 0 10.1953ZM16.1426 10.1953C16.1426 13.0063 13.7289 15.293 10.7617 15.293C7.79453 15.293 5.38086 13.0063 5.38086 10.1953C5.38086 7.38429 7.79453 5.09766 10.7617 5.09766C13.7289 5.09766 16.1426 7.38429 16.1426 10.1953Z" fill="#68686F"/>
<path d="M10.762 13.5938C12.7432 13.5938 14.3493 12.0722 14.3493 10.1953C14.3493 8.31841 12.7432 6.79688 10.762 6.79688C8.78087 6.79688 7.1748 8.31841 7.1748 10.1953C7.1748 12.0722 8.78087 13.5938 10.762 13.5938Z" fill="#68686F"/>
</svg>
