<svg width="30" height="30" viewBox="0 0 30 30" fill="none" xmlns="http://www.w3.org/2000/svg">
    <path d="M1.875 27.1876C1.80352 27.1876 1.73133 27.1794 1.65984 27.163C1.2368 27.0622 0.9375 26.6849 0.9375 26.2501C0.9375 17.7311 2.01516 10.6459 15 10.3236V3.75012C15 3.37747 15.2205 3.04067 15.5613 2.89137C15.9009 2.74301 16.2991 2.80723 16.5738 3.06176L28.7613 14.3118C28.9535 14.4882 29.0625 14.7383 29.0625 15.0001C29.0625 15.2619 28.9535 15.512 28.7613 15.6887L16.5738 26.9387C16.3001 27.1933 15.9019 27.2591 15.5613 27.1091C15.2205 26.9596 15 26.6228 15 26.2501V19.6986C6.09281 19.9119 4.44938 23.1979 2.71359 26.6694C2.55258 26.9926 2.22375 27.1876 1.875 27.1876ZM15.9375 17.8126C16.4557 17.8126 16.875 18.2319 16.875 18.7501V24.1086L26.7427 15.0001L16.875 5.89161V11.2501C16.875 11.7683 16.4557 12.1876 15.9375 12.1876C5.58094 12.1876 3.35086 16.1931 2.91234 22.5908C4.85414 19.9825 8.16375 17.8126 15.9375 17.8126Z" fill="currentColor"/>
</svg>
