<svg width="211" height="182" viewBox="0 0 211 182" fill="none" xmlns="http://www.w3.org/2000/svg">
    <path class="circle" d="M176.482 181.981L175.177 180.58C196.14 161.119 208.177 133.578 208.177 105.02C208.177 48.1725 161.911 1.91922 105.048 1.91922C48.1856 1.91922 1.91974 48.1725 1.91974 105.02C1.91974 133.578 13.9565 161.119 34.9201 180.58L33.6147 181.981C12.248 162.155 0 134.096 0 105.001C0 47.0978 47.1297 0 105.048 0C162.967 0 210.097 47.117 210.097 105.02C210.097 134.115 197.849 162.174 176.482 182V181.981Z" fill="white"/>
    <path d="M180.435 118.589V46.6372H141.023L105.028 82.6226L141.023 118.608H180.435V118.589ZM69.0519 118.589L105.028 82.6034L69.0519 46.618H29.6395V118.57H69.0519V118.589Z" fill="#8C2746"/>
    <mask id="mask0_8406_585" style="mask-type:luminance" maskUnits="userSpaceOnUse" x="29" y="46" width="152" height="73">
        <path d="M180.435 118.589V46.6371H141.023L105.028 82.6226L141.023 118.608H180.435V118.589ZM69.0519 118.589L105.028 82.6034L69.0519 46.6179H29.6395V118.57H69.0519V118.589Z" fill="white"/>
    </mask>
    <g mask="url(#mask0_8406_585)">
        <path d="M25.1475 79.8398V85.3864H183.277V79.8398H25.1475Z" fill="white"/>
        <path d="M25.1475 57.7112V63.2385H183.277V57.7112H25.1475Z" fill="white"/>
        <path d="M25.1475 90.9138V96.4604H183.277V90.9138H25.1475Z" fill="white"/>
        <path d="M25.1475 101.988V107.515H183.277V101.988H25.1475Z" fill="white"/>
        <path d="M25.1475 68.7851V74.3125H183.277V68.7851H25.1475Z" fill="white"/>
        <path d="M25.1475 113.062V118.589H183.277V113.062H25.1475Z" fill="white"/>
        <path d="M25.1475 46.6372V52.1645H183.277V46.6372H25.1475Z" fill="white"/>
    </g>
    <path d="M141.024 181.981H69.0524V120.144L105.048 84.1581L141.024 120.144V181.981Z" fill="white"/>
</svg>
