<svg width="172" height="129" viewBox="0 0 172 129" fill="none" xmlns="http://www.w3.org/2000/svg">
<path d="M0 90.5966V95.9472C0 97.0386 0.541272 97.5799 1.63269 97.5799H7.63105V115.903C7.63105 116.995 8.19007 117.536 9.30811 117.536H16.1228C17.2409 117.536 17.7999 116.995 17.7999 115.903V97.5799H23.8426C24.934 97.5799 25.4753 97.0386 25.4753 95.9472V90.5966C25.4753 89.5051 24.934 88.9639 23.8426 88.9639H1.63269C0.541272 88.9639 0 89.5051 0 90.5966ZM28.4124 95.2462C27.3742 95.4946 26.966 96.1424 27.1878 97.2072L28.084 101.777C28.2704 102.868 28.9448 103.241 30.0805 102.922C31.5535 102.487 33.062 102.265 34.6148 102.265C35.8659 102.265 36.7799 102.389 37.3478 102.629C37.9157 102.877 38.2706 103.321 38.4126 103.978H34.8988C31.6068 103.978 29.2287 104.528 27.7557 105.628C26.2828 106.728 25.5552 108.521 25.5552 110.996C25.5552 113.259 26.1585 114.98 27.3742 116.161C28.581 117.341 30.3201 117.935 32.5828 117.935C36.0079 117.935 38.2706 116.693 39.362 114.226L39.7258 113.41H40.5866L40.3381 114.102C40.1163 114.838 40.0098 115.397 40.0098 115.779V115.939C40.0098 117.004 40.5511 117.536 41.6425 117.536H46.4962C47.6142 117.536 48.1732 116.995 48.1732 115.903V104.146C48.1732 100.801 47.2149 98.3518 45.2983 96.799C43.3816 95.2462 40.3558 94.4742 36.212 94.4742C33.3282 94.4742 30.7283 94.7315 28.4124 95.255V95.2462ZM35.023 109.781C35.023 108.689 35.5376 108.148 36.5758 108.148H38.5368V109.532C38.5368 110.162 38.3771 110.615 38.0488 110.899C37.7205 111.183 37.1881 111.325 36.4605 111.325C35.511 111.325 35.0319 110.81 35.0319 109.772L35.023 109.781ZM52.9382 95.2462C51.9 95.4946 51.4919 96.1424 51.7137 97.2072L52.6099 101.777C52.7962 102.868 53.4706 103.241 54.6064 102.922C56.0794 102.487 57.5878 102.265 59.1407 102.265C60.3918 102.265 61.3058 102.389 61.8736 102.629C62.4415 102.877 62.7965 103.321 62.9384 103.978H59.4246C56.1326 103.978 53.7546 104.528 52.2816 105.628C50.8086 106.728 50.081 108.521 50.081 110.996C50.081 113.259 50.6844 114.98 51.9 116.161C53.1068 117.341 54.846 117.935 57.0998 117.935C60.5249 117.935 62.7876 116.693 63.879 114.226L64.2428 113.41H65.1035L64.8551 114.102C64.6332 114.838 64.5268 115.397 64.5268 115.779V115.939C64.5268 117.004 65.068 117.536 66.1595 117.536H71.0132C72.1312 117.536 72.6902 116.995 72.6902 115.903V104.146C72.6902 100.801 71.7319 98.3518 69.8153 96.799C67.8986 95.2462 64.8728 94.4742 60.729 94.4742C57.8452 94.4742 55.2453 94.7315 52.9293 95.255H52.9382V95.2462ZM59.5577 109.781C59.5577 108.689 60.0724 108.148 61.1105 108.148H63.0715V109.532C63.0715 110.162 62.9118 110.615 62.5835 110.899C62.2552 111.183 61.7228 111.325 60.9952 111.325C60.0457 111.325 59.5666 110.81 59.5666 109.772L59.5577 109.781ZM89.3543 110.109H89.026C88.183 110.109 87.6063 109.949 87.2957 109.639C86.9851 109.328 86.8254 108.742 86.8254 107.908V103.17H89.5229C90.6409 103.17 91.2 102.611 91.2 101.493V97.7751C91.2 96.6837 90.6409 96.1424 89.5229 96.1424H86.8254V91.8122C86.8254 91.2088 86.6657 90.7829 86.3374 90.5256C86.0091 90.2682 85.5654 90.215 84.9886 90.3836L78.662 92.0961C77.7391 92.3446 77.2777 92.9391 77.2777 93.8974V96.1424H76.0532C74.9352 96.1424 74.3761 96.6837 74.3761 97.7751V101.493C74.3761 102.611 74.9352 103.17 76.0532 103.17H77.0736V108.352C77.0736 111.777 77.8722 114.244 79.4606 115.744C81.0489 117.243 83.6665 117.988 87.3223 117.988C88.2718 117.988 89.1857 117.944 90.0553 117.864C90.6232 117.784 91.0314 117.589 91.2621 117.296C91.4928 116.995 91.5815 116.533 91.5283 115.912L90.9959 111.502C90.8894 110.553 90.3392 110.082 89.3632 110.118H89.3543V110.109ZM103.188 115.903V105.335C103.188 103.481 103.907 102.558 105.353 102.558C106.631 102.558 107.27 103.374 107.27 105.007V115.903C107.27 116.995 107.811 117.536 108.902 117.536H115.353C116.471 117.536 117.03 116.995 117.03 115.903V103.658C117.03 97.5355 114.475 94.4742 109.355 94.4742C106.391 94.4742 104.386 95.681 103.356 98.1123L102.993 99.0528H102.096L102.46 98.1566C102.948 96.8522 103.197 95.4769 103.197 94.0305V90.6054C103.197 89.514 102.638 88.9727 101.52 88.9727H95.0687C93.9773 88.9727 93.436 89.514 93.436 90.6054V115.912C93.436 117.004 93.9773 117.545 95.0687 117.545H101.52C102.638 117.545 103.197 117.004 103.197 115.912H103.188V115.903ZM133.144 120.757C135.487 119.178 137.27 116.578 138.495 112.957L143.961 96.799C144.147 96.2311 144.12 95.7697 143.881 95.4325C143.632 95.0953 143.215 94.9267 142.612 94.9267H135.629C134.653 94.9267 134.049 95.4059 133.836 96.3553L132.452 102.434C131.991 104.528 131.707 106.542 131.591 108.476H130.695V108.317C130.695 106.435 130.438 104.492 129.923 102.478L128.37 96.311C128.122 95.3881 127.51 94.9267 126.534 94.9267H119.346C118.716 94.9267 118.29 95.0953 118.059 95.4325C117.829 95.7697 117.82 96.2311 118.042 96.799L123.224 111.085C123.605 112.23 123.792 112.993 123.792 113.374C123.792 113.916 123.659 114.324 123.383 114.599C122.975 115.007 122.363 115.211 121.547 115.211C121.325 115.211 120.917 115.185 120.322 115.131C119.914 115.078 119.603 115.176 119.399 115.442C119.195 115.699 119.089 116.116 119.089 116.684V121.13C119.089 122.159 119.577 122.762 120.562 122.922C121.706 123.055 122.78 123.126 123.783 123.126C127.678 123.126 130.793 122.336 133.126 120.757H133.144ZM147.315 95.2462C146.277 95.4946 145.868 96.1424 146.09 97.2072L146.986 101.777C147.173 102.868 147.847 103.241 148.983 102.922C150.456 102.487 151.964 102.265 153.517 102.265C154.768 102.265 155.682 102.389 156.25 102.629C156.818 102.877 157.173 103.321 157.315 103.978H153.801C150.509 103.978 148.131 104.528 146.658 105.628C145.185 106.728 144.458 108.521 144.458 110.996C144.458 113.259 145.061 114.98 146.277 116.161C147.483 117.341 149.223 117.935 151.476 117.935C154.902 117.935 157.164 116.693 158.256 114.226L158.619 113.41H159.48L159.232 114.102C159.01 114.838 158.903 115.397 158.903 115.779V115.939C158.903 117.004 159.445 117.536 160.536 117.536H165.39C166.508 117.536 167.067 116.995 167.067 115.903V104.146C167.067 100.801 166.108 98.3518 164.192 96.799C162.275 95.2462 159.249 94.4742 155.114 94.4742C152.231 94.4742 149.631 94.7315 147.315 95.255V95.2462ZM153.925 109.781C153.925 108.689 154.44 108.148 155.478 108.148H157.439V109.532C157.439 110.162 157.28 110.615 156.951 110.899C156.623 111.183 156.091 111.325 155.363 111.325C154.413 111.325 153.934 110.81 153.934 109.772H153.925V109.781Z" fill="white"/>
<path d="M7.64941 128.893H8.80295V123.924H7.64941V128.893ZM11.0124 128.893H12.1571V124.865H13.7454V123.933H9.4152V124.865H11.0035V128.893H11.0124ZM14.89 123.569C14.4996 123.569 14.1979 123.836 14.1979 124.253C14.1979 124.554 14.3488 124.767 14.5706 124.865L14.2689 125.983H14.9699L15.3781 124.962C15.5378 124.572 15.5644 124.439 15.5644 124.253C15.5644 123.844 15.2805 123.569 14.8812 123.569H14.89ZM18.1022 128.982C19.5219 128.982 20.214 128.272 20.214 127.447C20.214 125.628 17.3213 126.258 17.3213 125.335C17.3213 125.025 17.5875 124.767 18.2619 124.767C18.7056 124.767 19.1759 124.891 19.6373 125.158L19.9922 124.288C19.5308 123.995 18.8919 123.844 18.2708 123.844C16.8599 123.844 16.1767 124.545 16.1767 125.397C16.1767 127.243 19.0694 126.604 19.0694 127.536C19.0694 127.837 18.7943 128.068 18.1111 128.068C17.5165 128.068 16.8865 127.855 16.4695 127.553L16.0791 128.423C16.5227 128.76 17.3125 129 18.1022 129V128.982ZM26.7182 128.893H27.9249L25.7066 123.924H24.5708L22.3525 128.893H23.5327L23.9763 127.829H26.2834L26.727 128.893H26.7182ZM24.3401 126.959L25.1299 125.06L25.9196 126.959H24.3401ZM28.4485 128.893H32.0865V127.962H29.5931V123.933H28.4396V128.902H28.4485V128.893ZM32.7343 128.893H36.3723V127.962H33.8789V123.933H32.7343V128.902V128.893ZM42.7434 128.893H43.9502L41.7318 123.924H40.596L38.3866 128.893H39.5667L40.0104 127.829H42.3175L42.7611 128.893H42.7434ZM40.3653 126.959L41.1551 125.06L41.9448 126.959H40.3653ZM48.1117 126.311C48.5199 126.098 48.7684 125.717 48.7684 125.22C48.7684 124.448 48.1295 123.924 46.8872 123.924H44.4559V128.893H47.0292C48.3336 128.893 49.0168 128.396 49.0168 127.536C49.0168 126.906 48.6619 126.489 48.1117 126.311ZM46.7541 124.794C47.3131 124.794 47.6237 124.989 47.6237 125.38C47.6237 125.77 47.3131 125.965 46.7541 125.965H45.6095V124.794H46.7541ZM46.9493 128.024H45.6095V126.799H46.9493C47.5439 126.799 47.8633 127.003 47.8633 127.42C47.8633 127.837 47.5439 128.033 46.9493 128.033V128.024ZM52.2999 128.982C53.8617 128.982 55.0152 127.9 55.0152 126.409C55.0152 124.918 53.8617 123.836 52.2999 123.836C50.7382 123.836 49.5847 124.927 49.5847 126.409C49.5847 127.891 50.7294 128.982 52.2999 128.982ZM52.2999 127.997C51.4126 127.997 50.7471 127.349 50.7471 126.409C50.7471 125.468 51.4126 124.82 52.2999 124.82C53.1873 124.82 53.8528 125.468 53.8528 126.409C53.8528 127.349 53.1873 127.997 52.2999 127.997ZM58.0942 128.982C59.5051 128.982 60.3481 128.175 60.3481 126.71V123.924H59.2123V126.666C59.2123 127.607 58.8041 127.997 58.1031 127.997C57.4021 127.997 56.9939 127.607 56.9939 126.666V123.924H55.8404V126.71C55.8404 128.175 56.6745 128.982 58.0942 128.982ZM62.4244 128.893H63.5691V124.865H65.1574V123.933H60.8272V124.865H62.4155V128.893H62.4244ZM71.4397 126.311C71.8479 126.098 72.0963 125.717 72.0963 125.22C72.0963 124.448 71.4574 123.924 70.2152 123.924H67.7839V128.893H70.3572C71.6615 128.893 72.3448 128.396 72.3448 127.536C72.3448 126.906 71.9898 126.489 71.4397 126.311ZM70.0821 124.794C70.6411 124.794 70.9517 124.989 70.9517 125.38C70.9517 125.77 70.65 125.965 70.0821 125.965H68.9374V124.794H70.0821ZM70.2773 128.024H68.9374V126.799H70.2773C70.8718 126.799 71.1912 127.003 71.1912 127.42C71.1912 127.837 70.8718 128.033 70.2773 128.033V128.024ZM74.3679 127.971V126.817H76.675V125.921H74.3679V124.838H76.9766V123.915H73.2232V128.884H77.0654V127.962H74.359H74.3679V127.971ZM81.4044 123.924V126.941L78.9288 123.924H77.9793V128.893H79.1151V125.876L81.5908 128.893H82.5313V123.924H81.3956H81.4044ZM84.865 127.971V126.817H87.1721V125.921H84.865V124.838H87.4738V123.915H83.7204V128.884H87.5625V127.962H84.8561H84.865V127.971ZM92.2387 124.847V123.924H88.4853V128.893H89.63V127.083H91.9282V126.16H89.63V124.847H92.2387ZM93.0196 128.893H94.1643V123.924H93.0196V128.893ZM96.3826 128.893H97.5273V124.865H99.1156V123.933H94.7854V124.865H96.3737V128.893H96.3826Z" fill="white"/>
<path d="M169.232 91.1025C167.679 91.1025 166.499 92.3093 166.499 93.8266C166.499 95.344 167.679 96.5508 169.214 96.5508C170.749 96.5508 171.947 95.344 171.947 93.8089C171.947 92.2738 170.785 91.1025 169.232 91.1025ZM169.214 96.2047C167.874 96.2047 166.863 95.1576 166.863 93.8266C166.863 92.4956 167.874 91.4486 169.232 91.4486C170.59 91.4486 171.583 92.469 171.583 93.8089C171.583 95.1488 170.554 96.2047 169.214 96.2047ZM170.607 93.3297C170.607 92.6909 170.128 92.2827 169.356 92.2827H168.123V95.3706H168.646V94.3857H169.489L170.128 95.3706H170.661L169.96 94.2792C170.368 94.1372 170.607 93.8 170.607 93.3297ZM169.321 93.9509H168.637V92.7264H169.321C169.818 92.7264 170.102 92.9393 170.102 93.3386C170.102 93.7379 169.818 93.9597 169.321 93.9597V93.9509Z" fill="white"/>
<path d="M116.8 84.1368L116.197 83.489C125.886 74.4915 131.45 61.7583 131.45 48.5548C131.45 22.272 110.065 0.887332 83.7823 0.887332C57.4996 0.887332 36.1149 22.272 36.1149 48.5548C36.1149 61.7583 41.6784 74.4915 51.3681 83.489L50.7647 84.1368C40.8887 74.9707 35.2275 61.9979 35.2275 48.5459C35.2275 21.7751 57.0115 0 83.7823 0C110.553 0 132.337 21.784 132.337 48.5548C132.337 62.0067 126.676 74.9795 116.8 84.1457V84.1368Z" fill="white"/>
<path d="M118.628 54.8277V21.5616H100.411L83.7733 38.1991L100.411 54.8366H118.628V54.8277ZM67.1447 54.8277L83.7733 38.1902L67.1447 21.5527H48.9277V54.8188H67.1447V54.8277Z" fill="#8C2746"/>
<mask id="mask0_0_719" style="mask-type:luminance" maskUnits="userSpaceOnUse" x="48" y="21" width="71" height="34">
<path d="M118.627 54.8277V21.5616H100.41L83.7728 38.1991L100.41 54.8366H118.627V54.8277ZM67.1442 54.8277L83.7728 38.1902L67.1442 21.5527H48.9272V54.8188H67.1442V54.8277Z" fill="white"/>
</mask>
<g mask="url(#mask0_0_719)">
<path d="M46.8511 36.9131V39.4775H119.941V36.9131H46.8511Z" fill="white"/>
<path d="M46.8511 26.6826V29.2381H119.941V26.6826H46.8511Z" fill="white"/>
<path d="M46.8511 42.0332V44.5976H119.941V42.0332H46.8511Z" fill="white"/>
<path d="M46.8511 47.1533V49.7088H119.941V47.1533H46.8511Z" fill="white"/>
<path d="M46.8511 31.8027V34.3583H119.941V31.8027H46.8511Z" fill="white"/>
<path d="M46.8511 52.2725V54.828H119.941V52.2725H46.8511Z" fill="white"/>
<path d="M46.8511 21.5625V24.118H119.941V21.5625H46.8511Z" fill="white"/>
</g>
<path d="M100.411 84.1365H67.1445V55.5466L83.782 38.9092L100.411 55.5466V84.1365Z" fill="white"/>
</svg>
